<?xml version="1.0" encoding="UTF-8"?>
<svg width="160" height="160" version="1.0" viewBox="0 0 120 120" xmlns="http://www.w3.org/2000/svg" xmlns:xlink="http://www.w3.org/1999/xlink" zoomAndPan="magnify">
 <circle cx="59.623" cy="59.418" r="58.116" fill="#432c72"/>
 <rect x="41.322" y="87.966" width="35.164" height="15.986" ry="7.9931" fill="#432b72" fill-opacity=".99608" stroke="#fff" stroke-opacity=".99608" stroke-width="3.8104"/>
 <g fill="#f9f9f9">
  <ellipse cx="50.342" cy="95.748" rx="2.8767" ry="2.9397"/>
  <ellipse cx="59.089" cy="12.412" rx="4.5859" ry="4.6863"/>
  <ellipse cx="59.154" cy="95.789" rx="2.8767" ry="2.9397"/>
  <ellipse cx="67.959" cy="95.666" rx="2.8767" ry="2.9397"/>
 </g>
 <path d="m45.548 23.904c6.352-0.19722 19.61-0.41886 26.575-0.27397 2.0881 0.04344 4.4587 1.5167 5.5763 4.0672 0.32651 0.74517 0.23282 1.7702 0.38264 2.6452-0.66722 4.8009-2.2867 11.71-4.1191 15.665-0.50339 1.0866-1.9083 1.5952-1.9083 1.5952-8.9256 0.08667-15.799-0.12791-25.89-0.20548 0 0-1.3033-0.53308-1.7303-1.3231-2.0197-3.7363-3.9416-10.705-4.571-14.773-0.27525-0.65293-0.0448-2.379 0.26904-3.1527 0.96581-2.381 3.2009-4.1758 5.4159-4.2446z" fill="#fff" fill-opacity=".99608"/>
 <rect x="47.671" y="29.452" width="23.014" height="6.8493" ry="3.4247" fill="#432b72" fill-opacity=".99608"/>
 <path d="m74.007 51.336s3.2026 2.2906 3.9725 4.0065c0.29969 0.6679 0.13699 2.1919 0.13699 2.1919l0.78803 0.61625s3.6817 3.0742 5.0685 5c1.3048 1.812 2.4645 3.5888 2.9498 6.0142 0.19268 0.96291-0.0046 3.7118-0.0046 3.7118l-3.904-0.06849s0.08311-1.6726-0.13708-2.4658c-0.36606-1.3187-1.1105-2.5251-1.9178-3.6301-1-1.3688-2.6789-2.9389-4.456-2.9274-1.376 0.0089-2.62 1.1918-3.4207 2.311-2.6844 3.7522-3.6301 13.356-3.6301 13.356v2.4658l-10.159-0.0731 0.22396-30.57" fill="#fff" fill-opacity=".99608"/>
 <ellipse cx="84.977" cy="78.077" rx="4.5353" ry="4.526" fill="#432b72" fill-opacity=".99608" stroke="#fff" stroke-opacity=".99608" stroke-width="2.3859"/>
 <rect x="76.934" y="78.249" width="16.739" height="8.5232" fill="#432c72"/>
 <g transform="matrix(-1.0042 0 0 1 119.59 -.011523)">
  <path d="m74.007 51.336s3.2026 2.2906 3.9725 4.0065c0.29969 0.6679 0.13699 2.1919 0.13699 2.1919l0.78803 0.61625s3.6817 3.0742 5.0685 5c1.3048 1.812 2.4645 3.5888 2.9498 6.0142 0.19268 0.96291-0.0046 3.7118-0.0046 3.7118l-3.904-0.06849s0.08311-1.6726-0.13708-2.4658c-0.36606-1.3187-1.1105-2.5251-1.9178-3.6301-1-1.3688-2.6789-2.9389-4.456-2.9274-1.376 0.0089-2.62 1.1918-3.4207 2.311-2.6844 3.7522-3.6301 13.356-3.6301 13.356v2.4658l-10.002-0.06363 0.23983-30.589" fill="#fff" fill-opacity=".99608"/>
  <ellipse cx="84.977" cy="78.077" rx="4.5353" ry="4.526" fill="#432b72" fill-opacity=".99608" stroke="#fff" stroke-opacity=".99608" stroke-width="2.3859"/>
  <rect x="76.934" y="78.249" width="16.739" height="8.5232" fill="#432c72"/>
 </g>
 <rect x="57.624" y="15.843" width="3.4497" height="8.6244" fill="#fff"/>
 <ellipse cx="59.253" cy="24.595" rx="6.4842" ry="4.7274" fill="#fff"/>
</svg>
