<?xml version="1.0" encoding="UTF-8" standalone="no"?>
<svg
   version="1.2"
   viewBox="1000 1000 39001 18001"
   preserveAspectRatio="none"
   id="svg60"
   sodipodi:docname="background.svg"
   inkscape:version="1.4.2 (f4327f4, 2025-05-13)"
   xmlns:inkscape="http://www.inkscape.org/namespaces/inkscape"
   xmlns:sodipodi="http://sodipodi.sourceforge.net/DTD/sodipodi-0.dtd"
   xmlns="http://www.w3.org/2000/svg"
   xmlns:svg="http://www.w3.org/2000/svg">
  <defs
     id="defs60" />
  <sodipodi:namedview
     id="namedview60"
     pagecolor="#ffffff"
     bordercolor="#000000"
     borderopacity="0.25"
     inkscape:showpageshadow="2"
     inkscape:pageopacity="0.0"
     inkscape:pagecheckerboard="0"
     inkscape:deskcolor="#d1d1d1"
     inkscape:zoom="0.26"
     inkscape:cx="19501.923"
     inkscape:cy="8142.3077"
     inkscape:window-width="3840"
     inkscape:window-height="2054"
     inkscape:window-x="-11"
     inkscape:window-y="-11"
     inkscape:window-maximized="1"
     inkscape:current-layer="svg60" />
  <g
     class="Group"
     id="g44">
    <g
       class="com.sun.star.drawing.CustomShape"
       id="g1">
      <g
         id="id3">
        <rect
           class="BoundingBox"
           stroke="none"
           fill="none"
           x="1000"
           y="10000"
           width="39001"
           height="9001"
           id="rect1" />
        <path
           fill="rgb(238,238,238)"
           stroke="none"
           d="M 20500,19000 L 1000,19000 1000,10000 40000,10000 40000,19000 20500,19000 Z "
           id="path1" />
      </g>
    </g>
    <g
       class="com.sun.star.drawing.PolyPolygonShape"
       id="g2">
      <g
         id="id4">
        <rect
           class="BoundingBox"
           stroke="none"
           fill="none"
           x="999"
           y="11218"
           width="39002"
           height="7751"
           id="rect2" />
        <path
           fill="rgb(191,129,158)"
           fill-opacity="0.502"
           stroke="none"
           d="M 1000,15218 L 1000,13468 2750,13051 3416,13134 4416,13468 5500,13634 6500,13884 9250,13468 9833,12884 11750,13384 12833,12302 16250,13219 17500,12885 20333,13052 21250,11551 22666,11634 24166,12551 25333,12134 26916,12718 28500,12718 30750,13343 31625,12343 32000,11593 33875,11218 40000,11343 40000,18968 1000,18968 1000,15218 Z "
           id="path2" />
      </g>
    </g>
    <g
       class="com.sun.star.drawing.ClosedBezierShape"
       id="g3">
      <g
         id="id5">
        <rect
           class="BoundingBox"
           stroke="none"
           fill="none"
           x="1500"
           y="11750"
           width="38502"
           height="5626"
           id="rect3" />
        <path
           fill="rgb(191,129,158)"
           stroke="none"
           d="M 32875,14625 L 33125,13750 33250,13500 33625,13375 34187,13281 34343,13156 34687,13062 34750,13125 34781,13187 34781,13281 34781,13437 34750,13656 34687,13781 34750,14156 34781,14343 34906,14562 35000,14750 35125,14687 35187,14437 35156,14281 35281,14093 35250,13843 35156,13531 35093,13343 35031,13031 35062,12937 35000,12750 35000,12656 35218,12468 36000,12125 38375,11750 40000,11750 40000,13000 36125,13000 36125,17375 21250,17250 1500,17250 1500,16125 1875,16125 C 1875,16125 1875,15458 1875,15125 2750,14500 5000,14500 6000,14625 6000,14667 6000,14708 6000,14750 6125,14750 6750,14875 7000,15000 7000,15375 7000,16125 7000,16125 L 7750,16125 7750,16000 7875,16000 7875,15875 8000,15875 8000,15750 8125,15750 8125,15125 8000,15125 8000,15000 8750,14625 9375,15000 9375,15125 9250,15125 9250,15750 9375,15750 9375,15875 9500,15875 9500,16000 10250,16000 10250,14625 10125,14625 10125,14500 13125,14500 13125,14750 13750,14750 13750,14875 13625,14875 13625,15125 13750,15125 14000,15125 14000,14500 18000,14500 18000,15000 18000,15500 27000,15500 27000,15000 32625,15000 32625,14875 32875,14625 Z "
           id="path3" />
      </g>
    </g>
    <g
       class="com.sun.star.drawing.ClosedBezierShape"
       id="g4">
      <g
         id="id6">
        <rect
           class="BoundingBox"
           stroke="none"
           fill="none"
           x="1000"
           y="12000"
           width="39001"
           height="7001"
           id="rect4" />
        <path
           fill="rgb(141,29,117)"
           stroke="none"
           d="M 1000,16500 L 9000,16500 9000,16750 9250,16750 9250,17000 9750,17000 9750,16750 10000,16750 10000,16500 12000,16500 14000,16500 14000,16000 16000,16000 18000,16000 18000,15500 28000,15500 28000,15000 32000,15000 32500,15000 33000,15000 33500,15000 34000,15000 33750,15000 C 34250,15000 34167,15167 34250,15250 L 34250,15250 C 34250,16000 34688,16125 35000,16125 35312,16125 35750,16125 35750,15250 35737,15280 35750,13250 35750,13250 35750,13125 35812,13000 36000,13000 L 38000,13000 38000,12000 40000,12000 40000,19000 1000,19000 1000,16500 Z "
           id="path4" />
      </g>
    </g>
    <g
       class="Group"
       id="g8">
      <g
         class="com.sun.star.drawing.CustomShape"
         id="g5">
        <g
           id="id7">
          <rect
             class="BoundingBox"
             stroke="none"
             fill="none"
             x="1000"
             y="17750"
             width="8001"
             height="251"
             id="rect5" />
          <path
             fill="rgb(255,219,182)"
             stroke="none"
             d="M 5000,18000 L 1000,18000 1000,17750 9000,17750 9000,18000 5000,18000 Z "
             id="path5" />
        </g>
      </g>
      <g
         class="com.sun.star.drawing.LineShape"
         id="g6">
        <g
           id="id8">
          <rect
             class="BoundingBox"
             stroke="none"
             fill="none"
             x="1000"
             y="18000"
             width="8001"
             height="1"
             id="rect6" />
        </g>
      </g>
      <g
         class="com.sun.star.drawing.LineShape"
         id="g7">
        <g
           id="id9">
          <rect
             class="BoundingBox"
             stroke="none"
             fill="none"
             x="1000"
             y="17750"
             width="8001"
             height="1"
             id="rect7" />
        </g>
      </g>
    </g>
    <g
       class="Group"
       id="g14">
      <g
         class="com.sun.star.drawing.PolyPolygonShape"
         id="g9">
        <g
           id="id10">
          <rect
             class="BoundingBox"
             stroke="none"
             fill="none"
             x="9000"
             y="17000"
             width="751"
             height="1001"
             id="rect8" />
          <path
             fill="rgb(255,219,182)"
             stroke="none"
             d="M 9500,17250 L 9500,17250 9750,17000 9250,17000 9250,17750 9000,17750 9000,18000 9500,18000 9500,17250 Z "
             id="path8" />
        </g>
      </g>
      <g
         class="com.sun.star.drawing.PolyLineShape"
         id="g10">
        <g
           id="id11">
          <rect
             class="BoundingBox"
             stroke="none"
             fill="none"
             x="9000"
             y="17000"
             width="251"
             height="752"
             id="rect9" />
        </g>
      </g>
      <g
         class="com.sun.star.drawing.LineShape"
         id="g11">
        <g
           id="id12">
          <rect
             class="BoundingBox"
             stroke="none"
             fill="none"
             x="9250"
             y="17000"
             width="501"
             height="1"
             id="rect10" />
        </g>
      </g>
      <g
         class="com.sun.star.drawing.LineShape"
         id="g12">
        <g
           id="id13">
          <rect
             class="BoundingBox"
             stroke="none"
             fill="none"
             x="9500"
             y="17000"
             width="251"
             height="251"
             id="rect11" />
        </g>
      </g>
      <g
         class="com.sun.star.drawing.PolyLineShape"
         id="g13">
        <g
           id="id14">
          <rect
             class="BoundingBox"
             stroke="none"
             fill="none"
             x="9000"
             y="17250"
             width="501"
             height="752"
             id="rect12" />
        </g>
      </g>
    </g>
    <g
       class="Group"
       id="g35">
      <g
         class="com.sun.star.drawing.CustomShape"
         id="g15">
        <g
           id="id15">
          <rect
             class="BoundingBox"
             stroke="none"
             fill="none"
             x="10000"
             y="14500"
             width="2001"
             height="2001"
             id="rect14" />
          <path
             fill="rgb(114,159,207)"
             fill-opacity="0.102"
             stroke="none"
             d="M 11000,16500 L 10000,16500 10000,14500 12000,14500 12000,16500 11000,16500 Z "
             id="path14" />
        </g>
      </g>
      <g
         class="com.sun.star.drawing.CustomShape"
         id="g16">
        <g
           id="id16">
          <rect
             class="BoundingBox"
             stroke="none"
             fill="none"
             x="11562"
             y="16124"
             width="439"
             height="188"
             id="rect15" />
          <path
             fill="rgb(255,128,0)"
             stroke="none"
             d="M 11781,16311 L 11562,16311 11562,16124 12000,16124 12000,16311 11781,16311 Z "
             id="path15" />
        </g>
      </g>
      <g
         class="com.sun.star.drawing.CustomShape"
         id="g17">
        <g
           id="id17">
          <rect
             class="BoundingBox"
             stroke="none"
             fill="none"
             x="11562"
             y="16155"
             width="439"
             height="126"
             id="rect16" />
          <path
             fill="rgb(255,219,182)"
             stroke="none"
             d="M 11781,16280 L 11562,16280 11562,16155 12000,16155 12000,16280 11781,16280 Z "
             id="path16" />
        </g>
      </g>
      <g
         class="com.sun.star.drawing.ClosedBezierShape"
         id="g18">
        <g
           id="id18">
          <rect
             class="BoundingBox"
             stroke="none"
             fill="none"
             x="11311"
             y="16125"
             width="252"
             height="188"
             id="rect17" />
          <path
             fill="rgb(255,128,0)"
             stroke="none"
             d="M 11562,16125 C 11419,16125 11312,16218 11312,16312 11360,16312 11455,16312 11455,16312 11455,16312 11490,16312 11562,16312 11562,16281 11562,16156 11562,16125 Z "
             id="path17" />
        </g>
      </g>
      <g
         class="com.sun.star.drawing.ClosedBezierShape"
         id="g19">
        <g
           id="id19">
          <rect
             class="BoundingBox"
             stroke="none"
             fill="none"
             x="11343"
             y="16156"
             width="220"
             height="157"
             id="rect18" />
          <path
             fill="rgb(255,219,182)"
             stroke="none"
             d="M 11562,16156 C 11437,16156 11343,16233 11343,16312 11385,16312 11468,16312 11468,16312 11468,16312 11499,16312 11562,16312 11562,16286 11562,16182 11562,16156 Z "
             id="path18" />
        </g>
      </g>
      <g
         class="Group"
         id="g34">
        <g
           class="Group"
           id="g33">
          <g
             class="Group"
             id="g32">
            <g
               class="Group"
               id="g25">
              <g
                 class="com.sun.star.drawing.PolyPolygonShape"
                 id="g20">
                <g
                   id="id20">
                  <rect
                     class="BoundingBox"
                     stroke="none"
                     fill="none"
                     x="10250"
                     y="15187"
                     width="814"
                     height="1314"
                     id="rect19" />
                  <path
                     fill="rgb(255,109,109)"
                     stroke="none"
                     d="M 11063,15187 L 10972,15187 11017,15384 10746,15384 10746,15450 10927,15515 11015,15776 10513,15776 10537,15843 10882,15909 10967,16183 10871,16296 10250,16296 10250,16387 10431,16500 11063,16500 11063,15187 Z "
                     id="path19" />
                </g>
              </g>
              <g
                 class="com.sun.star.drawing.CustomShape"
                 id="g21">
                <g
                   id="id21">
                  <rect
                     class="BoundingBox"
                     stroke="none"
                     fill="none"
                     x="10249"
                     y="16299"
                     width="814"
                     height="89"
                     id="rect20" />
                  <path
                     fill="rgb(255,255,255)"
                     stroke="none"
                     d="M 10656,16387 L 10249,16387 10249,16299 11062,16299 11062,16387 10656,16387 Z "
                     id="path20" />
                </g>
              </g>
              <g
                 class="com.sun.star.drawing.CustomShape"
                 id="g22">
                <g
                   id="id22">
                  <rect
                     class="BoundingBox"
                     stroke="none"
                     fill="none"
                     x="10519"
                     y="15779"
                     width="544"
                     height="65"
                     id="rect21" />
                  <path
                     fill="rgb(255,255,255)"
                     stroke="none"
                     d="M 10791,15843 L 10519,15843 10519,15779 11062,15779 11062,15843 10791,15843 Z "
                     id="path21" />
                </g>
              </g>
              <g
                 class="com.sun.star.drawing.CustomShape"
                 id="g23">
                <g
                   id="id23">
                  <rect
                     class="BoundingBox"
                     stroke="none"
                     fill="none"
                     x="10745"
                     y="15382"
                     width="319"
                     height="68"
                     id="rect22" />
                  <path
                     fill="rgb(255,255,255)"
                     stroke="none"
                     d="M 10904,15449 L 10745,15449 10745,15382 11063,15382 11063,15449 10904,15449 Z "
                     id="path22" />
                </g>
              </g>
              <g
                 class="com.sun.star.drawing.CustomShape"
                 id="g24">
                <g
                   id="id24">
                  <rect
                     class="BoundingBox"
                     stroke="none"
                     fill="none"
                     x="10971"
                     y="15187"
                     width="92"
                     height="69"
                     id="rect23" />
                  <path
                     fill="rgb(255,255,255)"
                     stroke="none"
                     d="M 11017,15255 L 10971,15255 10971,15187 11062,15187 11062,15255 11017,15255 Z "
                     id="path23" />
                </g>
              </g>
            </g>
            <g
               class="Group"
               id="g31">
              <g
                 class="com.sun.star.drawing.PolyPolygonShape"
                 id="g26">
                <g
                   id="id25">
                  <rect
                     class="BoundingBox"
                     stroke="none"
                     fill="none"
                     x="11063"
                     y="15187"
                     width="814"
                     height="1314"
                     id="rect25" />
                  <path
                     fill="rgb(255,109,109)"
                     stroke="none"
                     d="M 11063,15187 L 11153,15187 11109,15384 11380,15384 11380,15450 11198,15515 11111,15776 11612,15776 11589,15843 11244,15909 11159,16183 11254,16296 11876,16296 11876,16387 11695,16500 11063,16500 11063,15187 Z "
                     id="path25" />
                </g>
              </g>
              <g
                 class="com.sun.star.drawing.CustomShape"
                 id="g27">
                <g
                   id="id26">
                  <rect
                     class="BoundingBox"
                     stroke="none"
                     fill="none"
                     x="11063"
                     y="16299"
                     width="813"
                     height="89"
                     id="rect26" />
                  <path
                     fill="rgb(255,255,255)"
                     stroke="none"
                     d="M 11469,16387 L 11063,16387 11063,16299 11875,16299 11875,16387 11469,16387 Z "
                     id="path26" />
                </g>
              </g>
              <g
                 class="com.sun.star.drawing.CustomShape"
                 id="g28">
                <g
                   id="id27">
                  <rect
                     class="BoundingBox"
                     stroke="none"
                     fill="none"
                     x="11063"
                     y="15779"
                     width="543"
                     height="65"
                     id="rect27" />
                  <path
                     fill="rgb(255,255,255)"
                     stroke="none"
                     d="M 11334,15843 L 11063,15843 11063,15779 11605,15779 11605,15843 11334,15843 Z "
                     id="path27" />
                </g>
              </g>
              <g
                 class="com.sun.star.drawing.CustomShape"
                 id="g29">
                <g
                   id="id28">
                  <rect
                     class="BoundingBox"
                     stroke="none"
                     fill="none"
                     x="11059"
                     y="15382"
                     width="318"
                     height="68"
                     id="rect28" />
                  <path
                     fill="rgb(255,255,255)"
                     stroke="none"
                     d="M 11218,15449 L 11059,15449 11059,15382 11376,15382 11376,15449 11218,15449 Z "
                     id="path28" />
                </g>
              </g>
              <g
                 class="com.sun.star.drawing.CustomShape"
                 id="g30">
                <g
                   id="id29">
                  <rect
                     class="BoundingBox"
                     stroke="none"
                     fill="none"
                     x="11059"
                     y="15187"
                     width="92"
                     height="69"
                     id="rect29" />
                  <path
                     fill="rgb(255,255,255)"
                     stroke="none"
                     d="M 11105,15255 L 11059,15255 11059,15187 11150,15187 11150,15255 11105,15255 Z "
                     id="path29" />
                </g>
              </g>
            </g>
          </g>
        </g>
      </g>
    </g>
    <g
       class="Group"
       id="g43">
      <g
         class="com.sun.star.drawing.OpenFreeHandShape"
         id="g36">
        <g
           id="id30">
          <rect
             class="BoundingBox"
             stroke="none"
             fill="none"
             x="34960"
             y="12351"
             width="133"
             height="238"
             id="rect35" />
        </g>
      </g>
      <g
         class="com.sun.star.drawing.ClosedFreeHandShape"
         id="g37">
        <g
           id="id31">
          <rect
             class="BoundingBox"
             stroke="none"
             fill="none"
             x="34925"
             y="12217"
             width="232"
             height="377"
             id="rect36" />
          <path
             fill="rgb(191,129,158)"
             stroke="none"
             d="M 35086,12593 C 35085,12580 35086,12567 35085,12557 35084,12544 35078,12531 35072,12521 35065,12510 35061,12496 35056,12485 35051,12472 35048,12458 35043,12446 35038,12432 35028,12418 35021,12406 35014,12393 35003,12380 34994,12370 34984,12358 34964,12347 34967,12332 34970,12316 34947,12300 34957,12295 34980,12283 34954,12271 34950,12267 34945,12262 34906,12219 34937,12218 34951,12217 34958,12240 34968,12250 34978,12260 35009,12282 35000,12294 34988,12309 34984,12318 34991,12329 34998,12341 35010,12354 35020,12367 35030,12380 35042,12394 35054,12406 35064,12415 35073,12430 35079,12442 35085,12453 35087,12466 35091,12478 35094,12489 35123,12488 35125,12500 35127,12512 35136,12525 35156,12531 L 35124,12557 35086,12593 Z "
             id="path36" />
        </g>
      </g>
      <g
         class="com.sun.star.drawing.ClosedFreeHandShape"
         id="g38">
        <g
           id="id32">
          <rect
             class="BoundingBox"
             stroke="none"
             fill="none"
             x="34781"
             y="12211"
             width="204"
             height="145"
             id="rect37" />
          <path
             fill="rgb(191,129,158)"
             stroke="none"
             d="M 34979,12355 C 34969,12342 34955,12333 34942,12329 34930,12326 34918,12325 34906,12325 34894,12326 34881,12320 34870,12318 34856,12315 34850,12302 34849,12290 34848,12275 34821,12255 34812,12246 34802,12235 34781,12228 34781,12215 34781,12203 34821,12227 34829,12237 34838,12248 34860,12251 34859,12270 34858,12282 34864,12296 34878,12301 34890,12305 34903,12313 34916,12316 34928,12318 34942,12322 34956,12323 L 34969,12324 34982,12332 34983,12334 34979,12355 Z "
             id="path37" />
        </g>
      </g>
      <g
         class="com.sun.star.drawing.ClosedFreeHandShape"
         id="g39">
        <g
           id="id33">
          <rect
             class="BoundingBox"
             stroke="none"
             fill="none"
             x="35021"
             y="12249"
             width="215"
             height="144"
             id="rect38" />
          <path
             fill="rgb(191,129,158)"
             stroke="none"
             d="M 35041,12391 C 35035,12376 35046,12362 35052,12352 35059,12338 35069,12325 35080,12315 35090,12306 35107,12304 35116,12294 35126,12284 35140,12275 35156,12275 35168,12275 35180,12274 35192,12272 35205,12269 35216,12243 35228,12251 35244,12262 35227,12248 35218,12250 35206,12253 35176,12260 35164,12261 35152,12263 35138,12260 35128,12267 35117,12274 35103,12283 35091,12289 35079,12296 35066,12304 35056,12315 35047,12325 35032,12334 35029,12349 L 35029,12361 35023,12374 35021,12379 35041,12391 Z "
             id="path38" />
        </g>
      </g>
      <g
         class="com.sun.star.drawing.ClosedFreeHandShape"
         id="g40">
        <g
           id="id34">
          <rect
             class="BoundingBox"
             stroke="none"
             fill="none"
             x="34625"
             y="12087"
             width="718"
             height="175"
             id="rect39" />
          <path
             fill="rgb(191,129,158)"
             stroke="none"
             d="M 34625,12153 C 34635,12161 34644,12178 34656,12184 34668,12190 34693,12191 34702,12183 34720,12167 34724,12186 34742,12183 34754,12181 34779,12172 34777,12194 34776,12210 34751,12199 34740,12207 34718,12224 34749,12225 34758,12227 34769,12229 34782,12222 34795,12222 34806,12222 34822,12216 34831,12223 34843,12232 34854,12221 34862,12242 34874,12275 34870,12238 34892,12232 34922,12223 34894,12253 34922,12242 34933,12238 34946,12243 34958,12243 34965,12243 34999,12239 34979,12228 34953,12214 34980,12202 34992,12209 35003,12216 35019,12210 35029,12203 35039,12196 35054,12196 35065,12201 35077,12206 35086,12225 35101,12225 35116,12225 35122,12214 35137,12214 35160,12214 35126,12241 35132,12252 35137,12263 35158,12259 35170,12257 35182,12255 35195,12247 35208,12247 35219,12247 35230,12227 35236,12254 35239,12266 35262,12243 35272,12250 35285,12259 35300,12264 35310,12257 35322,12249 35349,12262 35339,12237 35334,12223 35317,12217 35306,12209 35296,12201 35272,12214 35281,12192 35289,12174 35291,12189 35281,12184 35268,12178 35230,12159 35219,12153 35206,12146 35168,12159 35156,12153 35144,12146 35138,12155 35125,12153 35112,12151 35106,12130 35094,12130 35081,12129 35074,12121 35062,12121 35046,12121 35044,12126 35031,12121 35015,12115 34981,12106 34967,12098 34953,12090 34951,12095 34937,12090 34925,12086 34917,12088 34906,12090 34884,12093 34902,12121 34875,12121 34861,12121 34839,12114 34827,12118 34814,12122 34800,12128 34787,12129 34775,12129 34761,12127 34750,12127 34737,12127 34724,12127 34712,12127 34699,12126 34687,12133 34676,12136 34662,12141 34639,12148 34625,12153 Z "
             id="path39" />
        </g>
      </g>
      <g
         class="com.sun.star.drawing.ClosedFreeHandShape"
         id="g41">
        <g
           id="id35">
          <rect
             class="BoundingBox"
             stroke="none"
             fill="none"
             x="35071"
             y="12194"
             width="64"
             height="113"
             id="rect40" />
          <path
             fill="rgb(191,129,158)"
             stroke="none"
             d="M 35105,12220 C 35105,12232 35104,12246 35098,12256 35091,12268 35085,12282 35076,12294 35058,12319 35097,12298 35097,12291 35097,12276 35102,12264 35111,12255 35119,12247 35143,12238 35130,12225 L 35127,12212 35127,12200 35130,12194 35105,12220 Z "
             id="path40" />
        </g>
      </g>
      <g
         class="com.sun.star.drawing.ClosedFreeHandShape"
         id="g42">
        <g
           id="id36">
          <rect
             class="BoundingBox"
             stroke="none"
             fill="none"
             x="34850"
             y="12222"
             width="75"
             height="76"
             id="rect41" />
          <path
             fill="rgb(191,129,158)"
             stroke="none"
             d="M 34866,12297 C 34872,12282 34890,12275 34896,12261 34901,12249 34922,12250 34923,12235 34925,12206 34897,12235 34887,12243 34877,12251 34874,12269 34862,12277 L 34850,12283 34850,12283 34866,12297 Z "
             id="path41" />
        </g>
      </g>
    </g>
  </g>
  <g
     class="Group"
     id="g60">
    <g
       class="com.sun.star.drawing.CustomShape"
       id="g45">
      <g
         id="id37">
        <rect
           class="BoundingBox"
           stroke="none"
           fill="none"
           x="1000"
           y="1000"
           width="39001"
           height="9001"
           id="rect44" />
        <path
           fill="rgb(238,238,238)"
           stroke="none"
           d="M 20500,10000 L 1000,10000 1000,1000 40000,1000 40000,10000 20500,10000 Z "
           id="path44" />
      </g>
    </g>
    <g
       class="Group"
       id="g59">
      <g
         class="com.sun.star.drawing.PolyPolygonShape"
         id="g46">
        <g
           id="id38">
          <rect
             class="BoundingBox"
             stroke="none"
             fill="none"
             x="1000"
             y="1750"
             width="39001"
             height="8251"
             id="rect45" />
          <path
             fill="rgb(191,129,158)"
             fill-opacity="0.502"
             stroke="none"
             d="M 1000,2250 L 1750,2000 2166,2166 2500,1750 2500,1750 2750,1750 4052,2156 4218,2073 4552,2240 4635,2156 4552,2156 4635,2240 4718,2156 4885,2240 4968,2406 5052,2656 5218,2906 5302,3156 5302,3073 5385,3156 5468,3073 5552,2990 5718,3073 5802,3240 5885,3323 6052,3323 6218,3240 6218,3323 6385,3323 6635,3323 6812,3812 6718,3750 6781,3812 6718,3593 7000,3916 7333,4083 7500,4083 7916,3916 8250,4083 8500,4166 8666,4250 8833,4250 9166,4250 9333,4333 9416,4416 9833,4500 10083,4666 10750,4750 11166,4833 11333,5000 11583,5083 11916,5166 12333,4916 12583,4916 12750,4916 12833,4916 12916,5083 12916,5166 13000,5083 13416,5250 13583,5500 15666,5843 16073,6343 16354,6812 16135,6468 16385,6624 16479,6749 16698,6822 17031,6906 17198,7156 17448,7406 17781,7656 17948,7656 18031,7906 18281,7989 18698,8406 19781,8572 20656,8812 20718,8750 21093,8500 21343,8250 21468,7958 21634,7875 21718,7875 21968,7792 22051,7708 22134,7625 22301,7375 22468,7292 22551,7125 22551,7042 22718,6875 22801,6792 22968,6625 23301,6208 23551,5875 24833,5667 25166,5417 25333,5167 26750,5000 27333,4916 27916,5333 28250,5333 28583,5416 28916,5500 29500,5250 29750,5000 30500,5750 30875,5750 31375,5500 31584,5209 31584,5209 31584,5209 32084,4959 32167,4792 32125,4625 32250,4375 32375,4125 32500,3875 32875,3750 32875,3750 33417,3792 34375,4250 34625,4375 34916,3916 35250,4000 35500,4000 36250,4500 36333,4500 36500,4500 36666,4583 36833,4666 37000,4916 37166,5166 37250,5333 37750,5750 38833,6250 39666,6249 40000,6499 40000,10000 1000,10000 1000,2250 Z "
             id="path45" />
        </g>
      </g>
      <g
         class="Group"
         id="g52">
        <g
           class="com.sun.star.drawing.PolyPolygonShape"
           id="g47">
          <g
             id="id39">
            <rect
               class="BoundingBox"
               stroke="none"
               fill="none"
               x="16531"
               y="6124"
               width="23470"
               height="3752"
               id="rect46" />
            <path
               fill="rgb(191,129,158)"
               stroke="none"
               d="M 31750,6125 L 32000,6375 37250,6375 37875,6375 38500,6625 39375,6625 40000,7250 40000,8000 38000,8000 38000,7000 37250,7000 30000,7875 29906,9687 23031,9843 16531,9875 16531,8968 24343,9000 30000,7000 30750,6625 31250,6500 31750,6125 Z "
               id="path46" />
          </g>
        </g>
        <g
           class="com.sun.star.drawing.PolyPolygonShape"
           id="g48">
          <g
             id="id40">
            <rect
               class="BoundingBox"
               stroke="none"
               fill="none"
               x="2000"
               y="3875"
               width="6001"
               height="2626"
               id="rect47" />
            <path
               fill="rgb(191,129,158)"
               stroke="none"
               d="M 2000,5500 L 2000,4250 2375,4250 2625,4000 3000,4125 3375,3875 4000,4000 4000,4875 6000,4875 6750,5125 7375,5375 7500,5625 7750,5750 8000,6000 8000,6500 6000,6500 6000,5500 2000,5500 Z "
               id="path47" />
          </g>
        </g>
        <g
           class="com.sun.star.drawing.PolyPolygonShape"
           id="g49">
          <g
             id="id41">
            <rect
               class="BoundingBox"
               stroke="none"
               fill="none"
               x="4000"
               y="3500"
               width="2001"
               height="1377"
               id="rect48" />
            <path
               fill="rgb(141,29,117)"
               stroke="none"
               d="M 4000,4000 L 4500,4000 4750,3500 5000,3750 5250,3750 5500,4250 6000,4812 6000,4875 4000,4875 4000,4000 Z "
               id="path48" />
          </g>
        </g>
        <g
           class="com.sun.star.drawing.ClosedBezierShape"
           id="g50">
          <g
             id="id42">
            <rect
               class="BoundingBox"
               stroke="none"
               fill="none"
               x="1000"
               y="4000"
               width="39001"
               height="6001"
               id="rect49" />
            <path
               fill="#8d1d75"
               stroke="none"
               d="m 1000,4000 1000,250 v 1250 h 2000 2000 v 1000 h 2000 v -500 h 750 250 1500 1500 v 500 h 2000 v 500 l 250,250 h 250 l 250,250 h 250 500 l 250,250 250,250 h 250 250 l 500,500 h 250 250 l 250,250 h 250 l 8.204,246.6654 241.796,3.3346 125,250 h 125 l 250,-125 v -125 h 500 v 125 l 125,125 h 125 125 l 125,-125 v -125 h 500 v 125 l 125,125 125,125 250,-125 v -125 -125 c 167,0 134,2 500,0 21,-3 167,167 250,250 83,-42 167,-83 250,-125 v -125 h 250 l 500,-500 h 250 c 83,-167 250,-500 250,-500 l 500,-250 v -250 l 500,-250 v -250 h 1000 5000 v 500 h 2000 v -500 h 500 5250 250 v 1000 h 500 1500 v 2000 H 1000 Z"
               id="path49"
               sodipodi:nodetypes="ccccccccccccccccccccccccccccccccccccccccccccccccccccccccccccccccccccccccccc" />
          </g>
        </g>
        <g
           class="com.sun.star.drawing.PolyPolygonShape"
           id="g51">
          <g
             id="id43">
            <rect
               class="BoundingBox"
               stroke="none"
               fill="none"
               x="31750"
               y="4375"
               width="5501"
               height="2001"
               id="rect50" />
            <path
               fill="rgb(141,29,117)"
               stroke="none"
               d="M 32000,6375 L 32000,6375 31750,6125 32250,5625 32375,5625 32500,4875 33000,4625 33250,5125 33375,5250 33375,5250 33375,5125 33500,4875 34000,5375 34250,5375 34250,5125 34500,5375 34750,5625 35000,5125 35250,5125 35250,4875 35500,4375 36000,4625 36125,4875 36250,4875 36250,4875 36250,4875 36500,4625 36500,4625 36500,5125 36750,5125 36750,5375 37000,5375 37000,5875 37250,6375 32000,6375 Z "
               id="path50" />
          </g>
        </g>
      </g>
      <g
         class="Group"
         id="g58">
        <g
           class="com.sun.star.drawing.CustomShape"
           id="g53">
          <g
             id="id44">
            <rect
               class="BoundingBox"
               stroke="none"
               fill="none"
               x="33249"
               y="5125"
               width="126"
               height="1251"
               id="rect52" />
            <path
               fill="rgb(191,129,158)"
               stroke="none"
               d="M 33312,6375 L 33249,6375 33249,5125 33374,5125 33374,6375 33312,6375 Z "
               id="path52" />
          </g>
        </g>
        <g
           class="com.sun.star.drawing.CustomShape"
           id="g54">
          <g
             id="id45">
            <rect
               class="BoundingBox"
               stroke="none"
               fill="none"
               x="34124"
               y="5375"
               width="126"
               height="1001"
               id="rect53" />
            <path
               fill="rgb(191,129,158)"
               stroke="none"
               d="M 34187,6375 L 34124,6375 34124,5375 34249,5375 34249,6375 34187,6375 Z "
               id="path53" />
          </g>
        </g>
        <g
           class="com.sun.star.drawing.CustomShape"
           id="g55">
          <g
             id="id46">
            <rect
               class="BoundingBox"
               stroke="none"
               fill="none"
               x="35124"
               y="5125"
               width="126"
               height="1251"
               id="rect54" />
            <path
               fill="rgb(191,129,158)"
               stroke="none"
               d="M 35187,6375 L 35124,6375 35124,5125 35249,5125 35249,6375 35187,6375 Z "
               id="path54" />
          </g>
        </g>
        <g
           class="com.sun.star.drawing.CustomShape"
           id="g56">
          <g
             id="id47">
            <rect
               class="BoundingBox"
               stroke="none"
               fill="none"
               x="36124"
               y="4875"
               width="126"
               height="1501"
               id="rect55" />
            <path
               fill="rgb(191,129,158)"
               stroke="none"
               d="M 36187,6375 L 36124,6375 36124,4875 36249,4875 36249,6375 36187,6375 Z "
               id="path55" />
          </g>
        </g>
        <g
           class="com.sun.star.drawing.CustomShape"
           id="g57">
          <g
             id="id48">
            <rect
               class="BoundingBox"
               stroke="none"
               fill="none"
               x="32249"
               y="5625"
               width="126"
               height="751"
               id="rect56" />
            <path
               fill="rgb(191,129,158)"
               stroke="none"
               d="M 32312,6375 L 32249,6375 32249,5625 32374,5625 32374,6375 32312,6375 Z "
               id="path56" />
          </g>
        </g>
      </g>
    </g>
  </g>
</svg>
