<?xml version="1.0" encoding="UTF-8" standalone="no"?>
<svg
   version="1.2"
   viewBox="5000 23000 2001 2001"
   id="svg20"
   sodipodi:docname="piece_12.svg"
   inkscape:version="1.4.2 (f4327f4, 2025-05-13)"
   xmlns:inkscape="http://www.inkscape.org/namespaces/inkscape"
   xmlns:sodipodi="http://sodipodi.sourceforge.net/DTD/sodipodi-0.dtd"
   xmlns="http://www.w3.org/2000/svg"
   xmlns:svg="http://www.w3.org/2000/svg">
  <defs
     id="defs20" />
  <sodipodi:namedview
     id="namedview20"
     pagecolor="#ffffff"
     bordercolor="#000000"
     borderopacity="0.25"
     inkscape:showpageshadow="2"
     inkscape:pageopacity="0.0"
     inkscape:pagecheckerboard="0"
     inkscape:deskcolor="#d1d1d1"
     inkscape:zoom="0.87556222"
     inkscape:cx="1000.5"
     inkscape:cy="1000.5"
     inkscape:window-width="3840"
     inkscape:window-height="2054"
     inkscape:window-x="-11"
     inkscape:window-y="-11"
     inkscape:window-maximized="1"
     inkscape:current-layer="id237" />
  <g
     class="Group"
     id="g20">
    <g
       class="Group"
       id="g19">
      <g
         class="com.sun.star.drawing.CustomShape"
         id="g1">
        <g
           id="id237">
          <rect
             class="BoundingBox"
             stroke="none"
             fill="none"
             x="5000"
             y="23000"
             width="2001"
             height="2001"
             id="rect1" />
        </g>
      </g>
      <g
         class="Group"
         id="g6">
        <g
           class="com.sun.star.drawing.CustomShape"
           id="g2">
          <g
             id="id238">
            <rect
               class="BoundingBox"
               stroke="none"
               fill="none"
               x="5000"
               y="23000"
               width="1001"
               height="1001"
               id="rect2" />
            <path
               fill="rgb(114,159,207)"
               stroke="none"
               d="M 5500,24000 L 5000,24000 5000,23000 6000,23000 6000,24000 5500,24000 Z "
               id="path2" />
          </g>
        </g>
        <g
           class="com.sun.star.drawing.PolyPolygonShape"
           id="g3">
          <g
             id="id239">
            <rect
               class="BoundingBox"
               stroke="none"
               fill="none"
               x="5000"
               y="23000"
               width="1001"
               height="1001"
               id="rect3" />
            <path
               fill="rgb(255,128,0)"
               stroke="none"
               d="M 6000,23000 L 6000,24000 5000,24000 5000,23000 6000,23000 Z "
               id="path3" />
          </g>
        </g>
        <g
           class="com.sun.star.drawing.ClosedBezierShape"
           id="g4">
          <g
             id="id240">
            <rect
               class="BoundingBox"
               stroke="none"
               fill="none"
               x="5188"
               y="23375"
               width="626"
               height="626"
               id="rect4" />
            <path
               fill="rgb(255,255,255)"
               stroke="none"
               d="M 5188,24000 L 5188,23688 C 5188,23688 5188,23375 5501,23375 5813,23375 5813,23688 5813,23688 L 5813,24000 5188,24000 Z "
               id="path4" />
          </g>
        </g>
        <g
           class="com.sun.star.drawing.CustomShape"
           id="g5">
          <g
             id="id241">
            <rect
               class="BoundingBox"
               stroke="none"
               fill="none"
               x="5000"
               y="23000"
               width="1001"
               height="63"
               id="rect5" />
            <path
               fill="rgb(255,219,182)"
               stroke="none"
               d="M 5500,23062 L 5000,23062 5000,23000 6000,23000 6000,23062 5500,23062 Z "
               id="path5" />
          </g>
        </g>
      </g>
      <g
         class="Group"
         id="g11">
        <g
           class="com.sun.star.drawing.CustomShape"
           id="g7">
          <g
             id="id242">
            <rect
               class="BoundingBox"
               stroke="none"
               fill="none"
               x="6000"
               y="23000"
               width="1001"
               height="1001"
               id="rect6" />
            <path
               fill="rgb(114,159,207)"
               stroke="none"
               d="M 6500,24000 L 6000,24000 6000,23000 7000,23000 7000,24000 6500,24000 Z "
               id="path6" />
          </g>
        </g>
        <g
           class="com.sun.star.drawing.PolyPolygonShape"
           id="g8">
          <g
             id="id243">
            <rect
               class="BoundingBox"
               stroke="none"
               fill="none"
               x="6000"
               y="23000"
               width="1001"
               height="1001"
               id="rect7" />
            <path
               fill="rgb(255,128,0)"
               stroke="none"
               d="M 7000,23000 L 7000,24000 6000,24000 6000,23000 7000,23000 Z "
               id="path7" />
          </g>
        </g>
        <g
           class="com.sun.star.drawing.ClosedBezierShape"
           id="g9">
          <g
             id="id244">
            <rect
               class="BoundingBox"
               stroke="none"
               fill="none"
               x="6188"
               y="23375"
               width="627"
               height="626"
               id="rect8" />
            <path
               fill="rgb(255,255,255)"
               stroke="none"
               d="M 6188,24000 L 6188,23688 C 6188,23688 6188,23375 6501,23375 6813,23375 6813,23688 6813,23688 L 6813,24000 6188,24000 Z "
               id="path8" />
          </g>
        </g>
        <g
           class="com.sun.star.drawing.CustomShape"
           id="g10">
          <g
             id="id245">
            <rect
               class="BoundingBox"
               stroke="none"
               fill="none"
               x="6000"
               y="23000"
               width="1001"
               height="63"
               id="rect9" />
            <path
               fill="rgb(255,219,182)"
               stroke="none"
               d="M 6500,23062 L 6000,23062 6000,23000 7000,23000 7000,23062 6500,23062 Z "
               id="path9" />
          </g>
        </g>
      </g>
      <g
         class="Group"
         id="g15">
        <g
           class="com.sun.star.drawing.ClosedBezierShape"
           id="g12">
          <g
             id="id246">
            <rect
               class="BoundingBox"
               stroke="none"
               fill="none"
               x="6000"
               y="24000"
               width="1001"
               height="758"
               id="rect11" />
            <path
               fill="rgb(255,128,0)"
               stroke="none"
               d="M 7000,24000 C 7000,24000 7000,24505 7000,24757 6919,24757 6838,24757 6757,24757 6671,24671 6500,24500 6500,24500 L 6000,24500 6000,24000 7000,24000 Z "
               id="path11" />
          </g>
        </g>
        <g
           class="com.sun.star.drawing.ClosedBezierShape"
           id="g13">
          <g
             id="id247">
            <rect
               class="BoundingBox"
               stroke="none"
               fill="none"
               x="6242"
               y="24375"
               width="578"
               height="384"
               id="rect12" />
            <path
               fill="rgb(255,255,255)"
               stroke="none"
               d="M 6500,24500 C 6500,24500 6328,24500 6242,24500 6242,24454 6364,24374 6501,24375 6813,24375 6813,24688 6813,24688 L 6818,24757 6757,24757 6500,24500 Z "
               id="path12" />
          </g>
        </g>
        <g
           class="com.sun.star.drawing.CustomShape"
           id="g14">
          <g
             id="id248">
            <rect
               class="BoundingBox"
               stroke="none"
               fill="none"
               x="6000"
               y="24000"
               width="1001"
               height="63"
               id="rect13" />
            <path
               fill="rgb(255,219,182)"
               stroke="none"
               d="M 6500,24062 L 6000,24062 6000,24000 7000,24000 7000,24062 6500,24062 Z "
               id="path13" />
          </g>
        </g>
      </g>
      <g
         class="Group"
         id="g18">
        <g
           class="com.sun.star.drawing.PolyPolygonShape"
           id="g16">
          <g
             id="id249">
            <rect
               class="BoundingBox"
               stroke="none"
               fill="none"
               x="5500"
               y="24000"
               width="501"
               height="501"
               id="rect15" />
            <path
               fill="rgb(255,128,0)"
               stroke="none"
               d="M 6000,24000 L 6000,24500 5500,24000 6000,24000 Z "
               id="path15" />
          </g>
        </g>
        <g
           class="com.sun.star.drawing.PolyPolygonShape"
           id="g17">
          <g
             id="id250">
            <rect
               class="BoundingBox"
               stroke="none"
               fill="none"
               x="5500"
               y="24000"
               width="501"
               height="61"
               id="rect16" />
            <path
               fill="rgb(255,219,182)"
               stroke="none"
               d="M 6000,24060 L 6000,24000 5500,24000 5560,24060 6000,24060 Z "
               id="path16" />
          </g>
        </g>
      </g>
    </g>
  </g>
</svg>
