<?xml version="1.0" encoding="UTF-8" standalone="no"?>
<svg
   version="1.2"
   viewBox="13999 26001 2001 2001"
   id="svg35"
   sodipodi:docname="piece_1.svg"
   inkscape:version="1.4.2 (f4327f4, 2025-05-13)"
   xmlns:inkscape="http://www.inkscape.org/namespaces/inkscape"
   xmlns:sodipodi="http://sodipodi.sourceforge.net/DTD/sodipodi-0.dtd"
   xmlns="http://www.w3.org/2000/svg"
   xmlns:svg="http://www.w3.org/2000/svg">
  <defs
     id="defs35" />
  <sodipodi:namedview
     id="namedview35"
     pagecolor="#ffffff"
     bordercolor="#000000"
     borderopacity="0.25"
     inkscape:showpageshadow="2"
     inkscape:pageopacity="0.0"
     inkscape:pagecheckerboard="0"
     inkscape:deskcolor="#d1d1d1"
     inkscape:zoom="0.87556222"
     inkscape:cx="1000.5"
     inkscape:cy="910.27226"
     inkscape:window-width="3840"
     inkscape:window-height="2054"
     inkscape:window-x="-11"
     inkscape:window-y="-11"
     inkscape:window-maximized="1"
     inkscape:current-layer="svg35" />
  <g
     class="com.sun.star.drawing.CustomShape"
     id="g2">
    <g
       id="id65">
      <rect
         class="BoundingBox"
         stroke="none"
         fill="none"
         x="13998"
         y="26437"
         width="2002"
         height="1564"
         id="rect2" />
      <path
         fill="#ff8000"
         stroke="none"
         d="M 14000.284,28002.284 13998,26437 l 2003.284,-1.142 v 1567.568 c 0,0 -2000.995,3.043 -2001,-1.142 z"
         id="path2"
         sodipodi:nodetypes="ccccc" />
    </g>
  </g>
  <g
     class="com.sun.star.drawing.EllipseShape"
     id="g3">
    <g
       id="id66">
      <rect
         class="BoundingBox"
         stroke="none"
         fill="none"
         x="14250"
         y="26000"
         width="1501"
         height="689"
         id="rect3" />
      <path
         fill="#ff8000"
         stroke="none"
         d="m 14250,26688 c 0,-121 35,-239 100,-344 66,-105 161,-191 275,-252 114,-60 243,-92 375,-92 132,0 261,32 375,92 114,61 209,147 275,252 65,105 100,223 100,344 z"
         id="path3" />
    </g>
  </g>
  <g
     class="com.sun.star.drawing.PolyPolygonShape"
     id="g4">
    <g
       id="id67">
      <rect
         class="BoundingBox"
         stroke="none"
         fill="none"
         x="13999"
         y="26501"
         width="2001"
         height="1438"
         id="rect4" />
      <path
         fill="#ffdbb6"
         stroke="none"
         d="m 14062,26501 h 1875 l -1,125 65.284,-1.142 -1.142,310.858 -64.142,2.284 v 375 h 1 v 250 h -1 v 375 h -1874 v -375 h -63 v -250 h 63 z"
         id="path4"
         sodipodi:nodetypes="ccccccccccccccccc" />
    </g>
  </g>
  <g
     class="Group"
     id="g7">
    <g
       class="com.sun.star.drawing.CustomShape"
       id="g5">
      <g
         id="id68">
        <rect
           class="BoundingBox"
           stroke="none"
           fill="none"
           x="15623"
           y="27249"
           width="377"
           height="378"
           id="rect5" />
        <path
           fill="#ff8000"
           stroke="none"
           d="m 15999,27438 c 0,33 -9,65 -25,94 -17,29 -40,52 -69,69 -29,16 -61,25 -94,25 -33,0 -65,-9 -94,-25 -29,-17 -52,-40 -69,-69 -16,-29 -25,-61 -25,-94 0,-33 9,-65 25,-94 17,-29 40,-52 69,-69 29,-16 61,-25 94,-25 33,0 65,9 94,25 29,17 52,40 69,69 16,29 25,61 25,94 z"
           id="path5" />
      </g>
    </g>
    <g
       class="com.sun.star.drawing.CustomShape"
       id="g6">
      <g
         id="id69">
        <rect
           class="BoundingBox"
           stroke="none"
           fill="none"
           x="15686"
           y="27313"
           width="252"
           height="252"
           id="rect6" />
        <path
           fill="#ffdbb6"
           stroke="none"
           d="m 15937,27438 c 0,23 -6,44 -17,63 -11,19 -27,35 -46,46 -19,11 -40,17 -63,17 -22,0 -43,-6 -62,-17 -19,-11 -35,-27 -46,-46 -11,-19 -17,-40 -17,-63 0,-22 6,-43 17,-62 11,-19 27,-35 46,-46 19,-11 40,-17 62,-17 23,0 44,6 63,17 19,11 35,27 46,46 11,19 17,40 17,62 z"
           id="path6" />
      </g>
    </g>
  </g>
  <g
     class="Group"
     id="g10">
    <g
       class="com.sun.star.drawing.CustomShape"
       id="g8">
      <g
         id="id70">
        <rect
           class="BoundingBox"
           stroke="none"
           fill="none"
           x="15186"
           y="27249"
           width="377"
           height="378"
           id="rect7" />
        <path
           fill="#ff8000"
           stroke="none"
           d="m 15562,27438 c 0,33 -9,65 -25,94 -17,29 -40,52 -69,69 -29,16 -61,25 -94,25 -33,0 -65,-9 -94,-25 -29,-17 -52,-40 -69,-69 -16,-29 -25,-61 -25,-94 0,-33 9,-65 25,-94 17,-29 40,-52 69,-69 29,-16 61,-25 94,-25 33,0 65,9 94,25 29,17 52,40 69,69 16,29 25,61 25,94 z"
           id="path7" />
      </g>
    </g>
    <g
       class="com.sun.star.drawing.CustomShape"
       id="g9">
      <g
         id="id71">
        <rect
           class="BoundingBox"
           stroke="none"
           fill="none"
           x="15249"
           y="27313"
           width="252"
           height="252"
           id="rect8" />
        <path
           fill="#ffdbb6"
           stroke="none"
           d="m 15500,27438 c 0,23 -6,44 -17,63 -11,19 -27,35 -46,46 -19,11 -40,17 -63,17 -22,0 -43,-6 -62,-17 -19,-11 -35,-27 -46,-46 -11,-19 -17,-40 -17,-63 0,-22 6,-43 17,-62 11,-19 27,-35 46,-46 19,-11 40,-17 62,-17 23,0 44,6 63,17 19,11 35,27 46,46 11,19 17,40 17,62 z"
           id="path8" />
      </g>
    </g>
  </g>
  <g
     class="Group"
     id="g13">
    <g
       class="com.sun.star.drawing.CustomShape"
       id="g11">
      <g
         id="id72">
        <rect
           class="BoundingBox"
           stroke="none"
           fill="none"
           x="14747"
           y="27249"
           width="378"
           height="378"
           id="rect10" />
        <path
           fill="#ff8000"
           stroke="none"
           d="m 15124,27438 c 0,33 -9,65 -25,94 -17,29 -40,52 -69,69 -29,16 -61,25 -94,25 -33,0 -65,-9 -94,-25 -29,-17 -52,-40 -69,-69 -16,-29 -25,-61 -25,-94 0,-33 9,-65 25,-94 17,-29 40,-52 69,-69 29,-16 61,-25 94,-25 33,0 65,9 94,25 29,17 52,40 69,69 16,29 25,61 25,94 z"
           id="path10" />
      </g>
    </g>
    <g
       class="com.sun.star.drawing.CustomShape"
       id="g12">
      <g
         id="id73">
        <rect
           class="BoundingBox"
           stroke="none"
           fill="none"
           x="14811"
           y="27313"
           width="252"
           height="252"
           id="rect11" />
        <path
           fill="#ffdbb6"
           stroke="none"
           d="m 15062,27438 c 0,23 -6,44 -17,63 -11,19 -27,35 -46,46 -19,11 -40,17 -63,17 -22,0 -43,-6 -62,-17 -19,-11 -35,-27 -46,-46 -11,-19 -17,-40 -17,-63 0,-22 6,-43 17,-62 11,-19 27,-35 46,-46 19,-11 40,-17 62,-17 23,0 44,6 63,17 19,11 35,27 46,46 11,19 17,40 17,62 z"
           id="path11" />
      </g>
    </g>
  </g>
  <g
     class="Group"
     id="g16">
    <g
       class="com.sun.star.drawing.CustomShape"
       id="g14">
      <g
         id="id74">
        <rect
           class="BoundingBox"
           stroke="none"
           fill="none"
           x="14311"
           y="27249"
           width="377"
           height="378"
           id="rect13" />
        <path
           fill="#ff8000"
           stroke="none"
           d="m 14687,27438 c 0,33 -9,65 -25,94 -17,29 -40,52 -69,69 -29,16 -61,25 -94,25 -33,0 -65,-9 -94,-25 -29,-17 -52,-40 -69,-69 -16,-29 -25,-61 -25,-94 0,-33 9,-65 25,-94 17,-29 40,-52 69,-69 29,-16 61,-25 94,-25 33,0 65,9 94,25 29,17 52,40 69,69 16,29 25,61 25,94 z"
           id="path13" />
      </g>
    </g>
    <g
       class="com.sun.star.drawing.CustomShape"
       id="g15">
      <g
         id="id75">
        <rect
           class="BoundingBox"
           stroke="none"
           fill="none"
           x="14374"
           y="27313"
           width="252"
           height="252"
           id="rect14" />
        <path
           fill="#ffdbb6"
           stroke="none"
           d="m 14625,27438 c 0,23 -6,44 -17,63 -11,19 -27,35 -46,46 -19,11 -40,17 -62,17 -23,0 -44,-6 -63,-17 -19,-11 -35,-27 -46,-46 -11,-19 -17,-40 -17,-63 0,-22 6,-43 17,-62 11,-19 27,-35 46,-46 19,-11 40,-17 63,-17 22,0 43,6 62,17 19,11 35,27 46,46 11,19 17,40 17,62 z"
           id="path14" />
      </g>
    </g>
  </g>
  <g
     class="com.sun.star.drawing.EllipseShape"
     id="g17">
    <g
       id="id76">
      <rect
         class="BoundingBox"
         stroke="none"
         fill="none"
         x="14312"
         y="26063"
         width="1376"
         height="626"
         id="rect16" />
      <path
         fill="#ffdbb6"
         stroke="none"
         d="m 14312,26688 c 0,-110 32,-217 92,-312 60,-96 147,-174 252,-229 104,-55 223,-84 344,-84 120,0 239,29 343,84 105,55 192,133 252,229 60,95 92,202 92,312 z"
         id="path16" />
    </g>
  </g>
  <g
     class="com.sun.star.drawing.CustomShape"
     id="g18">
    <g
       id="id77">
      <rect
         class="BoundingBox"
         stroke="none"
         fill="none"
         x="15749"
         y="26876"
         width="251"
         height="63"
         id="rect17" />
      <path
         fill="#ff8000"
         stroke="none"
         d="m 15874,26938 h -125 v -62 h 250 v 62 z"
         id="path17" />
    </g>
  </g>
  <g
     class="com.sun.star.drawing.CustomShape"
     id="g19">
    <g
       id="id78">
      <rect
         class="BoundingBox"
         stroke="none"
         fill="none"
         x="15749"
         y="26875"
         width="251"
         height="64"
         id="rect18" />
      <path
         fill="#ff8000"
         stroke="none"
         d="m 15874,26938 h -125 v -63 l 252.284,2.284 -1.142,58.432 z"
         id="path18"
         sodipodi:nodetypes="cccccc" />
    </g>
  </g>
  <g
     class="com.sun.star.drawing.CustomShape"
     id="g20">
    <g
       id="id79">
      <rect
         class="BoundingBox"
         stroke="none"
         fill="none"
         x="13999"
         y="27562"
         width="188"
         height="64"
         id="rect19" />
      <path
         fill="#ff8000"
         stroke="none"
         d="m 14093,27625 h -94 v -63 h 187 v 63 z"
         id="path19" />
    </g>
  </g>
  <g
     class="com.sun.star.drawing.CustomShape"
     id="g21">
    <g
       id="id80">
      <rect
         class="BoundingBox"
         stroke="none"
         fill="none"
         x="13999"
         y="27250"
         width="188"
         height="64"
         id="rect20" />
      <path
         fill="#ff8000"
         stroke="none"
         d="m 14093,27313 h -94 v -63 h 187 v 63 z"
         id="path20" />
    </g>
  </g>
  <g
     class="com.sun.star.drawing.CustomShape"
     id="g22">
    <g
       id="id81">
      <rect
         class="BoundingBox"
         stroke="none"
         fill="none"
         x="15749"
         y="26564"
         width="251"
         height="63"
         id="rect21" />
      <path
         fill="#ff8000"
         stroke="none"
         d="m 15874,26626 h -125 v -62 h 250 v 62 z"
         id="path21" />
    </g>
  </g>
  <g
     class="Group"
     id="g25">
    <g
       class="com.sun.star.drawing.CustomShape"
       id="g23">
      <g
         id="id82">
        <rect
           class="BoundingBox"
           stroke="none"
           fill="none"
           x="14405"
           y="27344"
           width="190"
           height="190"
           id="rect22" />
        <path
           fill="#ff8000"
           stroke="none"
           d="m 14593,27439 c 0,16 -4,32 -13,47 -8,14 -20,26 -34,34 -14,9 -30,13 -47,13 -17,0 -33,-4 -47,-13 -14,-8 -26,-20 -34,-34 -9,-15 -13,-31 -13,-47 0,-17 4,-33 13,-48 8,-14 20,-26 34,-34 14,-9 30,-13 47,-13 17,0 33,4 47,13 14,8 26,20 34,34 9,15 13,31 13,48 z"
           id="path22" />
      </g>
    </g>
    <g
       class="com.sun.star.drawing.CustomShape"
       id="g24">
      <g
         id="id83">
        <rect
           class="BoundingBox"
           stroke="none"
           fill="none"
           x="14437"
           y="27375"
           width="126"
           height="127"
           id="rect23" />
        <path
           fill="#ffdbb6"
           stroke="none"
           d="m 14562,27438 c 0,11 -3,22 -8,32 -6,9 -14,17 -23,23 -10,5 -21,8 -31,8 -11,0 -22,-3 -32,-8 -9,-6 -17,-14 -23,-23 -5,-10 -8,-21 -8,-32 0,-11 3,-22 8,-31 6,-10 14,-18 23,-24 10,-5 21,-8 32,-8 10,0 21,3 31,8 9,6 17,14 23,24 5,9 8,20 8,31 z"
           id="path23" />
      </g>
    </g>
  </g>
  <g
     class="Group"
     id="g28">
    <g
       class="com.sun.star.drawing.CustomShape"
       id="g26">
      <g
         id="id84">
        <rect
           class="BoundingBox"
           stroke="none"
           fill="none"
           x="14842"
           y="27344"
           width="189"
           height="190"
           id="rect25" />
        <path
           fill="#ff8000"
           stroke="none"
           d="m 15030,27439 c 0,16 -4,32 -13,47 -8,14 -20,26 -34,34 -14,9 -30,13 -47,13 -17,0 -33,-4 -47,-13 -14,-8 -26,-20 -34,-34 -9,-15 -13,-31 -13,-47 0,-17 4,-33 13,-48 8,-14 20,-26 34,-34 14,-9 30,-13 47,-13 17,0 33,4 47,13 14,8 26,20 34,34 9,15 13,31 13,48 z"
           id="path25" />
      </g>
    </g>
    <g
       class="com.sun.star.drawing.CustomShape"
       id="g27">
      <g
         id="id85">
        <rect
           class="BoundingBox"
           stroke="none"
           fill="none"
           x="14874"
           y="27375"
           width="127"
           height="127"
           id="rect26" />
        <path
           fill="#ffdbb6"
           stroke="none"
           d="m 14999,27438 c 0,11 -3,22 -8,32 -6,9 -14,17 -23,23 -10,5 -21,8 -31,8 -11,0 -22,-3 -32,-8 -9,-6 -17,-14 -23,-23 -5,-10 -8,-21 -8,-32 0,-11 3,-22 8,-31 6,-10 14,-18 23,-24 10,-5 21,-8 32,-8 10,0 21,3 31,8 9,6 17,14 23,24 5,9 8,20 8,31 z"
           id="path26" />
      </g>
    </g>
  </g>
  <g
     class="Group"
     id="g31">
    <g
       class="com.sun.star.drawing.CustomShape"
       id="g29">
      <g
         id="id86">
        <rect
           class="BoundingBox"
           stroke="none"
           fill="none"
           x="15280"
           y="27344"
           width="189"
           height="190"
           id="rect28" />
        <path
           fill="#ff8000"
           stroke="none"
           d="m 15468,27439 c 0,16 -4,32 -13,47 -8,14 -20,26 -34,34 -14,9 -30,13 -47,13 -17,0 -33,-4 -47,-13 -14,-8 -26,-20 -34,-34 -9,-15 -13,-31 -13,-47 0,-17 4,-33 13,-48 8,-14 20,-26 34,-34 14,-9 30,-13 47,-13 17,0 33,4 47,13 14,8 26,20 34,34 9,15 13,31 13,48 z"
           id="path28" />
      </g>
    </g>
    <g
       class="com.sun.star.drawing.CustomShape"
       id="g30">
      <g
         id="id87">
        <rect
           class="BoundingBox"
           stroke="none"
           fill="none"
           x="15312"
           y="27375"
           width="126"
           height="127"
           id="rect29" />
        <path
           fill="#ffdbb6"
           stroke="none"
           d="m 15437,27438 c 0,11 -3,22 -8,32 -6,9 -14,17 -23,23 -10,5 -21,8 -31,8 -11,0 -22,-3 -32,-8 -9,-6 -17,-14 -23,-23 -5,-10 -8,-21 -8,-32 0,-11 3,-22 8,-31 6,-10 14,-18 23,-24 10,-5 21,-8 32,-8 10,0 21,3 31,8 9,6 17,14 23,24 5,9 8,20 8,31 z"
           id="path29" />
      </g>
    </g>
  </g>
  <g
     class="Group"
     id="g34">
    <g
       class="com.sun.star.drawing.CustomShape"
       id="g32">
      <g
         id="id88">
        <rect
           class="BoundingBox"
           stroke="none"
           fill="none"
           x="15717"
           y="27344"
           width="189"
           height="190"
           id="rect31" />
        <path
           fill="#ff8000"
           stroke="none"
           d="m 15905,27439 c 0,16 -4,32 -13,47 -8,14 -20,26 -34,34 -14,9 -30,13 -47,13 -17,0 -33,-4 -47,-13 -14,-8 -26,-20 -34,-34 -9,-15 -13,-31 -13,-47 0,-17 4,-33 13,-48 8,-14 20,-26 34,-34 14,-9 30,-13 47,-13 17,0 33,4 47,13 14,8 26,20 34,34 9,15 13,31 13,48 z"
           id="path31" />
      </g>
    </g>
    <g
       class="com.sun.star.drawing.CustomShape"
       id="g33">
      <g
         id="id89">
        <rect
           class="BoundingBox"
           stroke="none"
           fill="none"
           x="15749"
           y="27375"
           width="127"
           height="127"
           id="rect32" />
        <path
           fill="#ffdbb6"
           stroke="none"
           d="m 15874,27438 c 0,11 -3,22 -8,32 -6,9 -14,17 -23,23 -10,5 -21,8 -31,8 -11,0 -22,-3 -32,-8 -9,-6 -17,-14 -23,-23 -5,-10 -8,-21 -8,-32 0,-11 3,-22 8,-31 6,-10 14,-18 23,-24 10,-5 21,-8 32,-8 10,0 21,3 31,8 9,6 17,14 23,24 5,9 8,20 8,31 z"
           id="path32" />
      </g>
    </g>
  </g>
</svg>
