<?xml version="1.0" encoding="UTF-8" standalone="no"?>
<svg
   version="1.2"
   viewBox="16999 26000 2001 2001"
   id="svg17"
   sodipodi:docname="piece_0.svg"
   inkscape:version="1.4.2 (f4327f4, 2025-05-13)"
   xmlns:inkscape="http://www.inkscape.org/namespaces/inkscape"
   xmlns:sodipodi="http://sodipodi.sourceforge.net/DTD/sodipodi-0.dtd"
   xmlns="http://www.w3.org/2000/svg"
   xmlns:svg="http://www.w3.org/2000/svg">
  <defs
     id="defs17" />
  <sodipodi:namedview
     id="namedview17"
     pagecolor="#ffffff"
     bordercolor="#000000"
     borderopacity="0.25"
     inkscape:showpageshadow="2"
     inkscape:pageopacity="0.0"
     inkscape:pagecheckerboard="0"
     inkscape:deskcolor="#d1d1d1"
     inkscape:zoom="0.87556222"
     inkscape:cx="1000.5"
     inkscape:cy="909.13014"
     inkscape:window-width="3840"
     inkscape:window-height="2054"
     inkscape:window-x="-11"
     inkscape:window-y="-11"
     inkscape:window-maximized="1"
     inkscape:current-layer="svg17" />
  <g
     class="com.sun.star.drawing.CustomShape"
     id="g2">
    <g
       id="id50">
      <rect
         class="BoundingBox"
         stroke="none"
         fill="none"
         x="17000"
         y="26624"
         width="2001"
         height="1376"
         id="rect2" />
      <path
         fill="#ff8000"
         stroke="none"
         d="m 18000,27999 h -1000 v -1375 h 2000 v 1375 z"
         id="path2" />
    </g>
  </g>
  <g
     class="com.sun.star.drawing.CustomShape"
     id="g3">
    <g
       id="id51">
      <rect
         class="BoundingBox"
         stroke="none"
         fill="none"
         x="16999"
         y="26062"
         width="1034"
         height="940"
         id="rect3" />
      <path
         fill="#ff8000"
         stroke="none"
         d="m 18032,26532 c 0,82 -24,163 -69,234 -46,72 -111,131 -189,172 -79,41 -168,63 -258,63 -91,0 -180,-22 -259,-63 -78,-41 -143,-100 -189,-172 -45,-71 -69,-152 -69,-234 0,-83 24,-164 69,-235 46,-72 111,-131 189,-172 79,-41 168,-63 259,-63 90,0 179,22 258,63 78,41 143,100 189,172 45,71 69,152 69,235 z"
         id="path3" />
    </g>
  </g>
  <g
     class="com.sun.star.drawing.CustomShape"
     id="g4">
    <g
       id="id52">
      <rect
         class="BoundingBox"
         stroke="none"
         fill="none"
         x="17967"
         y="26062"
         width="1034"
         height="939"
         id="rect4" />
      <path
         fill="#ff8000"
         stroke="none"
         d="m 19000,26531 c 0,82 -24,163 -69,235 -46,71 -111,130 -189,171 -79,41 -168,63 -258,63 -91,0 -180,-22 -259,-63 -78,-41 -143,-100 -189,-171 -45,-72 -69,-153 -69,-235 0,-82 24,-163 69,-234 46,-72 111,-131 189,-172 79,-41 168,-63 259,-63 90,0 179,22 258,63 78,41 143,100 189,172 45,71 69,152 69,234 z"
         id="path4" />
    </g>
  </g>
  <g
     class="Group"
     id="g8">
    <g
       class="com.sun.star.drawing.PolyPolygonShape"
       id="g5">
      <g
         id="id53">
        <rect
           class="BoundingBox"
           stroke="none"
           fill="none"
           x="17000"
           y="26500"
           width="2001"
           height="1438"
           id="rect5" />
        <path
           fill="#ffdbb6"
           stroke="none"
           d="m 17001,26625 h 62 l -1,-125 h 1189 686 v 125 h 63 v 312 h -63 l 1,1000 h -1875 l -1,-1000 h -62 z"
           id="path5" />
      </g>
    </g>
    <g
       class="com.sun.star.drawing.EllipseShape"
       id="g6">
      <g
         id="id54">
        <rect
           class="BoundingBox"
           stroke="none"
           fill="none"
           x="18031"
           y="26125"
           width="907"
           height="394"
           id="rect6" />
        <path
           fill="#ffdbb6"
           stroke="none"
           d="m 18031,26518 c 0,-69 21,-137 61,-196 39,-60 97,-110 166,-144 68,-35 146,-53 226,-53 80,0 158,18 227,53 68,34 126,84 165,144 40,59 61,127 61,196 z"
           id="path6" />
      </g>
    </g>
    <g
       class="com.sun.star.drawing.EllipseShape"
       id="g7">
      <g
         id="id55">
        <rect
           class="BoundingBox"
           stroke="none"
           fill="none"
           x="17062"
           y="26125"
           width="907"
           height="394"
           id="rect7" />
        <path
           fill="#ffdbb6"
           stroke="none"
           d="m 17062,26518 c 0,-69 21,-137 61,-196 39,-60 97,-110 166,-144 68,-35 146,-53 226,-53 80,0 158,18 227,53 68,34 126,84 165,144 40,59 61,127 61,196 z"
           id="path7" />
      </g>
    </g>
  </g>
  <g
     class="com.sun.star.drawing.CustomShape"
     id="g9">
    <g
       id="id56">
      <rect
         class="BoundingBox"
         stroke="none"
         fill="none"
         x="17967"
         y="26500"
         width="64"
         height="1251"
         id="rect8" />
      <path
         fill="#ff8000"
         stroke="none"
         d="m 17999,27750 h -32 v -1250 h 63 v 1250 z"
         id="path8" />
    </g>
  </g>
  <g
     class="com.sun.star.drawing.CustomShape"
     id="g10">
    <g
       id="id57">
      <rect
         class="BoundingBox"
         stroke="none"
         fill="none"
         x="17030"
         y="27063"
         width="470"
         height="63"
         id="rect9" />
      <path
         fill="#ff8000"
         stroke="none"
         d="m 17265,27125 h -235 v -62 h 469 v 62 z"
         id="path9" />
    </g>
  </g>
  <g
     class="com.sun.star.drawing.CustomShape"
     id="g11">
    <g
       id="id58">
      <rect
         class="BoundingBox"
         stroke="none"
         fill="none"
         x="18500"
         y="27063"
         width="469"
         height="63"
         id="rect10" />
      <path
         fill="#ff8000"
         stroke="none"
         d="m 18734,27125 h -234 v -62 h 468 v 62 z"
         id="path10" />
    </g>
  </g>
  <g
     class="com.sun.star.drawing.CustomShape"
     id="g12">
    <g
       id="id59">
      <rect
         class="BoundingBox"
         stroke="none"
         fill="none"
         x="17750"
         y="27063"
         width="501"
         height="63"
         id="rect11" />
      <path
         fill="#ff8000"
         stroke="none"
         d="m 18000,27125 h -250 v -62 h 500 v 62 z"
         id="path11" />
    </g>
  </g>
  <g
     class="com.sun.star.drawing.CustomShape"
     id="g13">
    <g
       id="id60">
      <rect
         class="BoundingBox"
         stroke="none"
         fill="none"
         x="18812"
         y="26563"
         width="189"
         height="63"
         id="rect12" />
      <path
         fill="#ff8000"
         stroke="none"
         d="m 18906,26625 h -94 v -62 h 188 v 62 z"
         id="path12" />
    </g>
  </g>
  <g
     class="com.sun.star.drawing.CustomShape"
     id="g14">
    <g
       id="id61">
      <rect
         class="BoundingBox"
         stroke="none"
         fill="none"
         x="18812"
         y="26875"
         width="189"
         height="63"
         id="rect13" />
      <path
         fill="#ff8000"
         stroke="none"
         d="m 18906,26937 h -94 v -62 h 188 v 62 z"
         id="path13" />
    </g>
  </g>
  <g
     class="com.sun.star.drawing.CustomShape"
     id="g15">
    <g
       id="id62">
      <rect
         class="BoundingBox"
         stroke="none"
         fill="none"
         x="17000"
         y="26563"
         width="189"
         height="63"
         id="rect14" />
      <path
         fill="#ff8000"
         stroke="none"
         d="m 17094,26625 h -94 v -62 h 188 v 62 z"
         id="path14" />
    </g>
  </g>
  <g
     class="com.sun.star.drawing.CustomShape"
     id="g16">
    <g
       id="id63">
      <rect
         class="BoundingBox"
         stroke="none"
         fill="none"
         x="16999"
         y="26875"
         width="189"
         height="63"
         id="rect15" />
      <path
         fill="#ff8000"
         stroke="none"
         d="m 17093,26937 h -94 v -62 h 188 v 62 z"
         id="path15" />
    </g>
  </g>
</svg>
