<?xml version="1.0" encoding="UTF-8" standalone="no"?>
<svg
   version="1.2"
   viewBox="20000 26000 2001 2001"
   id="svg12"
   sodipodi:docname="piece_15+eau.svg"
   inkscape:version="1.4.2 (f4327f4, 2025-05-13)"
   xmlns:inkscape="http://www.inkscape.org/namespaces/inkscape"
   xmlns:sodipodi="http://sodipodi.sourceforge.net/DTD/sodipodi-0.dtd"
   xmlns="http://www.w3.org/2000/svg"
   xmlns:svg="http://www.w3.org/2000/svg">
  <defs
     id="defs12" />
  <sodipodi:namedview
     id="namedview12"
     pagecolor="#ffffff"
     bordercolor="#000000"
     borderopacity="0.25"
     inkscape:showpageshadow="2"
     inkscape:pageopacity="0.0"
     inkscape:pagecheckerboard="0"
     inkscape:deskcolor="#d1d1d1"
     inkscape:zoom="0.87556222"
     inkscape:cx="1000.5"
     inkscape:cy="817.76027"
     inkscape:window-width="3840"
     inkscape:window-height="2054"
     inkscape:window-x="-11"
     inkscape:window-y="-11"
     inkscape:window-maximized="1"
     inkscape:current-layer="g12" />
  <g
     class="Group"
     id="g12">
    <g
       class="Group"
       id="g4">
      <g
         class="com.sun.star.drawing.ClosedBezierShape"
         id="g2">
        <g
           id="id268">
          <rect
             class="BoundingBox"
             stroke="none"
             fill="none"
             x="20250"
             y="26875"
             width="751"
             height="751"
             id="rect2" />
          <path
             fill="rgb(255,128,0)"
             stroke="none"
             d="M 20250,26875 L 20750,26875 C 20750,27063 20875,27125 21000,27125 21000,27219 21000,27532 21000,27625 20438,27625 20250,27375 20250,26875 Z "
             id="path2" />
        </g>
      </g>
      <g
         class="com.sun.star.drawing.ClosedBezierShape"
         id="g3">
        <g
           id="id269">
          <rect
             class="BoundingBox"
             stroke="none"
             fill="none"
             x="20313"
             y="26875"
             width="689"
             height="690"
             id="rect3" />
          <path
             fill="#ffdbb6"
             stroke="none"
             d="m 20313,26875 h 375 c 0,188 125,313 312,313 v 375 c -500,0 -687,-188 -687,-688 z"
             id="path3"
             sodipodi:nodetypes="ccccc"
             style="fill:#5fd3bc" />
        </g>
      </g>
    </g>
    <g
       class="Group"
       id="g7">
      <g
         class="com.sun.star.drawing.ClosedBezierShape"
         id="g5">
        <g
           id="id270">
          <rect
             class="BoundingBox"
             stroke="none"
             fill="none"
             x="21000"
             y="26875"
             width="751"
             height="751"
             id="rect4" />
          <path
             fill="rgb(255,128,0)"
             stroke="none"
             d="M 21750,26875 L 21250,26875 C 21250,27063 21125,27125 21000,27125 21000,27219 21000,27532 21000,27625 21562,27625 21750,27375 21750,26875 Z "
             id="path4" />
        </g>
      </g>
      <g
         class="com.sun.star.drawing.ClosedBezierShape"
         id="g6">
        <g
           id="id271">
          <rect
             class="BoundingBox"
             stroke="none"
             fill="none"
             x="21000"
             y="26875"
             width="689"
             height="690"
             id="rect5" />
          <path
             fill="#ffdbb6"
             stroke="none"
             d="m 21687,26875 h -375 c 0,188 -125,313 -312,313 v 375 c 500,0 687,-188 687,-688 z"
             id="path5"
             sodipodi:nodetypes="ccccc"
             style="fill:#5fd3bc" />
        </g>
      </g>
    </g>
    <g
       class="com.sun.star.drawing.CustomShape"
       id="g8">
      <g
         id="id272">
        <rect
           class="BoundingBox"
           stroke="none"
           fill="none"
           x="20250"
           y="25999"
           width="501"
           height="876"
           id="rect7" />
        <path
           fill="rgb(255,128,0)"
           stroke="none"
           d="M 20500,26874 L 20250,26874 20250,25999 20750,25999 20750,26874 20500,26874 Z "
           id="path7" />
      </g>
    </g>
    <g
       class="com.sun.star.drawing.CustomShape"
       id="g9">
      <g
         id="id273">
        <rect
           class="BoundingBox"
           stroke="none"
           fill="none"
           x="21250"
           y="25999"
           width="501"
           height="876"
           id="rect8" />
        <path
           fill="rgb(255,128,0)"
           stroke="none"
           d="M 21500,26874 L 21250,26874 21250,25999 21750,25999 21750,26874 21500,26874 Z "
           id="path8" />
      </g>
    </g>
    <g
       class="com.sun.star.drawing.CustomShape"
       id="g10">
      <g
         id="id274">
        <rect
           class="BoundingBox"
           stroke="none"
           fill="none"
           x="20311"
           y="25999"
           width="376"
           height="876"
           id="rect9" />
        <path
           fill="rgb(255,219,182)"
           stroke="none"
           d="M 20499,26874 L 20311,26874 20311,25999 20686,25999 20686,26874 20499,26874 Z "
           id="path9"
           style="fill:#5fd3bc" />
      </g>
    </g>
    <g
       class="com.sun.star.drawing.CustomShape"
       id="g11">
      <g
         id="id275">
        <rect
           class="BoundingBox"
           stroke="none"
           fill="none"
           x="21311"
           y="25999"
           width="376"
           height="876"
           id="rect10" />
        <path
           fill="#ffdbb6"
           stroke="none"
           d="m 21499,26874 h -188 v -875 h 375 v 875 z"
           id="path10"
           sodipodi:nodetypes="cccccc"
           style="fill:#5fd3bc" />
      </g>
    </g>
  </g>
</svg>
