<?xml version="1.0" encoding="UTF-8" standalone="no"?>
<svg
   version="1.2"
   viewBox="2000 26000 2001 2001"
   id="svg48"
   sodipodi:docname="piece_9+eau.svg"
   inkscape:version="1.4.2 (f4327f4, 2025-05-13)"
   xmlns:inkscape="http://www.inkscape.org/namespaces/inkscape"
   xmlns:sodipodi="http://sodipodi.sourceforge.net/DTD/sodipodi-0.dtd"
   xmlns="http://www.w3.org/2000/svg"
   xmlns:svg="http://www.w3.org/2000/svg">
  <defs
     id="defs48" />
  <sodipodi:namedview
     id="namedview48"
     pagecolor="#ffffff"
     bordercolor="#000000"
     borderopacity="0.25"
     inkscape:showpageshadow="2"
     inkscape:pageopacity="0.0"
     inkscape:pagecheckerboard="0"
     inkscape:deskcolor="#d1d1d1"
     inkscape:zoom="0.87556222"
     inkscape:cx="1000.5"
     inkscape:cy="1000.5"
     inkscape:window-width="3840"
     inkscape:window-height="2054"
     inkscape:window-x="-11"
     inkscape:window-y="-11"
     inkscape:window-maximized="1"
     inkscape:current-layer="g1" />
  <g
     class="Group"
     id="g48">
    <g
       class="com.sun.star.drawing.CustomShape"
       id="g1" />
    <g
       class="com.sun.star.drawing.CustomShape"
       id="g2">
      <g
         id="id181">
        <rect
           class="BoundingBox"
           stroke="none"
           fill="none"
           x="3562"
           y="27624"
           width="439"
           height="188"
           id="rect2" />
        <path
           fill="rgb(255,128,0)"
           stroke="none"
           d="M 3781,27811 L 3562,27811 3562,27624 4000,27624 4000,27811 3781,27811 Z "
           id="path2" />
      </g>
    </g>
    <g
       class="com.sun.star.drawing.CustomShape"
       id="g3">
      <g
         id="id182">
        <rect
           class="BoundingBox"
           stroke="none"
           fill="none"
           x="3562"
           y="27655"
           width="439"
           height="126"
           id="rect3" />
        <path
           fill="rgb(255,219,182)"
           stroke="none"
           d="M 3781,27780 L 3562,27780 3562,27655 4000,27655 4000,27780 3781,27780 Z "
           id="path3"
           style="fill:#5fd3bc" />
      </g>
    </g>
    <g
       class="com.sun.star.drawing.ClosedBezierShape"
       id="g4">
      <g
         id="id183">
        <rect
           class="BoundingBox"
           stroke="none"
           fill="none"
           x="3312"
           y="27625"
           width="251"
           height="189"
           id="rect4" />
        <path
           fill="rgb(255,128,0)"
           stroke="none"
           d="M 3562,27625 C 3419,27625 3312,27718 3312,27812 3360,27812 3455,27812 3455,27812 3455,27812 3490,27812 3562,27812 3562,27781 3562,27656 3562,27625 Z "
           id="path4" />
      </g>
    </g>
    <g
       class="com.sun.star.drawing.ClosedBezierShape"
       id="g5">
      <g
         id="id184">
        <rect
           class="BoundingBox"
           stroke="none"
           fill="none"
           x="3343"
           y="27656"
           width="220"
           height="157"
           id="rect5" />
        <path
           fill="rgb(255,219,182)"
           stroke="none"
           d="M 3562,27656 C 3437,27656 3343,27733 3343,27812 3385,27812 3468,27812 3468,27812 3468,27812 3499,27812 3562,27812 3562,27786 3562,27682 3562,27656 Z "
           id="path5"
           style="fill:#5fd3bc" />
      </g>
    </g>
    <g
       class="Group"
       id="g20">
      <g
         class="Group"
         id="g19">
        <g
           class="Group"
           id="g18">
          <g
             class="Group"
             id="g11">
            <g
               class="com.sun.star.drawing.PolyPolygonShape"
               id="g6">
              <g
                 id="id185">
                <rect
                   class="BoundingBox"
                   stroke="none"
                   fill="none"
                   x="2250"
                   y="26686"
                   width="815"
                   height="1315"
                   id="rect6" />
                <path
                   fill="rgb(255,166,166)"
                   stroke="none"
                   d="M 3063,26687 L 2972,26687 3017,26884 2746,26884 2746,26950 2927,27015 3015,27276 2513,27276 2537,27343 2882,27409 2967,27683 2871,27796 2250,27796 2250,27887 2431,28000 3063,28000 3063,26687 Z "
                   id="path6" />
              </g>
            </g>
            <g
               class="com.sun.star.drawing.CustomShape"
               id="g7">
              <g
                 id="id186">
                <rect
                   class="BoundingBox"
                   stroke="none"
                   fill="none"
                   x="2249"
                   y="27799"
                   width="814"
                   height="89"
                   id="rect7" />
                <path
                   fill="rgb(255,255,255)"
                   stroke="none"
                   d="M 2656,27887 L 2249,27887 2249,27799 3062,27799 3062,27887 2656,27887 Z "
                   id="path7" />
              </g>
            </g>
            <g
               class="com.sun.star.drawing.CustomShape"
               id="g8">
              <g
                 id="id187">
                <rect
                   class="BoundingBox"
                   stroke="none"
                   fill="none"
                   x="2519"
                   y="27279"
                   width="544"
                   height="65"
                   id="rect8" />
                <path
                   fill="rgb(255,255,255)"
                   stroke="none"
                   d="M 2791,27343 L 2519,27343 2519,27279 3062,27279 3062,27343 2791,27343 Z "
                   id="path8" />
              </g>
            </g>
            <g
               class="com.sun.star.drawing.CustomShape"
               id="g9">
              <g
                 id="id188">
                <rect
                   class="BoundingBox"
                   stroke="none"
                   fill="none"
                   x="2745"
                   y="26882"
                   width="319"
                   height="68"
                   id="rect9" />
                <path
                   fill="rgb(255,255,255)"
                   stroke="none"
                   d="M 2904,26949 L 2745,26949 2745,26882 3063,26882 3063,26949 2904,26949 Z "
                   id="path9" />
              </g>
            </g>
            <g
               class="com.sun.star.drawing.CustomShape"
               id="g10">
              <g
                 id="id189">
                <rect
                   class="BoundingBox"
                   stroke="none"
                   fill="none"
                   x="2971"
                   y="26687"
                   width="92"
                   height="69"
                   id="rect10" />
                <path
                   fill="rgb(255,255,255)"
                   stroke="none"
                   d="M 3017,26755 L 2971,26755 2971,26687 3062,26687 3062,26755 3017,26755 Z "
                   id="path10" />
              </g>
            </g>
          </g>
          <g
             class="Group"
             id="g17">
            <g
               class="com.sun.star.drawing.PolyPolygonShape"
               id="g12">
              <g
                 id="id190">
                <rect
                   class="BoundingBox"
                   stroke="none"
                   fill="none"
                   x="3063"
                   y="26686"
                   width="814"
                   height="1315"
                   id="rect11" />
                <path
                   fill="rgb(255,166,166)"
                   stroke="none"
                   d="M 3063,26687 L 3153,26687 3109,26884 3380,26884 3380,26950 3198,27015 3111,27276 3612,27276 3589,27343 3244,27409 3159,27683 3254,27796 3876,27796 3876,27887 3695,28000 3063,28000 3063,26687 Z "
                   id="path11" />
              </g>
            </g>
            <g
               class="com.sun.star.drawing.CustomShape"
               id="g13">
              <g
                 id="id191">
                <rect
                   class="BoundingBox"
                   stroke="none"
                   fill="none"
                   x="3063"
                   y="27799"
                   width="813"
                   height="89"
                   id="rect12" />
                <path
                   fill="rgb(255,255,255)"
                   stroke="none"
                   d="M 3469,27887 L 3063,27887 3063,27799 3875,27799 3875,27887 3469,27887 Z "
                   id="path12" />
              </g>
            </g>
            <g
               class="com.sun.star.drawing.CustomShape"
               id="g14">
              <g
                 id="id192">
                <rect
                   class="BoundingBox"
                   stroke="none"
                   fill="none"
                   x="3063"
                   y="27279"
                   width="543"
                   height="65"
                   id="rect13" />
                <path
                   fill="rgb(255,255,255)"
                   stroke="none"
                   d="M 3334,27343 L 3063,27343 3063,27279 3605,27279 3605,27343 3334,27343 Z "
                   id="path13" />
              </g>
            </g>
            <g
               class="com.sun.star.drawing.CustomShape"
               id="g15">
              <g
                 id="id193">
                <rect
                   class="BoundingBox"
                   stroke="none"
                   fill="none"
                   x="3059"
                   y="26882"
                   width="318"
                   height="68"
                   id="rect14" />
                <path
                   fill="rgb(255,255,255)"
                   stroke="none"
                   d="M 3218,26949 L 3059,26949 3059,26882 3376,26882 3376,26949 3218,26949 Z "
                   id="path14" />
              </g>
            </g>
            <g
               class="com.sun.star.drawing.CustomShape"
               id="g16">
              <g
                 id="id194">
                <rect
                   class="BoundingBox"
                   stroke="none"
                   fill="none"
                   x="3059"
                   y="26687"
                   width="92"
                   height="69"
                   id="rect15" />
                <path
                   fill="rgb(255,255,255)"
                   stroke="none"
                   d="M 3105,26755 L 3059,26755 3059,26687 3150,26687 3150,26755 3105,26755 Z "
                   id="path15" />
              </g>
            </g>
          </g>
        </g>
      </g>
    </g>
    <g
       class="Group"
       id="g47">
      <g
         class="Group"
         id="g46">
        <g
           class="Group"
           id="g33">
          <g
             class="Group"
             id="g26">
            <g
               class="com.sun.star.drawing.PolyPolygonShape"
               id="g21">
              <g
                 id="id195">
                <rect
                   class="BoundingBox"
                   stroke="none"
                   fill="none"
                   x="2250"
                   y="26697"
                   width="815"
                   height="1304"
                   id="rect20" />
                <path
                   fill="rgb(255,109,109)"
                   stroke="none"
                   d="M 3063,26697 L 2972,26697 3017,26893 2746,26893 2746,26958 2927,27023 3015,27281 2513,27281 2537,27348 2882,27414 2967,27686 2871,27798 2250,27798 2250,27888 2431,28000 3063,28000 3063,26697 Z "
                   id="path20" />
              </g>
            </g>
            <g
               class="com.sun.star.drawing.CustomShape"
               id="g22">
              <g
                 id="id196">
                <rect
                   class="BoundingBox"
                   stroke="none"
                   fill="none"
                   x="2249"
                   y="27800"
                   width="814"
                   height="88"
                   id="rect21" />
                <path
                   fill="rgb(255,255,255)"
                   stroke="none"
                   d="M 2656,27887 L 2249,27887 2249,27800 3062,27800 3062,27887 2656,27887 Z "
                   id="path21" />
              </g>
            </g>
            <g
               class="com.sun.star.drawing.CustomShape"
               id="g23">
              <g
                 id="id197">
                <rect
                   class="BoundingBox"
                   stroke="none"
                   fill="none"
                   x="2519"
                   y="27284"
                   width="544"
                   height="65"
                   id="rect22" />
                <path
                   fill="rgb(255,255,255)"
                   stroke="none"
                   d="M 2791,27348 L 2519,27348 2519,27284 3062,27284 3062,27348 2791,27348 Z "
                   id="path22" />
              </g>
            </g>
            <g
               class="com.sun.star.drawing.CustomShape"
               id="g24">
              <g
                 id="id198">
                <rect
                   class="BoundingBox"
                   stroke="none"
                   fill="none"
                   x="2745"
                   y="26892"
                   width="319"
                   height="67"
                   id="rect23" />
                <path
                   fill="rgb(255,255,255)"
                   stroke="none"
                   d="M 2904,26958 L 2745,26958 2745,26892 3063,26892 3063,26958 2904,26958 Z "
                   id="path23" />
              </g>
            </g>
            <g
               class="com.sun.star.drawing.CustomShape"
               id="g25">
              <g
                 id="id199">
                <rect
                   class="BoundingBox"
                   stroke="none"
                   fill="none"
                   x="2971"
                   y="26696"
                   width="92"
                   height="68"
                   id="rect24" />
                <path
                   fill="rgb(255,255,255)"
                   stroke="none"
                   d="M 3017,26763 L 2971,26763 2971,26696 3062,26696 3062,26763 3017,26763 Z "
                   id="path24" />
              </g>
            </g>
          </g>
          <g
             class="Group"
             id="g32">
            <g
               class="com.sun.star.drawing.PolyPolygonShape"
               id="g27">
              <g
                 id="id200">
                <rect
                   class="BoundingBox"
                   stroke="none"
                   fill="none"
                   x="3063"
                   y="26697"
                   width="814"
                   height="1304"
                   id="rect26" />
                <path
                   fill="rgb(255,109,109)"
                   stroke="none"
                   d="M 3063,26697 L 3153,26697 3109,26893 3380,26893 3380,26958 3198,27023 3111,27281 3612,27281 3589,27348 3244,27414 3159,27686 3254,27798 3876,27798 3876,27888 3695,28000 3063,28000 3063,26697 Z "
                   id="path26" />
              </g>
            </g>
            <g
               class="com.sun.star.drawing.CustomShape"
               id="g28">
              <g
                 id="id201">
                <rect
                   class="BoundingBox"
                   stroke="none"
                   fill="none"
                   x="3063"
                   y="27800"
                   width="813"
                   height="88"
                   id="rect27" />
                <path
                   fill="rgb(255,255,255)"
                   stroke="none"
                   d="M 3469,27887 L 3063,27887 3063,27800 3875,27800 3875,27887 3469,27887 Z "
                   id="path27" />
              </g>
            </g>
            <g
               class="com.sun.star.drawing.CustomShape"
               id="g29">
              <g
                 id="id202">
                <rect
                   class="BoundingBox"
                   stroke="none"
                   fill="none"
                   x="3063"
                   y="27284"
                   width="543"
                   height="65"
                   id="rect28" />
                <path
                   fill="rgb(255,255,255)"
                   stroke="none"
                   d="M 3334,27348 L 3063,27348 3063,27284 3605,27284 3605,27348 3334,27348 Z "
                   id="path28" />
              </g>
            </g>
            <g
               class="com.sun.star.drawing.CustomShape"
               id="g30">
              <g
                 id="id203">
                <rect
                   class="BoundingBox"
                   stroke="none"
                   fill="none"
                   x="3059"
                   y="26892"
                   width="318"
                   height="67"
                   id="rect29" />
                <path
                   fill="rgb(255,255,255)"
                   stroke="none"
                   d="M 3218,26958 L 3059,26958 3059,26892 3376,26892 3376,26958 3218,26958 Z "
                   id="path29" />
              </g>
            </g>
            <g
               class="com.sun.star.drawing.CustomShape"
               id="g31">
              <g
                 id="id204">
                <rect
                   class="BoundingBox"
                   stroke="none"
                   fill="none"
                   x="3059"
                   y="26696"
                   width="92"
                   height="68"
                   id="rect30" />
                <path
                   fill="rgb(255,255,255)"
                   stroke="none"
                   d="M 3105,26763 L 3059,26763 3059,26696 3150,26696 3150,26763 3105,26763 Z "
                   id="path30" />
              </g>
            </g>
          </g>
        </g>
        <g
           class="Group"
           id="g39">
          <g
             class="com.sun.star.drawing.ClosedBezierShape"
             id="g34">
            <g
               id="id205">
              <rect
                 class="BoundingBox"
                 stroke="none"
                 fill="none"
                 x="2536"
                 y="26562"
                 width="494"
                 height="720"
                 id="rect33" />
              <path
                 fill="rgb(114,159,207)"
                 fill-opacity="0.502"
                 stroke="none"
                 d="M 3015,26764 C 3015,26764 2991,26562 2848,26562 2609,26562 2537,27146 2537,27281 L 2704,27281 C 2704,27281 2704,26607 2896,26607 3087,26607 3015,26764 3015,26764 Z "
                 id="path33"
                 style="fill:#5fd3bc" />
            </g>
          </g>
          <g
             class="com.sun.star.drawing.ClosedBezierShape"
             id="g35">
            <g
               id="id206">
              <rect
                 class="BoundingBox"
                 stroke="none"
                 fill="none"
                 x="2800"
                 y="26674"
                 width="196"
                 height="226"
                 id="rect34" />
              <path
                 fill="rgb(114,159,207)"
                 fill-opacity="0.502"
                 stroke="none"
                 d="M 2991,26764 C 2991,26764 2990,26676 2919,26674 2800,26697 2800,26899 2800,26899 L 2896,26899 C 2896,26899 2872,26719 2943,26719 3015,26719 2991,26764 2991,26764 Z "
                 id="path34"
                 style="fill:#5fd3bc" />
            </g>
          </g>
          <g
             class="com.sun.star.drawing.ClosedBezierShape"
             id="g36">
            <g
               id="id207">
              <rect
                 class="BoundingBox"
                 stroke="none"
                 fill="none"
                 x="2752"
                 y="26899"
                 width="242"
                 height="383"
                 id="rect35" />
              <path
                 fill="rgb(114,159,207)"
                 fill-opacity="0.502"
                 stroke="none"
                 d="M 2871,26899 C 2752,26922 2752,27281 2752,27281 L 2895,27281 C 2895,27281 2895,26899 2967,26899 3039,26899 2942,26901 2871,26899 Z "
                 id="path35"
                 style="fill:#5fd3bc" />
            </g>
          </g>
          <g
             class="com.sun.star.drawing.ClosedBezierShape"
             id="g37">
            <g
               id="id208">
              <rect
                 class="BoundingBox"
                 stroke="none"
                 fill="none"
                 x="2488"
                 y="27280"
                 width="331"
                 height="519"
                 id="rect36" />
              <path
                 fill="rgb(114,159,207)"
                 fill-opacity="0.502"
                 stroke="none"
                 d="M 2656,27281 C 2537,27304 2489,27798 2489,27798 L 2752,27798 C 2752,27798 2726,27281 2798,27281 2870,27281 2728,27284 2656,27281 Z "
                 id="path36"
                 style="fill:#5fd3bc" />
            </g>
          </g>
          <g
             class="com.sun.star.drawing.ClosedBezierShape"
             id="g38">
            <g
               id="id209">
              <rect
                 class="BoundingBox"
                 stroke="none"
                 fill="none"
                 x="2310"
                 y="27281"
                 width="228"
                 height="518"
                 id="rect37" />
              <path
                 fill="rgb(114,159,207)"
                 fill-opacity="0.502"
                 stroke="none"
                 d="M 2453,27281 C 2334,27304 2310,27798 2310,27798 L 2393,27798 C 2393,27798 2429,27281 2501,27281 2573,27281 2524,27283 2453,27281 Z "
                 id="path37"
                 style="fill:#5fd3bc" />
            </g>
          </g>
        </g>
        <g
           class="Group"
           id="g45">
          <g
             class="com.sun.star.drawing.ClosedBezierShape"
             id="g40">
            <g
               id="id210">
              <rect
                 class="BoundingBox"
                 stroke="none"
                 fill="none"
                 x="3063"
                 y="26629"
                 width="411"
                 height="642"
                 id="rect39" />
              <path
                 fill="rgb(114,159,207)"
                 fill-opacity="0.502"
                 stroke="none"
                 d="M 3074,26809 C 3074,26809 3094,26629 3213,26629 3412,26629 3472,27149 3472,27270 L 3332,27270 C 3332,27270 3332,26669 3173,26669 3014,26669 3074,26809 3074,26809 Z "
                 id="path39"
                 style="fill:#5fd3bc" />
            </g>
          </g>
          <g
             class="com.sun.star.drawing.ClosedBezierShape"
             id="g41">
            <g
               id="id211">
              <rect
                 class="BoundingBox"
                 stroke="none"
                 fill="none"
                 x="3090"
                 y="26729"
                 width="165"
                 height="171"
                 id="rect40" />
              <path
                 fill="rgb(114,159,207)"
                 fill-opacity="0.502"
                 stroke="none"
                 d="M 3093,26809 C 3093,26809 3094,26731 3153,26729 3252,26749 3253,26899 3253,26899 L 3182,26899 C 3182,26899 3193,26769 3133,26769 3073,26769 3093,26809 3093,26809 Z "
                 id="path40"
                 style="fill:#5fd3bc" />
            </g>
          </g>
          <g
             class="com.sun.star.drawing.ClosedBezierShape"
             id="g42">
            <g
               id="id212">
              <rect
                 class="BoundingBox"
                 stroke="none"
                 fill="none"
                 x="3087"
                 y="26899"
                 width="206"
                 height="372"
                 id="rect41" />
              <path
                 fill="rgb(114,159,207)"
                 fill-opacity="0.502"
                 stroke="none"
                 d="M 3182,26899 C 3282,26919 3292,27270 3292,27270 L 3173,27270 C 3173,27270 3170,26899 3110,26899 3051,26899 3123,26901 3182,26899 Z "
                 id="path41"
                 style="fill:#5fd3bc" />
            </g>
          </g>
          <g
             class="com.sun.star.drawing.ClosedBezierShape"
             id="g43">
            <g
               id="id213">
              <rect
                 class="BoundingBox"
                 stroke="none"
                 fill="none"
                 x="3237"
                 y="27269"
                 width="257"
                 height="530"
                 id="rect42" />
              <path
                 fill="rgb(114,159,207)"
                 fill-opacity="0.502"
                 stroke="none"
                 d="M 3372,27269 C 3471,27289 3492,27797 3492,27797 L 3301,27797 C 3301,27797 3313,27269 3253,27269 3194,27269 3312,27271 3372,27269 Z "
                 id="path42"
                 style="fill:#5fd3bc" />
            </g>
          </g>
          <g
             class="com.sun.star.drawing.ClosedBezierShape"
             id="g44">
            <g
               id="id214">
              <rect
                 class="BoundingBox"
                 stroke="none"
                 fill="none"
                 x="3472"
                 y="27270"
                 width="190"
                 height="529"
                 id="rect43" />
              <path
                 fill="rgb(114,159,207)"
                 fill-opacity="0.502"
                 stroke="none"
                 d="M 3541,27270 C 3641,27290 3661,27798 3661,27798 L 3589,27798 C 3589,27798 3561,27270 3502,27270 3442,27270 3482,27272 3541,27270 Z "
                 id="path43"
                 style="fill:#5fd3bc" />
            </g>
          </g>
        </g>
      </g>
    </g>
  </g>
</svg>
