<?xml version="1.0" encoding="UTF-8" standalone="no"?>
<svg
   version="1.2"
   viewBox="17011 23000 2001 2001"
   id="svg16"
   sodipodi:docname="piece_3.svg"
   inkscape:version="1.4.2 (f4327f4, 2025-05-13)"
   xmlns:inkscape="http://www.inkscape.org/namespaces/inkscape"
   xmlns:sodipodi="http://sodipodi.sourceforge.net/DTD/sodipodi-0.dtd"
   xmlns="http://www.w3.org/2000/svg"
   xmlns:svg="http://www.w3.org/2000/svg">
  <defs
     id="defs16" />
  <sodipodi:namedview
     id="namedview16"
     pagecolor="#ffffff"
     bordercolor="#000000"
     borderopacity="0.25"
     inkscape:showpageshadow="2"
     inkscape:pageopacity="0.0"
     inkscape:pagecheckerboard="0"
     inkscape:deskcolor="#d1d1d1"
     inkscape:zoom="0.87556222"
     inkscape:cx="1000.5"
     inkscape:cy="1093.012"
     inkscape:window-width="3840"
     inkscape:window-height="2054"
     inkscape:window-x="-11"
     inkscape:window-y="-11"
     inkscape:window-maximized="1"
     inkscape:current-layer="svg16" />
  <g
     class="com.sun.star.drawing.CustomShape"
     id="g2">
    <g
       id="id104">
      <rect
         class="BoundingBox"
         stroke="none"
         fill="none"
         x="17000"
         y="23750"
         width="2002"
         height="1251"
         id="rect2" />
      <path
         fill="#ff8000"
         stroke="none"
         d="m 17011.421,25002.284 v -1253.426 l 2001.001,9.137 1.141,1243.147 c -0.383,4.727 -2002.142,1.142 -2002.142,1.142 z"
         id="path2"
         sodipodi:nodetypes="ccccc" />
    </g>
  </g>
  <g
     class="com.sun.star.drawing.EllipseShape"
     id="g3">
    <g
       id="id105">
      <rect
         class="BoundingBox"
         stroke="none"
         fill="none"
         x="17448"
         y="23062"
         width="1564"
         height="689"
         id="rect3" />
      <path
         fill="#ff8000"
         stroke="none"
         d="m 17448,23750 c 0,-121 36,-239 105,-344 68,-105 167,-191 286,-252 119,-60 253,-92 391,-92 137,0 271,32 390,92 119,61 218,147 286,252 69,105 105,223 105,344 z"
         id="path3" />
    </g>
  </g>
  <g
     class="com.sun.star.drawing.PolyPolygonShape"
     id="g4">
    <g
       id="id106">
      <rect
         class="BoundingBox"
         stroke="none"
         fill="none"
         x="17008"
         y="23062"
         width="2004"
         height="1876"
         id="rect4" />
      <path
         fill="#ffdbb6"
         stroke="none"
         d="m 19005.533,23621.574 -1553.68,5.71 v -500 l 0.573,-65.284 H 17074 l -4,1563 -59.716,-1.142 0.716,314.284 63,-1.142 v 0 h 1874 v -1000 l 65.284,-55.964 -1.858,-254.894 z"
         id="path4"
         sodipodi:nodetypes="ccccccccccccccc" />
    </g>
  </g>
  <g
     class="com.sun.star.drawing.EllipseShape"
     id="g5">
    <g
       id="id107">
      <rect
         class="BoundingBox"
         stroke="none"
         fill="none"
         x="17511"
         y="23125"
         width="1439"
         height="626"
         id="rect5" />
      <path
         fill="#ffdbb6"
         stroke="none"
         d="m 17511,23750 c 0,-110 33,-217 96,-312 63,-96 154,-174 264,-229 109,-55 233,-84 359,-84 126,0 250,29 360,84 109,55 200,133 263,229 63,95 96,202 96,312 z"
         id="path5"
         sodipodi:nodetypes="cccscccc" />
    </g>
  </g>
  <g
     class="com.sun.star.drawing.CustomShape"
     id="g6">
    <g
       id="id108">
      <rect
         class="BoundingBox"
         stroke="none"
         fill="none"
         x="17008"
         y="24563"
         width="251"
         height="63"
         id="rect6" />
      <path
         fill="#ff8000"
         stroke="none"
         d="m 17133,24625 -119.289,1.142 v -60.858 L 17258,24563 v 62 z"
         id="path6"
         sodipodi:nodetypes="cccccc" />
    </g>
  </g>
  <g
     class="com.sun.star.drawing.CustomShape"
     id="g7">
    <g
       id="id109">
      <rect
         class="BoundingBox"
         stroke="none"
         fill="none"
         x="17449"
         y="23125"
         width="63"
         height="501"
         id="rect7" />
      <path
         fill="#ff8000"
         stroke="none"
         d="m 17480,23625 -31,2.284 V 23125 h 62 l -1.142,498.858 z"
         id="path7"
         sodipodi:nodetypes="cccccc" />
    </g>
  </g>
  <g
     class="com.sun.star.drawing.CustomShape"
     id="g8">
    <g
       id="id110">
      <rect
         class="BoundingBox"
         stroke="none"
         fill="none"
         x="17012"
         y="23124"
         width="63"
         height="626"
         id="rect8" />
      <path
         fill="#ff8000"
         stroke="none"
         d="m 17043,23749 h -31 v -625 h 62 l -1.142,627.284 z"
         id="path8"
         sodipodi:nodetypes="cccccc" />
    </g>
  </g>
  <g
     class="com.sun.star.drawing.CustomShape"
     id="g9">
    <g
       id="id111">
      <rect
         class="BoundingBox"
         stroke="none"
         fill="none"
         x="17313"
         y="23062"
         width="64"
         height="63"
         id="rect9" />
      <path
         fill="#ff8000"
         stroke="none"
         d="m 17345,23124 h -32 v -62 h 63 v 62 z"
         id="path9" />
    </g>
  </g>
  <g
     class="com.sun.star.drawing.CustomShape"
     id="g10">
    <g
       id="id112">
      <rect
         class="BoundingBox"
         stroke="none"
         fill="none"
         x="17189"
         y="23063"
         width="64"
         height="63"
         id="rect10" />
      <path
         fill="#ff8000"
         stroke="none"
         d="m 17221,23125 h -32 v -62 h 63 v 62 z"
         id="path10" />
    </g>
  </g>
  <g
     class="com.sun.star.drawing.CustomShape"
     id="g11">
    <g
       id="id113">
      <rect
         class="BoundingBox"
         stroke="none"
         fill="none"
         x="17064"
         y="23063"
         width="64"
         height="63"
         id="rect11" />
      <path
         fill="#ff8000"
         stroke="none"
         d="m 17096,23125 h -32 v -62 h 63 v 62 z"
         id="path11" />
    </g>
  </g>
  <g
     class="com.sun.star.drawing.CustomShape"
     id="g12">
    <g
       id="id114">
      <rect
         class="BoundingBox"
         stroke="none"
         fill="none"
         x="18758"
         y="23563"
         width="251"
         height="63"
         id="rect12" />
      <path
         fill="#ff8000"
         stroke="none"
         d="m 18883,23625 h -125 v -62 h 250 v 62 z"
         id="path12" />
    </g>
  </g>
  <g
     class="com.sun.star.drawing.CustomShape"
     id="g13">
    <g
       id="id115">
      <rect
         class="BoundingBox"
         stroke="none"
         fill="none"
         x="18758"
         y="23875"
         width="251"
         height="63"
         id="rect13" />
      <path
         fill="#ff8000"
         stroke="none"
         d="m 18883,23937 h -125 v -62 h 256.853 l -1.142,64.284 z"
         id="path13"
         sodipodi:nodetypes="cccccc" />
    </g>
  </g>
  <g
     class="com.sun.star.drawing.CustomShape"
     id="g14">
    <g
       id="id116">
      <rect
         class="BoundingBox"
         stroke="none"
         fill="none"
         x="17008"
         y="24875"
         width="251"
         height="63"
         id="rect14" />
      <path
         fill="#ff8000"
         stroke="none"
         d="m 17133,24937 -120.432,1.142 -2.283,-62 L 17258,24875 v 62 z"
         id="path14"
         sodipodi:nodetypes="cccccc" />
    </g>
  </g>
  <g
     class="com.sun.star.drawing.CustomShape"
     id="g15">
    <g
       id="id117">
      <rect
         class="BoundingBox"
         stroke="none"
         fill="none"
         x="18948"
         y="23499"
         width="61"
         height="126"
         id="rect15" />
      <path
         fill="#ff8000"
         stroke="none"
         d="m 18978,23624 h -30 v -125 l 65.711,-1.142 -1.143,126.142 z"
         id="path15"
         sodipodi:nodetypes="cccccc" />
    </g>
  </g>
</svg>
