<?xml version="1.0" encoding="UTF-8" standalone="no"?>
<svg
   width="811"
   height="374"
   viewBox="0.2714844 -0.4116211 811 374"
   overflow="visible"
   enable-background="new 0.2714844 -0.4116211 938 1007"
   xml:space="preserve"
   version="1.1"
   id="svg858"
   sodipodi:docname="nautilus-4.svg"
   inkscape:version="1.2.2 (732a01da63, 2022-12-09)"
   xmlns:inkscape="http://www.inkscape.org/namespaces/inkscape"
   xmlns:sodipodi="http://sodipodi.sourceforge.net/DTD/sodipodi-0.dtd"
   xmlns="http://www.w3.org/2000/svg"
   xmlns:svg="http://www.w3.org/2000/svg"
   xmlns:rdf="http://www.w3.org/1999/02/22-rdf-syntax-ns#"
   xmlns:cc="http://creativecommons.org/ns#"
   xmlns:dc="http://purl.org/dc/elements/1.1/"
   xmlns:a="http://ns.adobe.com/AdobeSVGViewerExtensions/3.0/"><metadata
   id="metadata864"><rdf:RDF><cc:Work
       rdf:about=""><dc:format>image/svg+xml</dc:format><dc:type
         rdf:resource="http://purl.org/dc/dcmitype/StillImage" /></cc:Work></rdf:RDF></metadata><defs
   id="defs862" /><sodipodi:namedview
   pagecolor="#ffffff"
   bordercolor="#666666"
   borderopacity="1"
   objecttolerance="10"
   gridtolerance="10"
   guidetolerance="10"
   inkscape:pageopacity="0"
   inkscape:pageshadow="2"
   inkscape:window-width="3840"
   inkscape:window-height="2066"
   id="namedview860"
   showgrid="false"
   inkscape:zoom="1.4597815"
   inkscape:cx="538.77925"
   inkscape:cy="184.27415"
   inkscape:window-x="-11"
   inkscape:window-y="-11"
   inkscape:window-maximized="1"
   inkscape:current-layer="svg858"
   inkscape:showpageshadow="2"
   inkscape:pagecheckerboard="0"
   inkscape:deskcolor="#d1d1d1" />
	<g
   id="Calque_10_8_"
   transform="matrix(0.86419561,0,0,0.37116473,1.5905839,-0.00381633)">
		
			<linearGradient
   id="XMLID_1_"
   gradientUnits="userSpaceOnUse"
   x1="-96.821777"
   y1="506.0874"
   x2="907.19922"
   y2="506.0874"
   gradientTransform="matrix(-0.0025,1,-1.5488,-0.0039,1253.8669,99.972717)">
			<stop
   offset="0"
   style="stop-color:#FFFFFF"
   id="stop2" />
			<stop
   offset="0.117977"
   style="stop-color:#E1E1E1"
   id="stop4" />
			<stop
   offset="0.297753"
   style="stop-color:#07A02E"
   id="stop6" />
			<stop
   offset="1"
   style="stop-color:#000000"
   id="stop8" />
			<a:midPointStop
   offset="0"
   style="stop-color:#FFFFFF" />
			<a:midPointStop
   offset="0.5"
   style="stop-color:#FFFFFF" />
			<a:midPointStop
   offset="0.117977"
   style="stop-color:#E1E1E1" />
			<a:midPointStop
   offset="0.5"
   style="stop-color:#E1E1E1" />
			<a:midPointStop
   offset="0.297753"
   style="stop-color:#07A02E" />
			<a:midPointStop
   offset="0.5"
   style="stop-color:#07A02E" />
			<a:midPointStop
   offset="1"
   style="stop-color:#000000" />
		</linearGradient>
		<path
   fill="url(#XMLID_1_)"
   d="M 0,1003.9937 2.5585938,0 938.0498,2.3828125 935.49121,1006.3765 Z"
   id="path11"
   style="fill:url(#XMLID_1_)" />
	</g>
	<g
   id="Calque_9_8_"
   transform="translate(-48.556753,-323.00649)">
		<path
   fill="#3f2200"
   stroke="#050505"
   stroke-width="0.25"
   d="m 526.94531,547.4624 c 46.56055,-4.73486 137.57422,-8.71924 164.23633,-15.1831 27.91797,-6.76807 40.85352,-37.08545 47.94238,-51.97266 0,0 5.21973,-11.50146 6.20215,-14.7749 z m 164.82617,-20.05908 -19.5,3.5 0.5,-37.5 23,-3.5 z"
   id="path14" />
	</g>
	<g
   id="Calque_8_8_"
   transform="translate(-48.556753,-323.00649)">
		<g
   id="g27">
			<path
   fill="#d68e8e"
   d="m 725.81738,447.2832 c -16.01953,1.1709 -34.23242,2.31787 -53.98437,4.08496 -54.23438,4.8545 -120.27735,12.75635 -185.31055,23.44727 -63.74756,10.47852 -126.71631,23.66064 -177.1499,39.34375 -31.14697,9.68652 -39.3335,-6.71729 -39.3335,-6.71729 -32.2417,9.11719 -94.41308,57.10498 -132.31592,94.26856 l -12.99365,3.13281 c 212.99951,-2.01562 364.44922,-36.90625 534.66602,-100.51172 0,0 111.04199,-48.53027 124.7207,-57.66455 l 0.0303,-0.10303 c -25.34668,-1.00244 -38.95996,-0.69531 -58.3291,0.71924 z M 241.9248,537.33252 c -8.77587,3.21728 -31.8706,16.31543 -34.18017,14.93652 -5.63623,-3.36474 38.86035,-28.59961 38.56787,-28.26416 -3.30518,3.78809 -4.3877,13.32764 -4.3877,13.32764 z"
   id="path17" />
			<g
   id="g25">
				<path
   fill="none"
   d="m 725.81738,447.2832 c -16.01953,1.1709 -34.23242,2.31787 -53.98437,4.08496 -54.23438,4.8545 -120.27735,12.75635 -185.31055,23.44727 -63.74756,10.47852 -126.71631,23.66064 -177.1499,39.34375 -31.14697,9.68652 -39.3335,-6.71729 -39.3335,-6.71729 -32.2417,9.11719 -94.41308,57.10498 -132.31592,94.26856 l -12.99365,3.13281 c 212.99951,-2.01562 364.44922,-36.90625 534.66602,-100.51172 0,0 111.04199,-48.53027 124.7207,-57.66455 l 0.0303,-0.10303 c -25.34668,-1.00244 -38.95996,-0.69531 -58.3291,0.71924 z M 241.9248,537.33252 c -8.77587,3.21728 -31.8706,16.31543 -34.18017,14.93652 -5.63623,-3.36474 38.86035,-28.59961 38.56787,-28.26416 -3.30518,3.78809 -4.3877,13.32764 -4.3877,13.32764 z"
   id="path19" />
				<path
   d="m 725.77832,447.06152 c -123.2998,8.96729 -247.28174,23.55616 -367.47021,53.31348 -10.61866,2.62891 -21.1919,5.44043 -31.71534,8.42773 -10.28857,2.9209 -20.51562,6.95264 -31.21289,8.02051 -8.34277,0.83301 -20.78369,-0.99219 -25.13769,-9.47803 -0.042,-0.082 -0.14551,-0.15283 -0.24219,-0.125 -12.12012,3.52344 -23.35156,9.88868 -34.08545,16.39209 -14.30859,8.66846 -27.93213,18.47071 -41.20654,28.63526 -14.34131,10.98047 -28.20801,22.58984 -41.61084,34.69629 -2.87207,2.59375 -5.70996,5.22558 -8.5293,7.87695 -1.9458,1.83008 -5.0293,6.2207 -7.60351,6.8418 -4.09131,0.98633 -8.18262,1.97265 -12.27393,2.95898 -0.23291,0.0566 -0.24902,0.44824 0.0181,0.44531 111.81005,-1.11035 223.27002,-12.07226 332.21972,-37.73535 50.07959,-11.79687 99.41846,-26.55371 148.07764,-43.23584 18.78223,-6.43945 38.16797,-12.41015 56.3623,-20.38232 10.09766,-4.42432 20.18067,-8.88135 30.25489,-13.3584 19.2207,-8.54199 38.41211,-17.15478 57.49023,-26.01074 7.79199,-3.61719 15.56836,-7.2749 23.26367,-11.09473 2.66114,-1.32031 5.3086,-2.66846 7.91993,-4.08398 0.83007,-0.4502 3.77343,-1.54688 4.06054,-2.52344 0.0391,-0.13184 -0.0361,-0.29639 -0.18945,-0.30225 -19.51367,-0.75488 -38.91016,-0.68261 -58.38965,0.72168 -0.28906,0.021 -0.20801,0.46387 0.0781,0.44336 12.05175,-0.86914 24.10156,-1.36523 36.18554,-1.29052 6.72071,0.042 13.44043,0.25146 20.15625,0.49902 2.29981,0.085 0.80762,0.40137 -0.17676,0.97412 -0.91992,0.53418 -1.85546,1.04004 -2.79199,1.54346 -11.94726,6.41943 -24.38574,11.98681 -36.69629,17.66015 -26.59375,12.25537 -53.3623,24.13623 -80.17773,35.89795 -16.68164,7.31787 -34.33594,12.85156 -51.53516,18.82666 -25.18359,8.74903 -50.55664,16.95166 -76.11816,24.5293 -49.77735,14.75684 -100.32764,26.85107 -151.44238,35.96973 -54.56055,9.73242 -109.71094,15.89648 -165.01709,19.29882 -15.54297,0.95606 -31.10059,1.66797 -46.66358,2.20215 -7.40918,0.25489 -14.82031,0.45313 -22.23193,0.61914 -3.76123,0.084 -7.52295,0.15235 -11.28467,0.21387 -4.31152,0.0723 -9.01563,-0.41504 -13.2085,0.5957 2.896,-0.69824 5.792,-1.39648 8.68799,-2.09472 3.73877,-0.90137 4.40918,-1.16309 7.26367,-3.92188 8.85743,-8.56054 18.05371,-16.76855 27.41993,-24.76562 19.67529,-16.8003 40.28808,-32.67969 62.09033,-46.63282 8.73779,-5.59277 17.74658,-10.82617 27.17041,-15.18066 3.81933,-1.76465 7.7417,-3.31348 11.76562,-4.54492 1.07032,-0.32764 1.22168,0.72021 2.0459,1.71338 11.1543,13.4331 32.22803,6.49072 45.84961,2.40674 28.27686,-8.47803 57.04199,-15.30811 85.91113,-21.43116 106.29883,-22.54541 214.5127,-35.21289 322.79786,-43.08789 0.28906,-0.021 0.208,-0.46435 -0.0781,-0.44336 z"
   id="path21" />
				<path
   d="m 241.82812,537.12939 c -10.0166,3.79639 -19.22949,9.48633 -29.09912,13.63672 -0.56494,0.23731 -5.21826,2.40723 -5.25,0.60498 -0.0225,-1.2583 1.7583,-2.68652 2.54004,-3.43505 2.79737,-2.6792 6.06934,-4.90381 9.24707,-7.09815 7.40088,-5.10986 15.13379,-9.76318 22.91651,-14.26514 0.9873,-0.57129 1.97851,-1.13623 2.97363,-1.69433 1.75049,-0.98145 0.61426,-0.61426 -0.16553,0.65771 -2.05566,3.35205 -2.82666,7.91358 -3.29004,11.77491 -0.0347,0.28906 0.41358,0.33007 0.44825,0.043 0.54199,-4.51709 1.52783,-9.54589 4.34765,-13.22021 0.0991,-0.12842 0.005,-0.34961 -0.16308,-0.35303 -1.0708,-0.0225 -2.95411,1.58594 -3.82959,2.08887 -3.6084,2.07129 -7.17969,4.20703 -10.72852,6.37842 -7.69434,4.708 -15.91699,9.47363 -22.46435,15.74365 -2.76026,2.64355 -3.10694,5.51172 1.46435,4.00488 10.88379,-3.5874 20.53418,-10.40039 31.24609,-14.46094 0.271,-0.10253 0.0767,-0.50878 -0.19336,-0.40625 z"
   id="path23" />
			</g>
		</g>
		<g
   id="g48">
			<g
   id="g46">
				
					<linearGradient
   id="XMLID_2_"
   gradientUnits="userSpaceOnUse"
   x1="462.33252"
   y1="566.87256"
   x2="451.35486"
   y2="510.3974">
					<stop
   offset="0.083799"
   style="stop-color:#3F2200"
   id="stop29" />
					<stop
   offset="0.1703863"
   style="stop-color:#6A4129"
   id="stop31" />
					<stop
   offset="0.2623038"
   style="stop-color:#915D4D"
   id="stop33" />
					<stop
   offset="0.3536235"
   style="stop-color:#AF7269"
   id="stop35" />
					<stop
   offset="0.4428388"
   style="stop-color:#C5827E"
   id="stop37" />
					<stop
   offset="0.5290875"
   style="stop-color:#D28B8A"
   id="stop39" />
					<stop
   offset="0.608938"
   style="stop-color:#D68E8E"
   id="stop41" />
					<a:midPointStop
   offset="0.083799"
   style="stop-color:#3F2200" />
					<a:midPointStop
   offset="0.308511"
   style="stop-color:#3F2200" />
					<a:midPointStop
   offset="0.608938"
   style="stop-color:#D68E8E" />
				</linearGradient>
				<path
   fill="url(#XMLID_2_)"
   d="m 783.93066,446.01318 c -0.38379,-0.0146 -0.76757,-0.0239 -1.15136,-0.0381 L 138.43457,600.45947 c -0.02,0.0195 -0.0415,0.04 -0.0615,0.0596 -0.56055,0.39453 -1.11426,0.68946 -1.646,0.81739 -4.09131,0.98632 -8.18262,1.97265 -12.27392,2.95898 -0.23292,0.0566 -0.24903,0.44824 0.0181,0.44531 51.2876,-0.50879 102.5,-3.10547 153.43164,-8.22949 1.77051,-0.17676 3.54346,-0.35254 5.30664,-0.53516 0.22364,-0.0234 0.44678,-0.0479 0.67041,-0.0713 5.79834,-0.60254 11.55762,-1.23633 17.28028,-1.90137 0.0181,-0.002 0.0361,-0.004 0.0537,-0.006 1.00097,-0.11621 2.00146,-0.23731 3.00195,-0.35547 0.0454,-0.006 0.0903,-0.0107 0.13525,-0.0166 2.07373,-0.24512 4.14502,-0.49317 6.20948,-0.74707 0.0322,-0.004 0.0649,-0.008 0.0977,-0.0117 0.84619,-0.10352 1.69239,-0.21094 2.53858,-0.31641 8.37793,-1.0459 16.68066,-2.15918 24.91455,-3.33789 39.78369,-5.65429 79.3457,-12.96582 118.57959,-22.20752 50.07959,-11.79638 99.41845,-26.55371 148.07763,-43.23584 18.78223,-6.43945 38.16797,-12.41015 56.36231,-20.38232 10.09766,-4.42432 20.18066,-8.88135 30.25488,-13.3584 19.22071,-8.54199 38.41211,-17.15479 57.49024,-26.01074 7.79199,-3.61719 15.56836,-7.2749 23.26367,-11.09424 2.66113,-1.3208 5.30859,-2.66846 7.91992,-4.08398 0.83008,-0.44971 3.77539,-1.54786 4.06055,-2.52393 0.0391,-0.13184 -0.0361,-0.29639 -0.18946,-0.30225 z M 124.6167,604.71826 c 0.29492,-0.0713 0.58935,-0.14258 0.88428,-0.21289 0.063,-9.8e-4 0.12548,-0.002 0.18847,-0.003 0.009,0 0.0181,0 0.0274,0 -0.36866,0.0664 -0.73877,0.12891 -1.1001,0.21582 z m 12.86914,-3.33398 -0.52783,0.12695 c 0.32275,-0.15137 0.6289,-0.32324 0.93701,-0.52637 -0.13574,0.13282 -0.27393,0.2666 -0.40918,0.39942 z m 494.47705,-87.41309 c 3.04199,-1.09326 6.08887,-2.19482 9.1416,-3.30713 0.17188,-0.0625 0.34375,-0.12451 0.51563,-0.1875 3.01465,-1.09863 6.03222,-2.20459 9.05664,-3.32177 0.10644,-0.0391 0.21191,-0.0772 0.31738,-0.11622 -6.2793,2.44727 -12.64453,4.72559 -19.03125,6.93262 z"
   id="path44"
   style="fill:url(#XMLID_2_)" />
			</g>
		</g>
		<g
   id="g58">
			<path
   fill="#ffffff"
   d="M 738.74512,480.35937"
   id="path50" />
			<g
   id="g56">
				<path
   fill="none"
   d="M 738.74512,480.35937"
   id="path52" />
				<path
   d="m 738.72363,480.5835 c 0.28809,0 0.33301,-0.44825 0.043,-0.44825 -0.28808,0 -0.33301,0.44825 -0.043,0.44825 z"
   id="path54" />
			</g>
		</g>
		<g
   id="g68">
			<path
   fill="#ffffff"
   d="M 692.41113,495.9834"
   id="path60" />
			<g
   id="g66">
				<path
   fill="none"
   d="M 692.41113,495.9834"
   id="path62" />
				<path
   d="m 692.38965,496.20752 c 0.28808,0 0.33301,-0.44824 0.043,-0.44824 -0.28809,0 -0.33301,0.44824 -0.043,0.44824 z"
   id="path64" />
			</g>
		</g>
		<g
   id="g78">
			<path
   fill="#ffffff"
   d="m 644.6709,505.94092 c 0.53418,0.4292 0.36914,1.51953 -0.36719,2.43603 -0.73633,0.91602 -1.76562,1.31153 -2.2998,0.88282 -0.53321,-0.42872 -0.36914,-1.51954 0.36718,-2.43653 0.73633,-0.91553 1.76661,-1.31103 2.29981,-0.88232 z"
   id="path70" />
			<g
   id="g76">
				<path
   fill="none"
   d="m 644.6709,505.94092 c 0.53418,0.4292 0.36914,1.51953 -0.36719,2.43603 -0.73633,0.91602 -1.76562,1.31153 -2.2998,0.88282 -0.53321,-0.42872 -0.36914,-1.51954 0.36718,-2.43653 0.73633,-0.91553 1.76661,-1.31103 2.29981,-0.88232 z"
   id="path72" />
				<path
   d="m 644.49902,506.08643 c 1.0459,1.0122 -0.96191,3.41406 -2.19531,3.08496 -0.95312,-0.2544 -0.042,-1.82813 0.25195,-2.21924 0.38575,-0.5127 1.32129,-1.27246 1.98633,-0.82715 0.24121,0.16162 0.49903,-0.20654 0.25781,-0.36816 -1.64843,-1.10547 -4.38476,2.27587 -2.96777,3.64843 0.74512,0.72168 1.94434,-0.13867 2.47559,-0.69091 0.65136,-0.67774 1.36816,-2.1128 0.53515,-2.91895 -0.20703,-0.19971 -0.55273,0.0889 -0.34375,0.29102 z"
   id="path74" />
			</g>
		</g>
		<g
   id="g86">
			<g
   id="g84">
				<path
   fill="none"
   d="m 241.76807,537.46582 c 30.51318,12.76807 55.08691,-19.68359 67.25341,-23.01709"
   id="path80" />
				<path
   d="m 241.68994,537.67676 c 13.07471,5.1997 26.03223,2.62158 38.07373,-3.96338 5.41309,-2.95996 10.41651,-6.63574 15.36328,-10.30127 4.28418,-3.17432 8.74512,-7.16113 13.9336,-8.7417 0.27392,-0.0835 0.19922,-0.52783 -0.0781,-0.44336 -8.61719,2.625 -15.97119,10.46045 -23.33154,15.36816 -13.22022,8.81543 -28.37061,13.79737 -43.80469,7.65967 -0.27051,-0.10791 -0.42529,0.31494 -0.15625,0.42188 z"
   id="path82" />
			</g>
		</g>
		<g
   id="g112">
			<g
   id="g94">
				<g
   id="g92">
					<path
   fill="none"
   d="m 404.51172,526.48242 c 12.70215,-0.23291 24.97803,9.03662 24.97803,21.30664 0,12.271 -10.89063,21.01856 -25.03565,22.22022"
   id="path88" />
					<path
   d="m 404.49072,526.70654 c 12.55957,0.11475 25.15235,8.75489 24.73633,22.31787 -0.39502,12.88868 -13.59717,19.5962 -24.81201,20.76319 -0.28906,0.0303 -0.20899,0.47314 0.0781,0.44336 12.03907,-1.25293 23.9668,-8.08741 25.18213,-21.16407 1.27783,-13.74853 -12.96728,-22.69726 -25.14258,-22.80859 -0.28808,-0.002 -0.33203,0.44531 -0.042,0.44824 z"
   id="path90" />
				</g>
			</g>
			<g
   id="g102">
				<g
   id="g100">
					<path
   fill="none"
   d="m 404.51172,526.48242 c -33.02539,0.43701 -32.42383,-28.67627 -79.53711,-17.28125"
   id="path96" />
					<path
   d="m 404.53271,526.2583 c -7.16699,0.0195 -13.95849,-1.37305 -20.4331,-4.46582 -5.37012,-2.56543 -10.20361,-6.12646 -15.36719,-9.0625 -13.74853,-7.81787 -28.76611,-7.27539 -43.79687,-3.75049 -0.28125,0.0659 -0.20459,0.50977 0.0781,0.44336 16.50733,-3.87109 31.5957,-3.53027 46.28223,5.33106 10.75293,6.48779 20.19433,11.98779 33.19482,11.95263 0.2876,-9.7e-4 0.33203,-0.44922 0.042,-0.44824 z"
   id="path98" />
				</g>
			</g>
			<g
   id="g110">
				<g
   id="g108">
					<path
   fill="none"
   d="m 404.4541,570.00928 c -19.57324,2.28662 -23.0791,13.43554 -58.1831,18.08691"
   id="path104" />
					<path
   d="m 404.41504,569.7876 c -8.15234,1.03271 -15.1792,4.26074 -22.50586,7.78467 -11.34229,5.45459 -23.2251,8.58447 -35.67725,10.30224 -0.28759,0.04 -0.20849,0.48242 0.0781,0.44336 11.875,-1.63867 23.25146,-4.50781 34.13916,-9.55566 7.89502,-3.66114 15.27978,-7.42139 24.04394,-8.53125 0.28809,-0.0366 0.20899,-0.4795 -0.0781,-0.44336 z"
   id="path106" />
				</g>
			</g>
		</g>
		<g
   id="g122">
			<path
   fill="#ffffff"
   d="m 512.73633,538.84619 c 1.66015,1.33447 1.25586,4.59082 -0.90039,7.27539 -2.15723,2.68457 -5.25196,3.7793 -6.91016,2.44629 -1.66016,-1.33447 -1.25781,-4.5918 0.89942,-7.27685 2.15722,-2.68311 5.25097,-3.77784 6.91113,-2.44483 z"
   id="path114" />
			<g
   id="g120">
				<path
   fill="none"
   d="m 512.73633,538.84619 c 1.66015,1.33447 1.25586,4.59082 -0.90039,7.27539 -2.15723,2.68457 -5.25196,3.7793 -6.91016,2.44629 -1.66016,-1.33447 -1.25781,-4.5918 0.89942,-7.27685 2.15722,-2.68311 5.25097,-3.77784 6.91113,-2.44483 z"
   id="path116" />
				<path
   d="m 512.56445,538.9917 c 3.62696,3.43701 -2.7041,10.96484 -6.87597,9.75293 -4.70703,-1.36768 1.93457,-13.08838 6.91894,-9.71436 0.24024,0.16309 0.49903,-0.20556 0.25781,-0.36816 -4.60644,-3.11865 -12.14843,6.22559 -8.11132,10.05127 2.0039,1.89892 5.49902,-0.39844 6.85156,-1.97803 1.71484,-2.00342 3.68848,-5.77392 1.30273,-8.03467 -0.208,-0.19726 -0.55468,0.0913 -0.34375,0.29102 z"
   id="path118" />
			</g>
		</g>
		<g
   id="g132">
			<path
   fill="#ffffff"
   d="m 561.92676,526.04932 c 1.44922,1.16504 1.04492,4.07177 -0.90039,6.49463 -1.94727,2.42236 -4.7002,3.44189 -6.14844,2.27783 -1.44922,-1.16504 -1.04688,-4.07276 0.89941,-6.4961 1.94727,-2.42089 4.69922,-3.44043 6.14942,-2.27636 z"
   id="path124" />
			<g
   id="g130">
				<path
   fill="none"
   d="m 561.92676,526.04932 c 1.44922,1.16504 1.04492,4.07177 -0.90039,6.49463 -1.94727,2.42236 -4.7002,3.44189 -6.14844,2.27783 -1.44922,-1.16504 -1.04688,-4.07276 0.89941,-6.4961 1.94727,-2.42089 4.69922,-3.44043 6.14942,-2.27636 z"
   id="path126" />
				<path
   d="m 561.75488,526.19482 c 3.13086,3.01661 -2.52051,9.77295 -6.19824,8.75147 -4.05957,-1.12744 1.89063,-11.63965 6.24121,-8.71289 0.24024,0.16211 0.49902,-0.20606 0.25781,-0.36817 -4.08593,-2.74951 -10.8789,5.70069 -7.34961,9.10206 1.81543,1.74951 4.83594,-0.51417 6.0918,-1.81397 1.62891,-1.68652 3.36719,-5.25781 1.30078,-7.24951 -0.20703,-0.19922 -0.55273,0.0893 -0.34375,0.29101 z"
   id="path128" />
			</g>
		</g>
		<g
   id="g142">
			<path
   fill="#ffffff"
   d="m 598.45215,517.10059 c 1.08105,0.86865 0.67773,3.16406 -0.90039,5.12841 -1.57813,1.96387 -3.7334,2.85157 -4.81348,1.98389 -1.08105,-0.86914 -0.67871,-3.16504 0.89942,-5.12939 1.5791,-1.96338 3.73339,-2.85108 4.81445,-1.98291 z"
   id="path134" />
			<g
   id="g140">
				<path
   fill="none"
   d="m 598.45215,517.10059 c 1.08105,0.86865 0.67773,3.16406 -0.90039,5.12841 -1.57813,1.96387 -3.7334,2.85157 -4.81348,1.98389 -1.08105,-0.86914 -0.67871,-3.16504 0.89942,-5.12939 1.5791,-1.96338 3.73339,-2.85108 4.81445,-1.98291 z"
   id="path136" />
				<path
   d="m 598.28027,517.24609 c 2.32813,2.27735 -2.27832,7.66797 -5.01172,7 -2.21777,-0.5415 -0.10644,-4.15966 0.55372,-5.03369 0.87207,-1.15478 2.97753,-2.93652 4.50097,-1.92773 0.24121,0.16015 0.5,-0.20801 0.25781,-0.36817 -3.15332,-2.08984 -8.70214,4.81153 -6.01464,7.4419 1.42871,1.39844 3.8789,-0.60401 4.8291,-1.60254 1.23926,-1.30225 2.85742,-4.20752 1.22851,-5.80078 -0.20605,-0.20117 -0.55175,0.0879 -0.34375,0.29101 z"
   id="path138" />
			</g>
		</g>
		<g
   id="g152">
			<path
   fill="#ffffff"
   d="m 624.09863,510.04932 c 0.7461,0.59863 0.33301,2.34668 -0.91797,3.90527 -1.25195,1.55762 -2.87109,2.33545 -3.61425,1.73779 -0.7461,-0.59912 -0.33496,-2.34717 0.91699,-3.90576 1.25195,-1.55713 2.87109,-2.33496 3.61523,-1.7373 z"
   id="path144" />
			<g
   id="g150">
				<path
   fill="none"
   d="m 624.09863,510.04932 c 0.7461,0.59863 0.33301,2.34668 -0.91797,3.90527 -1.25195,1.55762 -2.87109,2.33545 -3.61425,1.73779 -0.7461,-0.59912 -0.33496,-2.34717 0.91699,-3.90576 1.25195,-1.55713 2.87109,-2.33496 3.61523,-1.7373 z"
   id="path146" />
				<path
   d="m 623.92676,510.19482 c 0.88086,0.88575 -0.15332,2.52832 -0.69141,3.3169 -0.65625,0.96142 -1.85742,2.1416 -3.10644,2.15478 -1.69434,0.0181 -0.0205,-2.96728 0.2998,-3.43701 0.5791,-0.84765 2.34082,-2.75537 3.54102,-1.99609 0.24414,0.15527 0.5039,-0.21289 0.25781,-0.36817 -1.25879,-0.79736 -2.90332,0.58252 -3.67383,1.4917 -0.83496,0.98536 -2.39844,3.2334 -1.15918,4.48096 1.06445,1.0708 3.09082,-0.71533 3.71582,-1.45312 0.83399,-0.98487 2.39942,-3.23389 1.16016,-4.48096 -0.20313,-0.2041 -0.54883,0.085 -0.34375,0.29101 z"
   id="path148" />
			</g>
		</g>
		<g
   id="g162">
			<path
   fill="#ffffff"
   d="m 304.41992,577.97314 c 1.9834,2.17969 2.14356,5.26465 0.35742,6.88965 -1.78711,1.625 -4.84277,1.17578 -6.82666,-1.0039 -1.98388,-2.17969 -2.14306,-5.26465 -0.35693,-6.89063 1.78613,-1.625 4.84277,-1.17578 6.82617,1.00488 z"
   id="path154" />
			<g
   id="g160">
				<path
   fill="none"
   d="m 304.41992,577.97314 c 1.9834,2.17969 2.14356,5.26465 0.35742,6.88965 -1.78711,1.625 -4.84277,1.17578 -6.82666,-1.0039 -1.98388,-2.17969 -2.14306,-5.26465 -0.35693,-6.89063 1.78613,-1.625 4.84277,-1.17578 6.82617,1.00488 z"
   id="path156" />
				<path
   d="m 304.24854,578.11865 c 1.5791,1.87012 2.27978,4.64746 0.3833,6.57227 -1.89063,1.91894 -4.94434,0.62012 -6.50977,-0.97754 -1.71094,-1.74707 -2.18457,-4.74317 -0.38281,-6.57373 1.89013,-1.91944 4.94482,-0.61865 6.50928,0.979 0.20166,0.20606 0.54638,-0.083 0.34277,-0.29101 -1.89746,-1.93848 -4.85596,-2.89356 -7.14307,-1.03077 -2.28027,1.85694 -1.2622,5.32276 0.33106,7.20752 1.74902,2.07032 4.96631,2.80176 7.14355,1.03028 2.28027,-1.85645 1.26123,-5.32227 -0.33154,-7.20703 -0.18701,-0.22168 -0.53076,0.0693 -0.34277,0.29101 z"
   id="path158" />
			</g>
		</g>
		<g
   id="g170">
			<g
   id="g168">
				<path
   fill="none"
   d="m 300.35449,575.99854 c -24.00049,4.85644 -41.94385,9.85156 -41.30176,11.77636 0.69239,2.07617 34.83985,-0.44922 43.37207,-1.83398"
   id="path164" />
				<path
   d="m 300.31543,575.77686 c -11.97266,2.4414 -24.08252,4.91015 -35.69629,8.76757 -0.35156,0.11719 -7.8335,2.60645 -5.20215,3.75586 1.79346,0.78321 4.40528,0.47657 6.2959,0.48731 4.04248,0.0205 8.08984,-0.18946 12.125,-0.41016 8.20068,-0.44922 16.50342,-0.94824 24.62598,-2.21484 0.28711,-0.0449 0.20849,-0.48828 -0.0781,-0.44336 -12.48681,1.94726 -25.5874,2.78906 -38.21338,2.60449 -0.84277,-0.0127 -6.35058,-0.0518 -3.92285,-1.51074 2.52832,-1.51856 5.73145,-2.27051 8.51221,-3.10254 10.37207,-3.10547 21.03223,-5.3291 31.63183,-7.49024 0.2837,-0.0581 0.20655,-0.50146 -0.0781,-0.44335 z"
   id="path166" />
			</g>
		</g>
		<g
   id="g180">
			<path
   fill="#ffffff"
   d="M 674.86914,446.37256"
   id="path172" />
			<g
   id="g178">
				<path
   fill="none"
   d="M 674.86914,446.37256"
   id="path174" />
				<path
   d="m 674.84766,446.59668 c 0.28808,0 0.333,-0.44824 0.043,-0.44824 -0.28809,0 -0.33301,0.44824 -0.043,0.44824 z"
   id="path176" />
			</g>
		</g>
		<g
   id="g190">
			<path
   fill="#ffffff"
   d="M 675.54004,450.30859"
   id="path182" />
			<g
   id="g188">
				<path
   fill="none"
   d="M 675.54004,450.30859"
   id="path184" />
				<path
   d="m 675.51855,450.53271 c 0.28809,0 0.33301,-0.44824 0.043,-0.44824 -0.28808,0 -0.333,0.44824 -0.043,0.44824 z"
   id="path186" />
			</g>
		</g>
		<g
   id="g204">
			<g
   id="g194">
				<path
   fill="#d39f9f"
   d="m 677.55762,442.78906 c -0.002,-0.002 -0.005,-0.002 -0.007,-0.004 -0.0244,-0.0103 -0.0439,-0.0288 -0.0684,-0.0386 -0.0732,-0.0288 -0.13476,-0.0161 -0.18457,0.0156 -0.64551,0.11523 -1.68262,-0.2251 -2.2959,-0.31006 -0.83203,-0.11475 -1.66308,-0.23291 -2.49414,-0.35254 -0.12695,-0.0181 -0.22754,0.0864 -0.24511,0.20264 -0.38282,2.51904 -0.76563,5.03808 -1.14844,7.55664 -0.0186,0.12256 0.0859,0.23291 0.20215,0.2456 1.3916,0.15039 2.7832,0.30078 4.17382,0.45117 0.0283,0.003 0.0439,-0.0137 0.0674,-0.019 1.66504,0.2041 3.15234,-1.375 3.75488,-2.75635 0.72266,-1.65478 -0.0342,-4.24365 -1.75488,-4.99121 z"
   id="path192" />
			</g>
			<g
   id="g202">
				<g
   id="g200">
					<path
   fill="none"
   d="m 677.55762,442.78906 c -0.002,-0.002 -0.005,-0.002 -0.007,-0.004 -0.0244,-0.0103 -0.0439,-0.0288 -0.0684,-0.0386 -0.0732,-0.0288 -0.13476,-0.0161 -0.18457,0.0156 -0.64551,0.11523 -1.68262,-0.2251 -2.2959,-0.31006 -0.83203,-0.11475 -1.66308,-0.23291 -2.49414,-0.35254 -0.12695,-0.0181 -0.22754,0.0864 -0.24511,0.20264 -0.38282,2.51904 -0.76563,5.03808 -1.14844,7.55664 -0.0186,0.12256 0.0859,0.23291 0.20215,0.2456 1.3916,0.15039 2.7832,0.30078 4.17382,0.45117 0.0283,0.003 0.0439,-0.0137 0.0674,-0.019 1.66504,0.2041 3.15234,-1.375 3.75488,-2.75635 0.72266,-1.65478 -0.0342,-4.24365 -1.75488,-4.99121 z"
   id="path196" />
					<path
   d="m 677.68652,442.60498 c -0.083,-0.0479 -0.14453,-0.0884 -0.24316,-0.0801 -0.83789,0.0708 -1.6084,-0.14746 -2.41992,-0.29687 -0.59375,-0.10938 -2.6543,-0.85938 -2.97168,-0.004 -0.62598,1.68506 -0.60352,3.94238 -0.87403,5.72461 -0.0625,0.40527 -0.7705,2.28369 0.11719,2.37988 3.08203,0.33301 5.7627,1.20606 7.79004,-1.6582 1.37793,-1.94775 0.71094,-4.94873 -1.39844,-6.06543 -0.25293,-0.13428 -0.51465,0.23242 -0.25781,0.36816 2.22754,1.18018 2.35645,3.92774 1.02344,5.81202 -1.55371,2.19629 -4.2666,1.40283 -6.51856,1.15966 -1.01757,-0.10986 0.33204,-6.16796 0.45704,-6.99169 0.15917,-1.04346 2.85546,-0.23292 3.47753,-0.0981 0.27344,0.0596 1.33887,-0.008 1.56055,0.11816 0.25,0.14307 0.50977,-0.22412 0.25781,-0.36816 z"
   id="path198" />
				</g>
			</g>
		</g>
		<g
   id="g214">
			<path
   fill="#ffffff"
   d="M 671.26367,449.4585"
   id="path206" />
			<g
   id="g212">
				<path
   fill="none"
   d="M 671.26367,449.4585"
   id="path208" />
				<path
   d="m 671.24219,449.68262 c 0.28808,0 0.33301,-0.44825 0.043,-0.44825 -0.28809,0 -0.33301,0.44825 -0.043,0.44825 z"
   id="path210" />
			</g>
		</g>
		<g
   id="g224">
			<path
   fill="#ffffff"
   d="m 675.39453,446.70117 c -0.64551,2.41358 -2.53125,4.00733 -4.21387,3.55615 -1.68164,-0.45019 -2.51855,-2.77246 -1.87207,-5.18603 0.64649,-2.41455 2.53223,-4.00537 4.21289,-3.55615 1.68262,0.45019 2.52051,2.77148 1.87305,5.18603 z"
   id="path216" />
			<g
   id="g222">
				<path
   fill="none"
   d="m 675.39453,446.70117 c -0.64551,2.41358 -2.53125,4.00733 -4.21387,3.55615 -1.68164,-0.45019 -2.51855,-2.77246 -1.87207,-5.18603 0.64649,-2.41455 2.53223,-4.00537 4.21289,-3.55615 1.68262,0.45019 2.52051,2.77148 1.87305,5.18603 z"
   id="path218" />
				<path
   d="m 675.18359,446.62305 c -0.47168,1.51806 -1.32714,2.96045 -2.94629,3.4331 -2.54199,0.7417 -3.04296,-2.78174 -2.82812,-4.40918 0.24414,-1.84717 1.69336,-4.00488 3.72852,-3.97314 2.38281,0.0371 2.37793,3.45263 2.0332,5.00635 -0.0635,0.2832 0.38574,0.32129 0.44726,0.042 0.39063,-1.75684 0.27344,-5.00684 -2.07519,-5.43115 -2.32422,-0.41944 -3.83594,1.74462 -4.44531,3.70214 -0.61914,1.98731 -0.1377,4.6919 2.00488,5.4751 2.23633,0.81787 3.97656,-1.9956 4.50293,-3.68896 0.0859,-0.27686 -0.33594,-0.4336 -0.42188,-0.15625 z"
   id="path220" />
			</g>
		</g>
		<g
   id="g234">
			<path
   fill="#a0a0a0"
   d="m 676.82715,517.67773 c 2.53711,4.79102 6.61133,3.68799 3.11133,7.8545 -6.22852,7.41504 -0.15039,-8.08399 -1.55957,-9.77539"
   id="path226" />
			<g
   id="g232">
				<path
   fill="none"
   d="m 676.82715,517.67773 c 2.53711,4.79102 6.61133,3.68799 3.11133,7.8545 -6.22852,7.41504 -0.15039,-8.08399 -1.55957,-9.77539"
   id="path228" />
				<path
   fill="#383838"
   d="m 676.62402,517.77441 c 0.63477,1.11719 1.38477,2.12989 2.36719,2.97071 1.35156,1.15869 2.68262,1.85888 1.46191,3.75342 -0.6289,0.97753 -1.60449,2.22851 -2.68457,2.75927 -0.69433,0.34229 -0.41894,-1.66894 -0.38671,-1.94238 0.24121,-2.03027 0.77539,-4.0249 1.14453,-6.03369 0.1875,-1.02197 0.67578,-2.71485 0.0244,-3.67041 -0.16308,-0.23975 -0.50586,0.0532 -0.34375,0.29101 0.45606,0.66944 0.085,2.03028 -0.0293,2.75879 -0.21191,1.34571 -0.5166,2.67725 -0.78808,4.01123 -0.2207,1.08643 -1.20899,3.97315 -0.21192,4.9292 1.09571,1.05127 3.57325,-2.73486 3.89356,-3.23193 0.51172,-0.79492 0.59863,-1.60449 0.0361,-2.37305 -0.3164,-0.43164 -0.8291,-0.76953 -1.23828,-1.09961 -1.17969,-0.95068 -2.08789,-1.9956 -2.83887,-3.31592 -0.14257,-0.25048 -0.5498,-0.0596 -0.40625,0.19336 z"
   id="path230" />
			</g>
		</g>
		<g
   id="g244">
			<path
   fill="#a0a0a0"
   d="m 672.33398,512.69873 c 4.13868,-1.55176 10.83789,-1.74463 10.9961,0.39746 0.14746,1.99512 -6.0791,4.29981 -11.25195,5.70361"
   id="path236" />
			<g
   id="g242">
				<path
   fill="none"
   d="m 672.33398,512.69873 c 4.13868,-1.55176 10.83789,-1.74463 10.9961,0.39746 0.14746,1.99512 -6.0791,4.29981 -11.25195,5.70361"
   id="path238" />
				<path
   fill="#383838"
   d="m 672.43066,512.90186 c 1.69043,-0.59571 3.41797,-0.92969 5.19825,-1.10254 0.83789,-0.0811 6.5498,-0.32666 5.26562,1.96142 -0.7373,1.31397 -2.87793,2.03321 -4.17871,2.59326 -2.15332,0.92725 -4.4209,1.6001 -6.67676,2.22412 -0.27734,0.0767 -0.20117,0.52051 0.0781,0.44336 3.07812,-0.85156 6.16992,-1.80761 9,-3.31005 1.04297,-0.55372 2.67187,-1.51172 2.38086,-2.91016 -0.27442,-1.32275 -2.63282,-1.42969 -3.61035,-1.49707 -2.56543,-0.17725 -5.24219,0.34228 -7.6504,1.19141 -0.27343,0.0962 -0.0781,0.50195 0.19336,0.40625 z"
   id="path240" />
			</g>
		</g>
		<g
   id="g254">
			<path
   fill="#a0a0a0"
   d="m 678.39941,512.93359 c 8.44825,-1.38525 10.07911,3.94922 10.25196,-3.53808 0.16015,-6.95557 -5.04102,2.26416 -10.23242,6.24512"
   id="path246" />
			<g
   id="g252">
				<path
   fill="none"
   d="m 678.39941,512.93359 c 8.44825,-1.38525 10.07911,3.94922 10.25196,-3.53808 0.16015,-6.95557 -5.04102,2.26416 -10.23242,6.24512"
   id="path248" />
				<path
   fill="#383838"
   d="m 678.43848,513.15527 c 1.8916,-0.28076 3.74902,-0.30078 5.63672,0.005 1.02832,0.1665 2.05957,0.55273 3.10742,0.55908 1.89062,0.0117 1.65918,-3.14404 1.69238,-4.30274 0.0488,-1.68115 -0.36133,-3.55664 -2.25781,-2.2583 -1.30176,0.89063 -2.33789,2.25782 -3.38672,3.41944 -1.55957,1.72558 -3.12891,3.44384 -4.95703,4.8916 -0.22754,0.18017 0.0635,0.52295 0.29101,0.34277 2.24317,-1.77637 4.10059,-3.96142 6.02344,-6.06592 0.72656,-0.79443 1.4668,-1.58447 2.32031,-2.24463 1.84473,-1.42822 1.5127,2.3794 1.45801,3.28809 -0.0449,0.73389 -0.0469,2.01025 -0.79883,2.40869 -0.56152,0.29785 -1.59961,-0.1001 -2.16308,-0.22656 -2.35254,-0.52686 -4.65821,-0.61328 -7.04395,-0.25977 -0.28711,0.0425 -0.20801,0.48584 0.0781,0.44336 z"
   id="path250" />
			</g>
		</g>
		<g
   id="g264">
			<path
   fill="#7c6157"
   d="m 640.34863,524.73242 32.05567,-6.1958 c 3.2334,-0.53857 2.94629,-5.07129 0.26953,-5.92627 l -32.3252,12.12207"
   id="path256" />
			<g
   id="g262">
				<path
   fill="none"
   d="m 640.34863,524.73242 32.05567,-6.1958 c 3.2334,-0.53857 2.94629,-5.07129 0.26953,-5.92627 l -32.3252,12.12207"
   id="path258" />
				<path
   d="m 640.3877,524.9541 c 7.11132,-1.37451 14.22265,-2.74902 21.33398,-4.12353 3.54785,-0.68555 14.50781,-0.56202 13.01172,-6.46241 -0.39258,-1.54834 -1.69238,-2.13476 -2.99512,-1.64648 -3.57324,1.33984 -7.14551,2.67969 -10.71875,4.01953 -6.92285,2.59619 -13.84473,5.1919 -20.76758,7.78809 -0.27148,0.10156 -0.0771,0.50781 0.19336,0.40625 10.72852,-4.02295 21.45703,-8.04639 32.18555,-12.06934 0.62598,-0.23486 1.15527,5.17432 -1.19922,5.6294 -1.0625,0.20507 -2.125,0.41064 -3.1875,0.61621 -3.80566,0.73535 -7.61035,1.4707 -11.41601,2.20605 -5.50586,1.06445 -11.0127,2.12891 -16.51856,3.19287 -0.28418,0.0552 -0.20703,0.49854 0.0781,0.44336 z"
   id="path260" />
			</g>
		</g>
		<g
   id="g274">
			<path
   fill="#a0a0a0"
   d="m 674.93848,511.62305 c -3.08203,-10.29248 -1.44043,-2.29883 -1.30957,-2.93604 0.1289,-0.62451 3.64648,1.22461 3.9082,3.41065"
   id="path266" />
			<g
   id="g272">
				<path
   fill="none"
   d="m 674.93848,511.62305 c -3.08203,-10.29248 -1.44043,-2.29883 -1.30957,-2.93604 0.1289,-0.62451 3.64648,1.22461 3.9082,3.41065"
   id="path268" />
				<path
   fill="#383838"
   d="m 675.16016,511.58398 c -0.39161,-1.30468 -0.78711,-2.60839 -1.22657,-3.89794 -0.16406,-0.48096 -0.30664,-1.03809 -0.59961,-1.46241 -0.16113,-0.23242 -0.44238,-0.0962 -0.47949,0.14356 -0.0439,0.28808 0.0547,0.6333 0.1084,0.91357 0.0596,0.31104 0.18066,1.62549 0.62305,1.66699 0.11621,0.0112 0.30371,-0.18164 0.21582,-0.15429 0.33008,-0.10254 0.93554,0.30957 1.18847,0.458 1.05469,0.61866 2.12793,1.62793 2.3252,2.88526 0.0449,0.28711 0.48828,0.20801 0.44336,-0.0781 -0.26172,-1.66797 -1.90039,-3.06689 -3.42383,-3.6206 -0.28027,-0.10205 -0.81641,-0.21436 -0.9209,0.18701 0.14746,-0.56543 0.41699,0.0977 0.33301,-0.0903 -0.0186,-0.041 -0.0322,-0.084 -0.0469,-0.12647 -0.0479,-0.13818 -0.083,-0.28174 -0.11915,-0.42285 -0.0859,-0.33545 -0.1582,-0.6748 -0.21777,-1.01562 -0.0225,-0.13135 -0.042,-0.26368 -0.0566,-0.39649 -0.0391,-0.37646 -0.0859,0.22901 -0.31641,-0.0586 0.25293,0.31543 0.36133,0.85986 0.49024,1.23096 0.45215,1.29199 0.84277,2.60595 1.23633,3.9165 0.082,0.27441 0.52636,0.19971 0.44336,-0.0781 z"
   id="path270" />
			</g>
		</g>
		<g
   id="g284">
			<path
   fill="#ffffff"
   d="m 456.71826,550.26025 c 2.08008,1.67188 1.67529,5.625 -0.90039,8.83204 -2.57715,3.20751 -6.35254,4.45214 -8.43017,2.78173 -2.08008,-1.67187 -1.67823,-5.62646 0.89892,-8.83398 2.57715,-3.20508 6.35156,-4.4502 8.43164,-2.77979 z"
   id="path276" />
			<g
   id="g282">
				<path
   fill="none"
   d="m 456.71826,550.26025 c 2.08008,1.67188 1.67529,5.625 -0.90039,8.83204 -2.57715,3.20751 -6.35254,4.45214 -8.43017,2.78173 -2.08008,-1.67187 -1.67823,-5.62646 0.89892,-8.83398 2.57715,-3.20508 6.35156,-4.4502 8.43164,-2.77979 z"
   id="path278" />
				<path
   d="m 456.54687,550.40576 c 4.54151,4.271 -2.98486,13.36719 -8.22802,11.74903 -6.01758,-1.85792 2.0791,-15.93604 8.27051,-11.71045 0.23974,0.16406 0.49804,-0.20459 0.25781,-0.36817 -5.66553,-3.86719 -14.62842,7.24414 -9.63086,11.94336 2.42187,2.27783 6.61279,-0.26758 8.28955,-2.22021 2.12305,-2.47217 4.28662,-6.95508 1.38379,-9.68457 -0.2085,-0.19629 -0.55469,0.0918 -0.34278,0.29101 z"
   id="path280" />
			</g>
		</g>
	</g>
	<g
   id="Calque_7_8_">
	</g>
	<g
   id="Calque_6_8_"
   transform="translate(-48.556753,-323.00649)">
		<g
   id="g305">
			
				<linearGradient
   id="XMLID_3_"
   gradientUnits="userSpaceOnUse"
   x1="206.38916"
   y1="593.90381"
   x2="203.6474"
   y2="579.79865">
				<stop
   offset="0"
   style="stop-color:#FFEEDF"
   id="stop288" />
				<stop
   offset="0.1670284"
   style="stop-color:#F9E0D3"
   id="stop290" />
				<stop
   offset="0.482481"
   style="stop-color:#E9BBB4"
   id="stop292" />
				<stop
   offset="0.815642"
   style="stop-color:#D68E8E"
   id="stop294" />
				<a:midPointStop
   offset="0"
   style="stop-color:#FFEEDF" />
				<a:midPointStop
   offset="0.565517"
   style="stop-color:#FFEEDF" />
				<a:midPointStop
   offset="0.815642"
   style="stop-color:#D68E8E" />
			</linearGradient>
			<path
   fill="url(#XMLID_3_)"
   d="m 142.59375,596.49365 c -0.57715,0.24414 -11.76855,1.02735 -14.0918,2.14063 -2.35302,1.1289 -29.670407,13.11914 -33.613766,14.8125 -0.747071,0.32031 36.715816,-4.9668 38.123046,-5.2793 2.53662,-0.56055 172.56641,-47.43994 181.74463,-49.93066 9.17822,-2.49073 -170.08691,40.26074 -173.00732,40.67675 -2.92041,0.41602 0.84521,-2.41992 0.84521,-2.41992 z"
   id="path297"
   style="fill:url(#XMLID_3_)" />
			<g
   id="g303">
				<path
   fill="none"
   d="m 142.59375,596.49365 c -0.57715,0.24414 -11.76855,1.02735 -14.0918,2.14063 -2.35302,1.1289 -29.670407,13.11914 -33.613766,14.8125 -0.747071,0.32031 36.715816,-4.9668 38.123046,-5.2793 2.53662,-0.56055 172.56641,-47.43994 181.74463,-49.93066 9.17822,-2.49073 -170.08691,40.26074 -173.00732,40.67675 -2.92041,0.41602 0.84521,-2.41992 0.84521,-2.41992 z"
   id="path299" />
				<path
   d="m 142.55469,596.27197 c -4.45166,1.04102 -9.15332,0.69434 -13.59375,1.94727 -3.2124,0.90722 -6.39649,2.83203 -9.43994,4.17773 -5.53711,2.44727 -11.08008,4.88086 -16.625,7.31153 -1.26221,0.55273 -7.718754,2.33789 -8.223148,3.67187 -0.04883,0.12891 0.04346,0.29785 0.189453,0.30176 4.831054,0.13086 10.101565,-1.27539 14.867185,-1.93555 7.10645,-0.98437 14.21338,-1.97461 21.3086,-3.03711 5.104,-0.76367 10.10839,-2.50586 15.07421,-3.86426 28.59815,-7.82617 57.18213,-15.70507 85.76856,-23.57324 19.31152,-5.31543 38.62207,-10.63281 57.93359,-15.94824 6.25733,-1.72217 12.51465,-3.44434 18.77246,-5.16357 1.74463,-0.4795 5.18604,-0.71485 6.65528,-1.85547 0.16162,-0.125 0.0591,-0.37012 -0.12451,-0.39551 -1.1167,-0.15479 -2.8208,0.60156 -3.88868,0.84717 -3.68164,0.8457 -7.35937,1.70947 -11.03711,2.57177 -12.43115,2.91553 -24.85644,5.85596 -37.28222,8.79542 -30.11426,7.12402 -60.22266,14.27246 -90.34082,21.3789 -7.49414,1.76856 -14.98877,3.53613 -22.48828,5.28516 -2.05567,0.47949 -4.11182,0.95703 -6.17041,1.42578 -1.56543,0.35547 -3.84278,0.52344 -1.1709,-1.54785 0.22949,-0.17774 -0.062,-0.52149 -0.29102,-0.34375 -0.81543,0.63281 -1.7915,1.3164 -2.02392,2.36816 -0.0166,0.0772 0.0361,0.16211 0.0952,0.20508 1.02686,0.75195 3.42822,-0.22852 4.52149,-0.47949 3.52539,-0.80762 7.04638,-1.63379 10.56787,-2.45996 12.23535,-2.86719 24.46435,-5.76172 36.69384,-8.6543 30.18897,-7.14063 60.37256,-14.30664 90.56495,-21.43262 9.37207,-2.21191 18.74218,-4.43408 28.12597,-6.59717 0.99268,-0.229 1.98535,-0.45654 2.97949,-0.67822 0.50245,-0.11181 1.20459,-0.71289 0.97608,-0.64306 -1.86817,0.56835 -3.77393,1.03418 -5.65625,1.55126 -25.83399,7.09571 -51.66016,14.21778 -77.49024,21.32715 -28.58642,7.86817 -57.17041,15.7461 -85.76855,23.57325 -4.96729,1.35937 -9.96973,3.09375 -15.07422,3.86425 -7.09375,1.07227 -14.20264,2.05078 -21.30859,3.03711 -3.40918,0.47364 -6.81934,0.94043 -10.231937,1.3916 -1.083984,0.14356 -2.168457,0.28321 -3.254394,0.41407 -1.229981,0.14941 -1.224609,0.56152 -0.09424,0.0713 8.484381,-3.67969 16.945801,-7.41407 25.403321,-11.15528 2.67334,-1.18164 5.3999,-2.75097 8.22315,-3.54785 4.20605,-1.1875 8.71289,-0.77441 12.93554,-1.76172 0.28125,-0.0654 0.20459,-0.50976 -0.0781,-0.44336 z"
   id="path301" />
			</g>
		</g>
	</g>
	<g
   id="Calque_5_8_"
   transform="translate(-48.556753,-323.00649)">
		<g
   id="g376">
			<g
   id="g316">
				<path
   fill="#ffffff"
   d="m 388.26611,546.45068 c 0,-9.13281 8.40039,-16.53613 18.7627,-16.53613 10.36133,0 18.76269,7.40332 18.76269,16.53613 0,9.13282 -8.40136,16.53711 -18.76269,16.53711 -10.36231,0 -18.7627,-7.40429 -18.7627,-16.53711 z"
   id="path308" />
				<g
   id="g314">
					<path
   fill="none"
   d="m 388.26611,546.45068 c 0,-9.13281 8.40039,-16.53613 18.7627,-16.53613 10.36133,0 18.76269,7.40332 18.76269,16.53613 0,9.13282 -8.40136,16.53711 -18.76269,16.53711 -10.36231,0 -18.7627,-7.40429 -18.7627,-16.53711 z"
   id="path310" />
					<path
   d="m 388.49023,546.47217 c 0.90772,-20.77832 34.33985,-21.65283 37.02344,-1.2749 1.38428,10.51464 -9.30908,17.25586 -18.46387,17.5664 -9.458,0.3208 -18.14453,-6.79248 -18.56201,-16.35205 -0.0127,-0.28906 -0.45556,-0.20752 -0.44336,0.0781 0.95655,21.90136 37.01465,21.8789 37.97119,-0.0176 0.44678,-10.23242 -9.95214,-16.47559 -18.96582,-16.78174 -9.67724,-0.32813 -18.58056,6.96289 -19.00781,16.73877 -0.0127,0.28955 0.43555,0.33252 0.44824,0.043 z"
   id="path312" />
				</g>
			</g>
			<g
   id="g324">
				<g
   id="g322">
					<path
   fill="none"
   d="m 404.73193,548.72803 c 0,-2.99512 2.75537,-5.42334 6.15381,-5.42334 3.39844,0 6.15381,2.42822 6.15381,5.42334 0,2.99609 -2.75537,5.42383 -6.15381,5.42383 -3.39844,0 -6.15381,-2.42774 -6.15381,-5.42383 z"
   id="path318" />
					<path
   d="m 404.95605,548.74951 c 0.43018,-6.57519 10.57032,-6.92139 11.82032,-0.61474 1.37646,6.94091 -11.34229,7.89502 -11.82276,0.55419 -0.019,-0.28955 -0.46191,-0.208 -0.44336,0.0781 0.48194,7.36133 12.27344,7.31738 12.75342,-0.0176 0.48242,-7.37207 -12.2749,-7.39111 -12.75586,-0.043 -0.019,0.29004 0.4292,0.33203 0.44824,0.043 z"
   id="path320" />
				</g>
			</g>
			<g
   id="g332">
				<g
   id="g330">
					<path
   fill="none"
   d="m 425.42139,544.56201 c -1.09619,2.8291 -9.37989,4.88867 -18.6128,4.88867 -9.23291,0 -17.5166,-2.05957 -18.61279,-4.88867"
   id="path326" />
					<path
   d="m 425.2373,544.43311 c -2.79199,4.94824 -13.65576,4.72363 -18.40771,4.79394 -4.81885,0.0713 -15.65625,0.15527 -18.43066,-4.76172 -0.14161,-0.25097 -0.54932,-0.0601 -0.40625,0.19336 2.95459,5.23731 13.90869,4.94336 18.79492,5.01563 4.92676,0.0732 15.8916,0.2041 18.81787,-4.9834 0.1416,-0.25049 -0.22559,-0.51074 -0.36817,-0.25781 z"
   id="path328" />
				</g>
			</g>
			<g
   id="g340">
				<g
   id="g338">
					<path
   fill="none"
   d="m 396.13916,547.63281 c 0,-6.01953 5.53711,-10.89941 12.3667,-10.89941 6.82959,0 12.36719,4.87988 12.36719,10.89941 0,6.01905 -5.5376,10.8999 -12.36719,10.8999 -6.82959,0 -12.3667,-4.88085 -12.3667,-10.8999 z"
   id="path334" />
					<path
   d="m 396.36328,547.65381 c 0.88233,-13.47705 21.64356,-14.17334 24.20508,-1.25293 2.82519,14.25195 -23.22315,16.23047 -24.20752,1.19287 -0.019,-0.28955 -0.46191,-0.20801 -0.44336,0.0781 0.95166,14.53759 24.23096,14.47119 25.17969,-0.0181 0.95019,-14.51807 -24.23438,-14.52149 -25.18213,-0.042 -0.019,0.28906 0.4292,0.33154 0.44824,0.042 z"
   id="path336" />
				</g>
			</g>
			<g
   id="g348">
				<g
   id="g346">
					<path
   fill="none"
   d="m 406.12939,529.74805 c 3.62305,1.07422 6.23291,8.42382 6.23291,16.53613 0,8.11279 -2.60986,15.4624 -6.23291,16.53662"
   id="path342" />
					<path
   d="m 406.05127,529.95898 c 5.49072,2.3418 5.97314,11.31153 6.08691,16.3042 0.11475,5.01465 -0.75195,14.07129 -6.10547,16.3545 -0.2666,0.11328 -0.0732,0.5205 0.19336,0.40625 5.6919,-2.42774 6.24268,-11.55762 6.36036,-16.71875 0.11767,-5.15332 -0.79395,-14.38623 -6.37891,-16.76807 -0.26758,-0.11426 -0.42188,0.30859 -0.15625,0.42187 z"
   id="path344" />
				</g>
			</g>
			<g
   id="g356">
				<g
   id="g354">
					<path
   fill="none"
   d="m 418.27881,559.32568 c 0.24219,-3.22851 -6.70313,-14.0332 -11.61963,-18.21728 -7.02051,-5.97266 -13.88135,-8.05518 -15.16357,-4.02881"
   id="path350" />
					<path
   d="m 418.50293,559.34717 c -0.18945,-6.22266 -6.78564,-13.63184 -10.92041,-17.70899 -2.62061,-2.58349 -13.33496,-11.00683 -16.29785,-4.63672 -0.12305,0.26368 0.30078,0.417 0.42187,0.15625 3.3252,-7.14892 16.15186,5.18604 18.70459,8.25391 2.91114,3.49756 7.49658,9.06836 7.64356,13.89258 0.009,0.28711 0.45703,0.33203 0.44824,0.043 z"
   id="path352" />
				</g>
			</g>
			<g
   id="g364">
				<g
   id="g362">
					<path
   fill="none"
   d="m 394.3833,558.7417 c 4.85889,0.14062 13.2793,-4.68164 19.46289,-10.99121 6.45117,-6.58399 4.68262,-14.29981 4.68262,-14.29981"
   id="path358" />
					<path
   d="m 394.3623,558.96533 c 7.50342,-0.24316 14.54883,-6.0459 19.6294,-11.04346 3.66504,-3.60449 5.82178,-9.37841 4.75879,-14.51025 -0.0591,-0.28369 -0.50195,-0.20605 -0.44336,0.0781 0.95312,4.60058 -0.81592,9.24218 -3.5293,12.88623 -4.22656,5.67529 -13.10547,11.90478 -20.37353,12.14209 -0.28614,0.009 -0.33155,0.45703 -0.042,0.44726 z"
   id="path360" />
				</g>
			</g>
			<g
   id="g374">
				<path
   fill="#ffffff"
   d="m 414.25391,548.93799 c 0,1.17285 -1.07471,2.12402 -2.40088,2.12402 -1.32569,0 -2.40039,-0.95117 -2.40039,-2.12402 0,-1.17334 1.0747,-2.12403 2.40039,-2.12403 1.32617,0 2.40088,0.95069 2.40088,2.12403 z"
   id="path366" />
				<g
   id="g372">
					<path
   fill="none"
   d="m 414.25391,548.93799 c 0,1.17285 -1.07471,2.12402 -2.40088,2.12402 -1.32569,0 -2.40039,-0.95117 -2.40039,-2.12402 0,-1.17334 1.0747,-2.12403 2.40039,-2.12403 1.32617,0 2.40088,0.95069 2.40088,2.12403 z"
   id="path368" />
					<path
   d="m 414.02979,548.9165 c -0.15723,2.41407 -3.88086,2.55079 -4.33936,0.23047 -0.50098,-2.53613 4.16602,-2.87109 4.3418,-0.16992 0.019,0.28906 0.46191,0.20801 0.44336,-0.0781 -0.19776,-3.03614 -5.04981,-3.00489 -5.24707,0.0176 -0.19971,3.06446 5.05029,3.09375 5.24951,0.043 0.019,-0.29004 -0.4292,-0.33203 -0.44824,-0.043 z"
   id="path370" />
				</g>
			</g>
		</g>
		<g
   id="g450">
			<g
   id="g386">
				<path
   fill="#ffffff"
   d="m 604.44043,462.66943 c 4.80859,0.81885 10.97363,0.0176 13.77637,-1.78906 2.80468,-1.80566 1.17968,-3.93359 -3.62696,-4.75195 -4.7998,-0.81738 -10.96875,-0.0176 -13.76953,1.78857 -2.80371,1.80615 -1.17969,3.9336 3.62012,4.75244 z"
   id="path378" />
				<g
   id="g384">
					<path
   fill="none"
   d="m 604.44043,462.66943 c 4.80859,0.81885 10.97363,0.0176 13.77637,-1.78906 2.80468,-1.80566 1.17968,-3.93359 -3.62696,-4.75195 -4.7998,-0.81738 -10.96875,-0.0176 -13.76953,1.78857 -2.80371,1.80615 -1.17969,3.9336 3.62012,4.75244 z"
   id="path380" />
					<path
   d="m 604.41895,462.89355 c 4.45898,0.64112 11.60742,0.89063 14.98242,-2.76367 2.29785,-2.48828 -3.57325,-3.97802 -4.79004,-4.22558 -4.31738,-0.87842 -11.72852,-0.7544 -14.97559,2.76318 -2.2959,2.48731 3.56446,3.97754 4.78321,4.22607 0.28515,0.0581 0.32324,-0.39111 0.043,-0.44824 -0.62988,-0.12842 -6.62988,-1.16455 -4.10546,-3.89941 1.07324,-1.16309 3.13769,-1.57715 4.57714,-1.92969 3.13086,-0.7666 6.46485,-0.71924 9.63477,-0.26367 0.65918,0.0947 6.59766,1.20801 4.1123,3.89892 -1.07324,1.16309 -3.13867,1.57764 -4.57714,1.93018 -3.13379,0.76807 -6.46973,0.71973 -9.64161,0.26367 -0.28808,-0.0415 -0.32812,0.40723 -0.043,0.44824 z"
   id="path382" />
				</g>
			</g>
			<g
   id="g396">
				<path
   fill="#ffffff"
   d="m 605.45215,459.99805 c 3.92676,0.63525 8.96191,0.0132 11.25,-1.3877 2.29101,-1.40234 0.96289,-3.05371 -2.95996,-3.68896 -3.92188,-0.63477 -8.95801,-0.0137 -11.24707,1.38867 -2.28907,1.40088 -0.96289,3.05224 2.95703,3.68799 z"
   id="path388" />
				<g
   id="g394">
					<path
   fill="none"
   d="m 605.45215,459.99805 c 3.92676,0.63525 8.96191,0.0132 11.25,-1.3877 2.29101,-1.40234 0.96289,-3.05371 -2.95996,-3.68896 -3.92188,-0.63477 -8.95801,-0.0137 -11.24707,1.38867 -2.28907,1.40088 -0.96289,3.05224 2.95703,3.68799 z"
   id="path390" />
					<path
   d="m 605.43066,460.22217 c 3.63477,0.49609 9.45508,0.7373 12.26563,-2.15625 1.94141,-1.99854 -2.99707,-3.1875 -3.93262,-3.36865 -3.52344,-0.68164 -9.55176,-0.63282 -12.26172,2.15673 -1.94043,1.99707 2.99317,3.18653 3.92871,3.36817 0.28516,0.0552 0.32422,-0.39356 0.043,-0.44824 -0.33008,-0.064 -5.33789,-0.8711 -3.33008,-2.9375 0.88575,-0.91211 2.55665,-1.21631 3.71875,-1.48682 2.55958,-0.5957 5.27051,-0.55811 7.8584,-0.2041 0.34766,0.0474 5.32129,0.89209 3.33399,2.93799 -0.88574,0.91211 -2.55762,1.21582 -3.71875,1.48632 -2.56055,0.5962 -5.27246,0.55811 -7.86231,0.20411 -0.28906,-0.0391 -0.3291,0.40918 -0.043,0.44824 z"
   id="path392" />
				</g>
			</g>
			<g
   id="g406">
				<path
   fill="#ffffff"
   d="m 606.60937,457.47559 c 2.45704,0.36718 5.60743,0.006 7.04004,-0.80518 1.42969,-0.81299 0.60352,-1.77051 -1.85546,-2.13721 -2.45313,-0.36865 -5.60547,-0.009 -7.03711,0.80371 -1.43067,0.8125 -0.60157,1.76954 1.85253,2.13868 z"
   id="path398" />
				<g
   id="g404">
					<path
   fill="none"
   d="m 606.60937,457.47559 c 2.45704,0.36718 5.60743,0.006 7.04004,-0.80518 1.42969,-0.81299 0.60352,-1.77051 -1.85546,-2.13721 -2.45313,-0.36865 -5.60547,-0.009 -7.03711,0.80371 -1.43067,0.8125 -0.60157,1.76954 1.85253,2.13868 z"
   id="path400" />
					<path
   d="m 606.58789,457.69971 c 2.28516,0.28808 5.91895,0.46484 7.73731,-1.27295 1.32324,-1.26563 -1.92481,-2.01319 -2.50977,-2.11768 -2.21973,-0.39599 -5.97461,-0.40918 -7.73438,1.271 -1.32324,1.26416 1.92188,2.01416 2.50684,2.11963 0.28613,0.0513 0.32617,-0.39746 0.043,-0.44825 -0.25977,-0.0464 -3.15723,-0.46923 -2.03906,-1.5371 0.55566,-0.53174 1.5791,-0.68848 2.28613,-0.84082 1.59961,-0.34473 3.28027,-0.32129 4.89453,-0.11622 0.27051,0.0342 3.15137,0.4751 2.04199,1.53565 -0.55566,0.53125 -1.58007,0.68799 -2.28613,0.84033 -1.60059,0.34473 -3.28223,0.32227 -4.89746,0.11816 -0.28906,-0.0361 -0.33008,0.41211 -0.043,0.44825 z"
   id="path402" />
				</g>
			</g>
			<g
   id="g414">
				<g
   id="g412">
					<path
   fill="none"
   d="m 603.93262,462.5542 c 0.3584,-1.20703 1.25586,-7.5791 6.54883,-8.11572"
   id="path408" />
					<path
   d="m 604.14355,462.63232 c 0.98731,-3.53662 2.1211,-7.41064 6.37696,-7.97216 0.28808,-0.0381 0.20898,-0.48096 -0.0781,-0.44336 -4.41211,0.58252 -5.68652,4.55175 -6.7207,8.25927 -0.0781,0.27832 0.34375,0.43555 0.42187,0.15625 z"
   id="path410" />
				</g>
			</g>
			<g
   id="g422">
				<g
   id="g420">
					<path
   fill="none"
   d="m 617.9502,460.9585 c -0.64454,-1.69727 -4.61133,-6.44825 -10.69727,-6.38038"
   id="path416" />
					<path
   d="m 618.15332,460.86182 c -1.71973,-4.06495 -6.70703,-6.4375 -10.87891,-6.50782 -0.28906,-0.005 -0.333,0.44336 -0.043,0.44825 4.01562,0.0674 8.85449,2.32519 10.51562,6.25293 0.11328,0.26709 0.51953,0.0737 0.40625,-0.19336 z"
   id="path418" />
				</g>
			</g>
			<g
   id="g430">
				<g
   id="g428">
					<path
   fill="none"
   d="m 611.12695,462.7627 c 0,-1.66504 0.0928,-6.86622 -1.75195,-8.39307"
   id="path424" />
					<path
   d="m 611.35059,462.78369 c 0.004,-2.63769 0.29199,-6.58008 -1.80372,-8.55957 -0.20898,-0.19678 -0.55468,0.0918 -0.34375,0.29102 1.9834,1.87304 1.70313,5.72754 1.7002,8.22656 -9.8e-4,0.28809 0.44727,0.33203 0.44727,0.042 z"
   id="path426" />
				</g>
			</g>
			<g
   id="g438">
				<g
   id="g436">
					<path
   fill="none"
   d="m 599.7832,460.26562 c 1.01367,-2.01171 4.98145,-5.41015 9.03711,-5.75732"
   id="path432" />
					<path
   d="m 599.96777,460.39453 c 1.7041,-3.08154 5.47168,-5.25683 8.8916,-5.66455 0.28809,-0.0347 0.20899,-0.47754 -0.0781,-0.44336 -3.53027,0.4209 -7.4248,2.67285 -9.18262,5.8501 -0.13867,0.25146 0.22852,0.51221 0.36914,0.25781 z"
   id="path434" />
				</g>
			</g>
			<g
   id="g448">
				<path
   fill="#ffffff"
   d="m 610.16602,454.4209 c -0.96387,-0.14502 -2.19239,-0.004 -2.75196,0.3125 -0.55957,0.31738 -0.23144,0.69092 0.72656,0.83545 0.96387,0.14404 2.19336,0.004 2.75489,-0.31348 0.55957,-0.31543 0.23144,-0.69092 -0.72949,-0.83447 z"
   id="path440" />
				<g
   id="g446">
					<path
   fill="none"
   d="m 610.16602,454.4209 c -0.96387,-0.14502 -2.19239,-0.004 -2.75196,0.3125 -0.55957,0.31738 -0.23144,0.69092 0.72656,0.83545 0.96387,0.14404 2.19336,0.004 2.75489,-0.31348 0.55957,-0.31543 0.23144,-0.69092 -0.72949,-0.83447 z"
   id="path442" />
					<path
   d="m 610.1875,454.19678 c -0.92969,-0.11817 -2.3877,-0.17871 -3.12598,0.52685 -0.65136,0.62354 0.69336,1.00342 1.05762,1.06934 0.90332,0.1626 2.41406,0.15381 3.12891,-0.52735 0.65429,-0.62304 -0.69727,-1.0039 -1.06055,-1.06884 -0.28613,-0.0513 -0.32617,0.39746 -0.043,0.44824 0,0 0.95215,0.14404 0.72656,0.35889 -0.19922,0.19043 -0.57617,0.24267 -0.8291,0.29736 -0.61523,0.13232 -1.25976,0.12207 -1.87988,0.0435 -0.002,0 -0.94922,-0.14405 -0.72363,-0.35938 0.19922,-0.19043 0.57422,-0.24316 0.82714,-0.29736 0.61524,-0.13233 1.25879,-0.12207 1.87891,-0.043 0.28906,0.0366 0.33008,-0.41162 0.043,-0.44824 z"
   id="path444" />
				</g>
			</g>
		</g>
		<g
   id="g518">
			<g
   id="g460">
				<path
   fill="#ffffff"
   d="m 250.71875,528.36621 c 0,-4.92578 4.53125,-8.91797 10.11914,-8.91797 5.58789,0 10.11816,3.99219 10.11816,8.91797 0,4.92481 -4.53027,8.91797 -10.11816,8.91797 -5.58789,0 -10.11914,-3.99316 -10.11914,-8.91797 z"
   id="path452" />
				<g
   id="g458">
					<path
   fill="none"
   d="m 250.71875,528.36621 c 0,-4.92578 4.53125,-8.91797 10.11914,-8.91797 5.58789,0 10.11816,3.99219 10.11816,8.91797 0,4.92481 -4.53027,8.91797 -10.11816,8.91797 -5.58789,0 -10.11914,-3.99316 -10.11914,-8.91797 z"
   id="path454" />
					<path
   d="m 250.94238,528.3877 c 0.71875,-10.9795 17.6377,-11.54981 19.72364,-1.02247 2.30078,11.60694 -18.92383,13.21289 -19.72559,0.96192 -0.0186,-0.28955 -0.46191,-0.20801 -0.44336,0.0781 0.78223,11.93994 19.9043,11.88233 20.68262,-0.0176 0.78125,-11.93311 -19.90625,-11.94141 -20.68457,-0.043 -0.0195,0.29004 0.42871,0.33203 0.44726,0.043 z"
   id="path456" />
				</g>
			</g>
			<g
   id="g468">
				<g
   id="g466">
					<path
   fill="none"
   d="m 259.59961,529.59375 c 0,-1.61523 1.48535,-2.9248 3.31836,-2.9248 1.83203,0 3.31836,1.30957 3.31836,2.9248 0,1.61523 -1.48633,2.92578 -3.31836,2.92578 -1.83301,0 -3.31836,-1.31055 -3.31836,-2.92578 z"
   id="path462" />
					<path
   d="m 259.82324,529.61523 c 0.22461,-3.42578 5.5166,-3.61181 6.16895,-0.32324 0.71484,3.60498 -5.91992,4.09278 -6.1709,0.2627 -0.0186,-0.28955 -0.46192,-0.20801 -0.44336,0.0781 0.26758,4.08789 6.81543,4.05323 7.08203,-0.0176 0.26953,-4.11035 -6.81641,-4.13769 -7.08398,-0.043 -0.0195,0.29003 0.42871,0.33203 0.44726,0.043 z"
   id="path464" />
				</g>
			</g>
			<g
   id="g476">
				<g
   id="g474">
					<path
   fill="none"
   d="m 270.75684,527.41016 c -0.5918,1.52539 -5.0586,2.63574 -10.03809,2.63574 -4.97852,0 -9.44629,-1.11035 -10.03711,-2.63574"
   id="path470" />
					<path
   d="m 270.57227,527.28125 c -1.69043,2.58691 -7.22559,2.48291 -9.83204,2.54053 -2.77343,0.0615 -8.2041,0.0205 -9.88671,-2.55713 -0.15821,-0.24219 -0.5,0.0508 -0.34375,0.29101 1.83398,2.80811 7.37793,2.65235 10.1875,2.71436 2.90625,0.064 8.40918,0.0762 10.24414,-2.73096 0.1582,-0.24267 -0.20996,-0.50146 -0.36914,-0.25781 z"
   id="path472" />
				</g>
			</g>
			<g
   id="g484">
				<g
   id="g482">
					<path
   fill="none"
   d="m 254.96484,529.00391 c 0,-3.24707 2.98633,-5.87891 6.66993,-5.87891 3.68261,0 6.66894,2.63184 6.66894,5.87891 0,3.24511 -2.98633,5.87695 -6.66894,5.87695 -3.6836,0 -6.66993,-2.63184 -6.66993,-5.87695 z"
   id="path478" />
					<path
   d="m 255.18848,529.02539 c 0.46875,-7.14893 11.49023,-7.5249 12.84863,-0.66797 1.49609,7.54688 -12.32813,8.58496 -12.85059,0.60742 -0.0186,-0.28955 -0.46191,-0.208 -0.44336,0.0781 0.52149,7.95508 13.26563,7.90967 13.78418,-0.0176 0.52246,-7.96631 -13.2666,-7.98437 -13.78613,-0.043 -0.0195,0.29004 0.42871,0.33203 0.44727,0.043 z"
   id="path480" />
				</g>
			</g>
			<g
   id="g492">
				<g
   id="g490">
					<path
   fill="none"
   d="m 260.38086,519.6123 c 1.9541,0.57911 3.33301,4.28907 3.33301,8.66407 0,4.375 -1.40723,8.33886 -3.36133,8.91797"
   id="path486" />
					<path
   d="m 260.30273,519.82324 c 4.6211,2.08496 4.55372,15.04297 -0.0469,17.16797 -0.2627,0.12158 -0.0703,0.52832 0.19336,0.40625 5.01269,-2.31543 5.11621,-15.69287 0.01,-17.99609 -0.26562,-0.11963 -0.41894,0.30322 -0.15625,0.42187 z"
   id="path488" />
				</g>
			</g>
			<g
   id="g500">
				<g
   id="g498">
					<path
   fill="none"
   d="m 266.5459,535.64209 c 1.01758,-2.74316 -2.95606,-7.29248 -6.02832,-9.90674 -3.78711,-3.22168 -7.48633,-4.34473 -8.17774,-2.17285"
   id="path494" />
					<path
   d="m 266.75684,535.72021 c 1.24902,-4.99414 -12.08887,-17.69726 -14.62793,-12.23584 -0.12305,0.26368 0.30078,0.41749 0.42187,0.15625 2.07129,-4.45458 14.91992,7.38477 13.78418,11.92334 -0.0703,0.27881 0.35156,0.4375 0.42188,0.15625 z"
   id="path496" />
				</g>
			</g>
			<g
   id="g508">
				<g
   id="g506">
					<path
   fill="none"
   d="m 254.01562,534.92773 c 2.6211,0.0771 7.16211,-2.52343 10.4961,-5.92675 3.47851,-3.55078 4.85937,-7.16309 2.74121,-8.00489"
   id="path502" />
					<path
   d="m 253.99414,535.15186 c 4.39941,-0.14112 8.53516,-3.7085 11.37598,-6.74024 1.35058,-1.44189 4.96679,-5.96484 2.01172,-7.59961 -0.25098,-0.13916 -0.51172,0.22803 -0.25782,0.36817 3.54102,1.95947 -3.37793,8.30224 -4.74023,9.4663 -2.22461,1.90186 -5.31348,3.95997 -8.34668,4.05713 -0.28711,0.009 -0.33203,0.45752 -0.043,0.44825 z"
   id="path504" />
				</g>
			</g>
			<g
   id="g516">
				<g
   id="g514">
					<path
   fill="none"
   d="m 264.73437,529.70801 c 0,0.63183 -0.58007,1.14453 -1.29492,1.14453 -0.71484,0 -1.29492,-0.5127 -1.29492,-1.14453 0,-0.63379 0.58008,-1.14649 1.29492,-1.14649 0.71485,0 1.29492,0.5127 1.29492,1.14649 z"
   id="path510" />
					<path
   d="m 264.51074,529.68652 c -0.0772,1.18067 -1.91113,1.25391 -2.13574,0.11573 -0.24316,-1.2295 2.05078,-1.3833 2.1377,-0.0552 0.0186,0.28955 0.46191,0.20801 0.44335,-0.0781 -0.11425,-1.75586 -2.92187,-1.72852 -3.03515,0.0176 -0.11719,1.78614 2.92187,1.81934 3.03711,0.043 0.0195,-0.29004 -0.42871,-0.33203 -0.44727,-0.043 z"
   id="path512" />
				</g>
			</g>
		</g>
	</g>
	<g
   id="Calque_4_8_"
   transform="translate(-48.556753,-323.00649)">
		<g
   id="g527">
			<g
   id="g525">
				<path
   fill="none"
   d="m 490.5166,518.60156 c 0.4082,2.24073 0.6211,4.53809 0.6211,6.87891 0,10.01758 -3.89356,19.24023 -10.42823,26.57666 -6.53564,7.33691 -15.71289,12.7876 -26.28418,15.25879"
   id="path521" />
				<path
   d="m 490.29492,518.64062 c 3.79102,23.80958 -13.79101,42.93653 -35.90869,48.45362 -0.27978,0.0698 -0.20361,0.51367 0.0781,0.44336 22.37353,-5.58106 40.10205,-24.93213 36.27392,-48.9751 -0.0459,-0.28662 -0.48926,-0.20801 -0.44336,0.0781 z"
   id="path523" />
			</g>
		</g>
		<g
   id="g535">
			<g
   id="g533">
				<path
   fill="none"
   d="m 431.6665,484.59912 c 1.63233,-0.29004 3.29444,-0.51123 4.98096,-0.66016 1.68652,-0.14843 3.39893,-0.2246 5.13086,-0.2246 13.7085,0 26.12061,4.77343 35.10547,12.49023 5.46631,4.69482 11.6875,12.81201 13.70605,22.00488"
   id="path529" />
				<path
   d="m 431.70557,484.8208 c 24.3125,-3.95264 52.31152,7.77881 58.66259,33.42774 0.0693,0.28027 0.5127,0.20361 0.44336,-0.0781 -6.4082,-25.87842 -34.61132,-37.78809 -59.18408,-33.79297 -0.28662,0.0469 -0.20801,0.48975 0.0781,0.44336 z"
   id="path531" />
			</g>
		</g>
		<g
   id="g543">
			<g
   id="g541">
				<path
   fill="none"
   d="M 495.07031,555.07373"
   id="path537" />
				<path
   d="m 495.04883,555.29785 c 0.28808,0 0.33301,-0.44824 0.043,-0.44824 -0.28809,0 -0.33301,0.44824 -0.043,0.44824 z"
   id="path539" />
			</g>
		</g>
		<g
   id="g551">
			<g
   id="g549">
				<path
   fill="none"
   d="m 488.36133,474.56494 c 1.89551,-0.19971 4.75097,-0.31738 6.70898,-0.31738 25.9834,0 47.04981,18.09424 47.04981,40.41162 0,19.18115 -15.57715,35.56055 -36.44434,39.69824"
   id="path545" />
				<path
   d="m 488.40039,474.78662 c 22.01856,-1.95166 46.09863,8.3457 52.39258,31.16211 6.5,23.56641 -13.61719,43.59668 -35.15625,48.18701 -0.2832,0.0605 -0.20606,0.50391 0.0781,0.44336 22.417,-4.77783 41.23438,-24.729 35.52149,-48.70849 -5.52735,-23.19581 -31.28028,-33.44483 -52.91406,-31.52735 -0.28907,0.0259 -0.20899,0.46875 0.0781,0.44336 z"
   id="path547" />
			</g>
		</g>
		<g
   id="g559">
			<g
   id="g557">
				<path
   fill="none"
   d="M 503.33398,503.41016"
   id="path553" />
				<path
   d="m 503.3125,503.63428 c 0.28809,0 0.33301,-0.44824 0.043,-0.44824 -0.28809,0 -0.33301,0.44824 -0.043,0.44824 z"
   id="path555" />
			</g>
		</g>
		<g
   id="g567">
			<g
   id="g565">
				<path
   fill="none"
   d="M 546.04297,540.09521"
   id="path561" />
				<path
   d="m 546.02148,540.31934 c 0.28809,0 0.33301,-0.44825 0.043,-0.44825 -0.28808,0 -0.333,0.44825 -0.043,0.44825 z"
   id="path563" />
			</g>
		</g>
		<g
   id="g575">
			<g
   id="g573">
				<path
   fill="none"
   d="m 536.18848,467.19873 c 2.78027,-0.48877 6.90625,-0.47119 9.85449,-0.47119 23.58594,0 42.70898,16.4248 42.70898,36.68262 0,17.69238 -14.42578,31.05078 -33.88281,36.48925"
   id="path569" />
				<path
   d="m 536.22754,467.42041 c 20.72851,-2.9458 44.49805,5.77979 51.0791,27.27393 6.87891,22.47021 -13.11328,39.33789 -32.47656,44.98339 -0.27539,0.0806 -0.2002,0.52442 0.0781,0.44336 20.26758,-5.90918 38.90137,-22.56738 32.84082,-45.50488 -5.79004,-21.9165 -31.27636,-30.52734 -51.59961,-27.63916 -0.28808,0.041 -0.20898,0.48389 0.0781,0.44336 z"
   id="path571" />
			</g>
		</g>
		<g
   id="g583">
			<g
   id="g581">
				<path
   fill="none"
   d="M 539.33203,495.80273"
   id="path577" />
				<path
   d="m 539.31055,496.02686 c 0.28808,0 0.333,-0.44825 0.043,-0.44825 -0.28809,0 -0.33301,0.44825 -0.043,0.44825 z"
   id="path579" />
			</g>
		</g>
		<g
   id="g591">
			<g
   id="g589">
				<path
   fill="none"
   d="M 578.51465,529.45947"
   id="path585" />
				<path
   d="m 578.49316,529.68359 c 0.28809,0 0.33301,-0.44824 0.043,-0.44824 -0.28808,0 -0.33301,0.44824 -0.043,0.44824 z"
   id="path587" />
			</g>
		</g>
		<g
   id="g599">
			<g
   id="g597">
				<path
   fill="none"
   d="m 569.45117,462.74072 c 2.9668,-0.36474 6.10059,-0.59228 9.06348,-0.59228 21.63965,0 39.18262,15.06885 39.18262,33.65429 0,26.3169 -31.27442,34.36084 -29.11133,33.58301"
   id="path593" />
				<path
   d="m 569.49023,462.9624 c 13.90235,-1.56006 27.43555,0.75244 38.00293,10.49756 8.71094,8.03223 11.95996,20.27393 8.57032,31.55957 -3.74707,12.47412 -16.81055,20.45215 -27.38086,24.56934 0.2705,-0.10498 0.0762,-0.51123 -0.19336,-0.40625 -0.0381,0.01 -0.0742,0.0259 -0.10742,0.0474 -0.18653,0.11035 -0.15723,0.39941 0.0762,0.42725 1.03125,0.12256 2.70996,-0.83643 3.60937,-1.18653 3.11524,-1.21191 6.15137,-2.75732 8.95313,-4.5791 7.49707,-4.87549 14.12402,-11.94092 16.08105,-20.93213 2.53125,-11.63183 -1.56445,-22.68945 -10.21875,-30.67041 -10.20508,-9.41064 -24.20703,-11.25781 -37.4707,-9.77002 -0.28906,0.0322 -0.20899,0.47559 0.0781,0.44336 z"
   id="path595" />
			</g>
		</g>
		<g
   id="g607">
			<g
   id="g605">
				<path
   fill="none"
   d="M 606.99902,521.03857"
   id="path601" />
				<path
   d="m 606.97754,521.2627 c 0.28808,0 0.33301,-0.44825 0.043,-0.44825 -0.28809,0 -0.33301,0.44825 -0.043,0.44825 z"
   id="path603" />
			</g>
		</g>
		<g
   id="g615">
			<g
   id="g613">
				<path
   fill="none"
   d="m 619.40332,460.50195 c 13.21094,4.68799 23.76367,16.45801 23.76367,29.46973 0,15.21582 -12.57324,25.57275 -29.39551,30.97705"
   id="path609" />
				<path
   d="m 619.3252,460.71289 c 14.11816,5.31738 25.8496,18.37207 23.13769,34.26367 -2.375,13.91406 -16.64551,21.73633 -28.78809,25.76905 -0.27441,0.0908 -0.0791,0.49658 0.19336,0.40625 13.21582,-4.38916 26.72461,-12.55323 29.25098,-27.35352 2.6377,-15.45361 -10.28418,-28.47852 -23.63769,-33.50732 -0.27247,-0.10254 -0.42774,0.31982 -0.15625,0.42187 z"
   id="path611" />
			</g>
		</g>
		<g
   id="g623">
			<g
   id="g621">
				<path
   fill="none"
   d="M 570.83203,489.97168"
   id="path617" />
				<path
   d="m 570.81055,490.1958 c 0.28808,0 0.333,-0.44824 0.043,-0.44824 -0.28809,0 -0.33301,0.44824 -0.043,0.44824 z"
   id="path619" />
			</g>
		</g>
		<g
   id="g631">
			<g
   id="g629">
				<path
   fill="none"
   d="M 599.33008,483.73535"
   id="path625" />
				<path
   d="m 599.30859,483.95947 c 0.28809,0 0.33301,-0.44824 0.043,-0.44824 -0.28808,0 -0.33301,0.44824 -0.043,0.44824 z"
   id="path627" />
			</g>
		</g>
		<g
   id="g639">
			<g
   id="g637">
				<path
   fill="none"
   d="M 631.74121,511.57568"
   id="path633" />
				<path
   d="m 631.71973,511.7998 c 0.28808,0 0.333,-0.44824 0.043,-0.44824 -0.28809,0 -0.33301,0.44824 -0.043,0.44824 z"
   id="path635" />
			</g>
		</g>
		<g
   id="g647">
			<g
   id="g645">
				<path
   fill="none"
   d="m 624.99609,456.12256 c 2.09961,-0.22803 4.667,-0.2251 6.74512,-0.2251 17.89844,0 32.41113,12.46484 32.41113,27.83789 0,12.68897 -9.86621,24.10938 -23.38086,27.46338"
   id="path641" />
				<path
   d="m 625.03516,456.34424 c 15.14941,-1.20801 31.2041,3.73584 37.34961,18.92041 6.49218,16.04053 -6.72461,31.65283 -21.65235,35.7124 -0.27734,0.0757 -0.20215,0.51953 0.0781,0.44336 15.38574,-4.18457 27.17187,-18.84033 22.40527,-35.12402 -4.78613,-16.3545 -23.1709,-21.59864 -38.25879,-20.39551 -0.28906,0.0234 -0.20898,0.46631 0.0781,0.44336 z"
   id="path643" />
			</g>
		</g>
		<g
   id="g655">
			<g
   id="g653">
				<path
   fill="none"
   d="M 623.33008,479.55225"
   id="path649" />
				<path
   d="m 623.30859,479.77637 c 0.28809,0 0.33301,-0.44825 0.043,-0.44825 -0.28808,0 -0.33301,0.44825 -0.043,0.44825 z"
   id="path651" />
			</g>
		</g>
		<g
   id="g663">
			<g
   id="g661">
				<path
   fill="none"
   d="m 649.36719,453.6582 c 1.05566,-0.0977 2.65722,-0.1372 3.74316,-0.1372 16.4082,0 29.64649,11.9375 29.64649,26.03125 0,14.09619 -13.41016,24.47998 -29.81836,24.47998"
   id="path657" />
				<path
   d="m 649.40625,453.87988 c 15.00293,-0.98877 30.70801,7.14014 32.98535,23.17481 2.3877,16.81201 -15.03418,26.47754 -29.43164,26.75342 -0.28711,0.005 -0.33203,0.45361 -0.043,0.44824 14.26367,-0.27344 31.43457,-9.47461 30.02539,-26.01807 -1.44336,-16.94824 -17.97168,-25.83252 -33.61426,-24.80176 -0.28906,0.0191 -0.208,0.46241 0.0781,0.44336 z"
   id="path659" />
			</g>
		</g>
		<g
   id="g671">
			<g
   id="g669">
				<path
   fill="none"
   d="M 649.33008,473.51123"
   id="path665" />
				<path
   d="m 649.30859,473.73535 c 0.28809,0 0.33301,-0.44824 0.043,-0.44824 -0.28808,0 -0.33301,0.44824 -0.043,0.44824 z"
   id="path667" />
			</g>
		</g>
		<g
   id="g679">
			<g
   id="g677">
				<path
   fill="none"
   d="m 670.22559,451.69531 c 1.41503,-0.13672 3.43652,-0.18261 4.74609,-0.18261 14.08301,0 25.36035,9.90283 25.36035,21.99853 0,12.09717 -11.41797,21.9043 -25.50098,21.9043"
   id="path673" />
				<path
   d="m 670.26465,451.91699 c 12.72949,-0.95068 26.27051,4.22754 29.46777,17.83057 3.51563,14.95605 -11.84668,25.1206 -24.87988,25.44385 -0.28711,0.007 -0.33203,0.45556 -0.043,0.44824 12.49902,-0.31006 27.12891,-9.17139 25.70117,-23.45459 -1.53125,-15.3208 -16.55762,-21.73926 -30.32422,-20.71143 -0.28906,0.022 -0.208,0.46485 0.0781,0.44336 z"
   id="path675" />
			</g>
		</g>
		<g
   id="g687">
			<g
   id="g685">
				<path
   fill="none"
   d="M 671.83008,468.33838"
   id="path681" />
				<path
   d="m 671.80859,468.5625 c 0.28809,0 0.33301,-0.44824 0.043,-0.44824 -0.28808,0 -0.33301,0.44824 -0.043,0.44824 z"
   id="path683" />
			</g>
		</g>
		<g
   id="g695">
			<g
   id="g693">
				<path
   fill="none"
   d="m 689.98242,450.12451 c 1.07813,-0.14306 2.18262,-0.21728 3.30762,-0.21728 11.85058,0 21.45898,8.25293 21.45898,18.43115 0,10.18017 -9.60839,18.43359 -21.45898,18.43359"
   id="path689" />
				<path
   d="m 690.02148,450.34619 c 10.70704,-1.06201 22.06934,4.20654 24.31055,15.53027 2.44043,12.33594 -10.38965,20.36377 -21.02051,20.67139 -0.28711,0.008 -0.33203,0.45654 -0.043,0.44824 11.22168,-0.3247 22.13184,-7.73974 21.65528,-19.89843 -0.48633,-12.39209 -14.33008,-18.25098 -24.98047,-17.19483 -0.28906,0.0288 -0.20899,0.47168 0.0781,0.44336 z"
   id="path691" />
			</g>
		</g>
		<g
   id="g703">
			<g
   id="g701">
				<path
   fill="none"
   d="M 692.33008,463.65967"
   id="path697" />
				<path
   d="m 692.30859,463.88379 c 0.28809,0 0.33301,-0.44824 0.043,-0.44824 -0.28808,0 -0.33301,0.44824 -0.043,0.44824 z"
   id="path699" />
			</g>
		</g>
		<g
   id="g711">
			<g
   id="g709">
				<path
   fill="none"
   d="m 707.18848,448.74023 c 0.91601,-0.0415 1.46582,0 2.16601,0 9.41016,0 17.05762,6.83643 17.05762,14.91944 0,8.08349 -7.63086,14.63769 -17.04102,14.63769"
   id="path705" />
				<path
   d="m 707.16699,448.96436 c 8.39942,-0.11231 16.58008,3.42138 18.77637,12.22998 2.49414,10.00439 -8.04492,16.56787 -16.55078,16.8789 -0.28613,0.0103 -0.33203,0.4585 -0.043,0.44824 8.00684,-0.29248 17.74414,-5.62109 17.28418,-14.90087 -0.51465,-10.38233 -10.03418,-15.22998 -19.42383,-15.1045 -0.28809,0.004 -0.33203,0.45215 -0.043,0.44825 z"
   id="path707" />
			</g>
		</g>
		<g
   id="g719">
			<g
   id="g717">
				<path
   fill="none"
   d="M 714.83008,458.22266"
   id="path713" />
				<path
   d="m 714.80859,458.44678 c 0.28809,0 0.33204,-0.44824 0.043,-0.44824 -0.28808,0 -0.33203,0.44824 -0.043,0.44824 z"
   id="path715" />
			</g>
		</g>
		<g
   id="g727">
			<g
   id="g725">
				<path
   fill="none"
   d="m 725.89355,447.58936 c 0.45801,-0.0439 0.92286,-0.0664 1.39356,-0.0664 6.87891,0 12.45703,4.79053 12.45703,10.69971 0,5.90918 -5.57812,10.70019 -12.45703,10.70019"
   id="path721" />
				<path
   d="m 725.93262,447.81104 c 6.23437,-0.29737 12.35644,2.77685 13.52539,9.35693 1.25586,7.06445 -6.31153,11.27734 -12.20996,11.5332 -0.28907,0.0127 -0.20703,0.45557 0.0781,0.44336 5.82031,-0.25244 13.04004,-4.14941 12.63965,-10.96094 -0.43652,-7.42187 -7.26855,-11.14209 -14.11133,-10.81591 -0.28906,0.0137 -0.20801,0.45703 0.0781,0.44336 z"
   id="path723" />
			</g>
		</g>
		<g
   id="g735">
			<g
   id="g733">
				<path
   fill="none"
   d="M 736.33008,453.89062"
   id="path729" />
				<path
   d="m 736.30859,454.11475 c 0.28809,0 0.33204,-0.44825 0.043,-0.44825 -0.28808,0 -0.33203,0.44825 -0.043,0.44825 z"
   id="path731" />
			</g>
		</g>
		<g
   id="g743">
			<g
   id="g741">
				<path
   fill="none"
   d="m 742.92187,446.72168 c 0.6377,-0.12988 1.30274,-0.19873 1.98633,-0.19873 4.73633,0 8.57813,3.29883 8.57813,7.36767 0,4.06885 -3.8418,7.36817 -8.57813,7.36817"
   id="path737" />
				<path
   d="m 742.96094,446.94336 c 4.53515,-0.68799 9.38769,1.32861 10.25976,6.23291 0.85742,4.82715 -4.33008,7.68652 -8.35156,7.86084 -0.28906,0.0127 -0.20703,0.45557 0.0781,0.44336 4.73925,-0.20557 9.01562,-3.30127 8.71679,-8.38233 -0.30761,-5.21679 -6.47168,-7.25195 -10.78125,-6.59814 -0.28711,0.0435 -0.20801,0.48682 0.0781,0.44336 z"
   id="path739" />
			</g>
		</g>
	</g>
	<g
   id="Calque_3_7_"
   transform="translate(-48.556753,-323.00649)">
		<g
   id="g767">
			
				<linearGradient
   id="XMLID_4_"
   gradientUnits="userSpaceOnUse"
   x1="625.74219"
   y1="516.98975"
   x2="618.17932"
   y2="478.08221">
				<stop
   offset="0"
   style="stop-color:#FFEEDF"
   id="stop746" />
				<stop
   offset="0.1761376"
   style="stop-color:#FDEADB"
   id="stop748" />
				<stop
   offset="0.3664222"
   style="stop-color:#F8DDD0"
   id="stop750" />
				<stop
   offset="0.563296"
   style="stop-color:#EEC7BE"
   id="stop752" />
				<stop
   offset="0.7633951"
   style="stop-color:#E2A9A5"
   id="stop754" />
				<stop
   offset="0.910614"
   style="stop-color:#D68E8E"
   id="stop756" />
				<a:midPointStop
   offset="0"
   style="stop-color:#FFEEDF" />
				<a:midPointStop
   offset="0.691358"
   style="stop-color:#FFEEDF" />
				<a:midPointStop
   offset="0.910614"
   style="stop-color:#D68E8E" />
			</linearGradient>
			<path
   fill="url(#XMLID_4_)"
   d="m 784.13379,445.82471 c -1.9082,0.33496 -18.8291,3.7334 -24.15234,4.79834 -48.13965,9.62402 -242.98926,59.01513 -303.08545,72.68701 -23.6543,5.38135 165.51806,-18.92334 251.33447,-22.35401 17.72266,-0.708 19.6416,-21.5913 75.64551,-54.91064"
   id="path759"
   style="fill:url(#XMLID_4_)" />
			<g
   id="g765">
				<path
   fill="none"
   d="m 784.13379,445.82471 c -1.9082,0.33496 -18.8291,3.7334 -24.15234,4.79834 -48.13965,9.62402 -242.98926,59.01513 -303.08545,72.68701 -23.6543,5.38135 165.51806,-18.92334 251.33447,-22.35401 17.72266,-0.708 19.6416,-21.5913 75.64551,-54.91064"
   id="path761" />
				<path
   d="m 784.09473,445.60303 c -27.47266,5.00146 -54.6709,11.45654 -81.8252,17.92529 -39.31445,9.3667 -78.55762,19.03564 -117.80762,28.67334 -35.86328,8.80664 -71.71191,17.68018 -107.63867,26.22314 -6.04053,1.43604 -12.08398,2.85791 -18.13574,4.24561 -0.30908,0.0713 -3.95898,0.47217 -4.04443,1.27295 -0.0855,0.79785 11.7666,-0.40137 12.47265,-0.46729 71.51709,-6.6665 142.76514,-15.95605 214.45264,-20.81787 9.52441,-0.64599 19.33691,-0.45459 28.79687,-1.66748 5.37989,-0.68994 9.76075,-4.03955 13.66895,-7.56201 6.52148,-5.87793 12.54199,-12.2749 19.1416,-18.07812 12.57227,-11.05518 26.45117,-20.51514 40.79688,-29.10206 0.24609,-0.14746 0.0566,-0.55566 -0.19336,-0.40625 -18.91993,11.32471 -36.44141,24.31202 -52.22754,39.71583 -3.94922,3.85449 -7.78418,7.93505 -12.2627,11.18994 -4.27051,3.10302 -8.66015,3.87744 -13.82226,4.10058 -38.40918,1.66211 -76.74805,5.49658 -114.99121,9.30811 -35.89356,3.57715 -71.74317,7.56738 -107.62159,11.29541 -8.67773,0.90185 -17.41113,2.04394 -26.13574,2.38965 -2.18945,0.0864 -1.67236,0.125 0.2168,-0.31006 5.84863,-1.34717 11.69482,-2.7041 17.53515,-4.08692 75.04053,-17.7705 149.77588,-36.81396 224.78174,-54.73437 28.18067,-6.73291 56.40528,-13.47266 84.9209,-18.66406 0.28516,-0.0522 0.20703,-0.49512 -0.0781,-0.44336 z"
   id="path763" />
			</g>
		</g>
	</g>
	<g
   id="Calque_2_8_"
   transform="translate(-48.556753,-323.00649)">
		<g
   id="g778">
			<g
   id="g776">
				<g
   id="g774">
					<path
   fill="none"
   d="m 325.88721,509.03271 c 0.4497,-0.12158 9.39306,-12.2998 9.9497,-12.44384 23.65528,-6.1167 145.69336,-32.80518 215.07129,-39.21143 1.0127,-0.0937 16.71094,5.67822 17.70215,5.59326"
   id="path770" />
					<path
   d="m 326.03271,509.2041 c 1.85303,-1.44531 3.25147,-4.01123 4.66553,-5.85449 1.64795,-2.14746 3.63916,-6.15088 6.38477,-6.84766 5.11719,-1.29785 10.26416,-2.48095 15.41015,-3.65869 17.5625,-4.01904 35.1919,-7.75097 52.84473,-11.35205 44.38721,-9.05371 89.08203,-17.55908 134.11426,-22.7041 3.08496,-0.35205 6.17285,-0.67383 9.26367,-0.97705 2.71094,-0.26563 4.6748,0.4541 7.22559,1.30322 3.95214,1.31592 8.46875,3.7168 12.64746,4.08154 0.29004,0.0254 0.33105,-0.42285 0.043,-0.44824 -5.95411,-0.51904 -11.65918,-4.35791 -17.52247,-5.57861 -3.33496,-0.69434 -8.34667,0.79541 -11.73535,1.17627 -5.35937,0.60205 -10.70996,1.28369 -16.05566,1.99853 -22.8418,3.05518 -45.57568,6.92139 -68.24365,11.05811 -37.42432,6.82959 -74.7959,14.33496 -111.8125,23.13037 -1.91407,0.45459 -6.58741,0.69531 -7.93408,2.22314 -3.23536,3.67286 -5.73877,9.10499 -9.58643,12.10694 -0.229,0.17822 0.0625,0.52148 0.29101,0.34277 z"
   id="path772" />
				</g>
			</g>
		</g>
		<g
   id="g786">
			<g
   id="g784">
				<path
   fill="none"
   d="m 349.25049,493.58105 -1.4292,8.82374 24.93164,0.32666 1.74658,-8.66016"
   id="path780" />
				<path
   d="m 349.02637,493.56006 c -0.47657,2.94092 -0.95264,5.88232 -1.4292,8.82324 -0.0186,0.11426 0.0859,0.24414 0.20312,0.24561 8.31055,0.10888 16.6211,0.21777 24.93164,0.32666 0.13282,10e-4 0.21924,-0.0752 0.24512,-0.20313 0.58203,-2.88672 1.16455,-5.77344 1.74658,-8.66015 0.0571,-0.28467 -0.3916,-0.32325 -0.44824,-0.042 -0.31348,1.5542 -1.28223,8.45996 -1.94287,8.45117 -4.00781,-0.0522 -8.01611,-0.10498 -12.02441,-0.15722 -4.00782,-0.0527 -8.01612,-0.10498 -12.02393,-0.15772 -0.54492,-0.007 0.14844,-2.15234 0.32373,-3.23339 0.28906,-1.7837 0.57764,-3.56739 0.8667,-5.35108 0.0464,-0.28711 -0.40186,-0.32666 -0.44824,-0.042 z"
   id="path782" />
			</g>
		</g>
		<g
   id="g796">
			<g
   id="g794">
				<g
   id="g792">
					<path
   fill="none"
   d="m 353.71582,508.73047 c 0.44971,-0.12158 9.39307,-12.29981 9.94971,-12.44385 23.65527,-6.1167 145.69287,-32.80517 215.06982,-39.21142 1.01367,-0.0937 16.31543,6.12402 17.30762,6.03906"
   id="path788" />
					<path
   d="m 353.86133,508.90186 c 1.85303,-1.44532 3.25146,-4.01124 4.66601,-5.8545 1.64746,-2.14746 3.63868,-6.15136 6.38428,-6.84765 5.11719,-1.29785 10.26416,-2.48096 15.41016,-3.65869 17.5625,-4.01905 35.19189,-7.75098 52.84424,-11.35206 44.3872,-9.05371 89.08203,-17.55908 134.11328,-22.7041 3.08496,-0.35205 6.17285,-0.67382 9.26367,-0.97656 2.82324,-0.27734 4.81836,0.57813 7.42969,1.54199 3.73339,1.37793 8.05761,3.875 12.04882,4.28809 0.28907,0.0298 0.33106,-0.41846 0.043,-0.44824 -5.98925,-0.62012 -11.31054,-5.4585 -17.30761,-6.03907 -3.98243,-0.38574 -8.77344,0.87305 -12.74903,1.32715 -5.38867,0.61573 -10.76758,1.30908 -16.1416,2.03565 -22.87988,3.09228 -45.65234,6.98095 -68.35937,11.14013 -37.15723,6.80616 -74.27149,14.2544 -111.02149,23.01905 -1.79736,0.42871 -6.06201,0.64209 -7.32861,2.0791 -3.23535,3.67285 -5.73877,9.10498 -9.58643,12.10693 -0.229,0.17822 0.0625,0.52149 0.29102,0.34278 z"
   id="path790" />
				</g>
			</g>
		</g>
		<g
   id="g804">
			<g
   id="g802">
				<path
   fill="none"
   d="m 381.7666,485.81201 -1.4292,8.82373 24.93164,0.32666 1.74658,-8.66015"
   id="path798" />
				<path
   d="m 381.54248,485.79102 c -0.47656,2.94091 -0.95264,5.88232 -1.4292,8.82324 -0.0185,0.11426 0.0859,0.24414 0.20313,0.2456 8.31054,0.10889 16.62109,0.21778 24.93164,0.32666 0.13281,0.001 0.21924,-0.0752 0.24511,-0.20312 0.58204,-2.88672 1.16455,-5.77344 1.74659,-8.66016 0.0576,-0.28467 -0.39161,-0.32324 -0.44825,-0.042 -0.31347,1.5542 -1.28222,8.45996 -1.94287,8.45117 -4.0083,-0.0522 -8.01611,-0.10498 -12.02441,-0.15722 -4.00781,-0.0527 -8.01611,-0.10499 -12.02393,-0.15772 -0.54492,-0.007 0.14844,-2.15234 0.32373,-3.2334 0.28907,-1.78369 0.57764,-3.56738 0.8667,-5.35107 0.0464,-0.28711 -0.40185,-0.32666 -0.44824,-0.042 z"
   id="path800" />
			</g>
		</g>
		<g
   id="g812">
			<g
   id="g810">
				<path
   fill="none"
   d="m 414.01465,479.3623 -1.4292,8.82374 24.93164,0.32666 1.74658,-8.66016"
   id="path806" />
				<path
   d="m 413.79053,479.34131 c -0.47657,2.94092 -0.95264,5.88232 -1.4292,8.82324 -0.0186,0.11426 0.0859,0.24414 0.20312,0.24561 8.31055,0.10888 16.6211,0.21777 24.93164,0.32666 0.13282,10e-4 0.21924,-0.0752 0.24512,-0.20313 0.58203,-2.88672 1.16455,-5.77344 1.74658,-8.66015 0.0576,-0.28467 -0.3916,-0.32325 -0.44824,-0.042 -0.31348,1.5542 -1.28223,8.45996 -1.94287,8.45117 -4.0083,-0.0522 -8.01611,-0.10498 -12.02441,-0.15722 -4.00782,-0.0527 -8.01612,-0.10498 -12.02393,-0.15772 -0.54492,-0.007 0.14844,-2.15234 0.32373,-3.23339 0.28906,-1.7837 0.57764,-3.56739 0.8667,-5.35108 0.0464,-0.28711 -0.40186,-0.32666 -0.44824,-0.042 z"
   id="path808" />
			</g>
		</g>
		<g
   id="g820">
			<g
   id="g818">
				<path
   fill="none"
   d="m 447.74414,472.97412 -1.4292,8.82373 24.93164,0.32666 1.74707,-8.66015"
   id="path814" />
				<path
   d="m 447.52002,472.95312 c -0.47656,2.94092 -0.95264,5.88233 -1.4292,8.82325 -0.0186,0.11425 0.0859,0.24414 0.20264,0.2456 8.31054,0.10889 16.62109,0.21778 24.93164,0.32666 0.13281,10e-4 0.21972,-0.0752 0.24511,-0.20312 0.58301,-2.88672 1.16504,-5.77344 1.74708,-8.66016 0.0576,-0.28467 -0.39063,-0.32324 -0.44727,-0.042 -0.31445,1.5542 -1.2832,8.45996 -1.94434,8.45117 -4.00781,-0.0522 -8.01562,-0.10498 -12.02343,-0.15723 -4.00782,-0.0527 -8.01661,-0.10498 -12.02442,-0.15771 -0.54492,-0.007 0.14844,-2.15234 0.32373,-3.2334 0.28906,-1.78369 0.57764,-3.56738 0.8667,-5.35107 0.0464,-0.28711 -0.40185,-0.32666 -0.44824,-0.042 z"
   id="path816" />
			</g>
		</g>
		<g
   id="g828">
			<g
   id="g826">
				<path
   fill="none"
   d="m 481.02393,466.78271 -1.4292,8.82374 24.93164,0.32666 1.74707,-8.66016"
   id="path822" />
				<path
   d="m 480.7998,466.76172 c -0.47656,2.94092 -0.95263,5.88232 -1.42919,8.82324 -0.0186,0.11426 0.0859,0.24414 0.20263,0.24561 8.31055,0.10888 16.6211,0.21777 24.93164,0.32666 0.13282,10e-4 0.21973,-0.0752 0.24512,-0.20313 0.58301,-2.88672 1.16504,-5.77344 1.74707,-8.66015 0.0576,-0.28467 -0.39062,-0.32325 -0.44727,-0.042 -0.31445,1.5542 -1.2832,8.45996 -1.94433,8.45118 -4.00781,-0.0523 -8.01563,-0.10499 -12.02344,-0.15723 -4.00781,-0.0527 -8.0166,-0.10498 -12.02441,-0.15772 -0.54492,-0.007 0.14843,-2.15234 0.32373,-3.23339 0.28906,-1.7837 0.57763,-3.56739 0.8667,-5.35108 0.0464,-0.28711 -0.40186,-0.32666 -0.44825,-0.042 z"
   id="path824" />
			</g>
		</g>
		<g
   id="g836">
			<g
   id="g834">
				<path
   fill="none"
   d="m 510.69336,462.39697 -1.42969,8.82373 24.93164,0.32666 1.74707,-8.66015"
   id="path830" />
				<path
   d="m 510.46875,462.37598 c -0.47656,2.94091 -0.95313,5.88232 -1.42969,8.82324 -0.0176,0.11426 0.0859,0.24414 0.20313,0.2456 8.31054,0.10889 16.62109,0.21778 24.93164,0.32666 0.13281,10e-4 0.21972,-0.0752 0.24512,-0.20312 0.583,-2.88672 1.16503,-5.77344 1.74707,-8.66016 0.0576,-0.28466 -0.39063,-0.32324 -0.44727,-0.042 -0.31445,1.5542 -1.2832,8.45996 -1.94434,8.45117 -4.00781,-0.0522 -8.01562,-0.10498 -12.02343,-0.15722 -4.00782,-0.0527 -8.01661,-0.10498 -12.02442,-0.15772 -0.54492,-0.007 0.14844,-2.15234 0.32422,-3.2334 0.28906,-1.78369 0.57715,-3.56738 0.86621,-5.35107 0.0459,-0.28711 -0.40137,-0.32666 -0.44824,-0.042 z"
   id="path832" />
			</g>
		</g>
		<g
   id="g844">
			<g
   id="g842">
				<path
   fill="none"
   d="m 542.94141,457.75293 -1.42969,8.82373 24.93164,0.32666 1.74707,-8.66016"
   id="path838" />
				<path
   d="m 542.7168,457.73193 c -0.47657,2.94092 -0.95313,5.88233 -1.42969,8.82325 -0.0176,0.11425 0.0859,0.24414 0.20312,0.2456 8.31055,0.10889 16.6211,0.21777 24.93164,0.32666 0.13282,0.001 0.21973,-0.0752 0.24512,-0.20312 0.58301,-2.88672 1.16504,-5.77344 1.74707,-8.66016 0.0576,-0.28467 -0.39062,-0.32324 -0.44726,-0.042 -0.31446,1.5542 -1.28321,8.45996 -1.94434,8.45117 -4.00781,-0.0523 -8.01562,-0.10498 -12.02344,-0.15723 -4.00781,-0.0527 -8.0166,-0.10498 -12.02441,-0.15771 -0.54492,-0.007 0.14844,-2.15235 0.32422,-3.2334 0.28906,-1.78369 0.57715,-3.56738 0.86621,-5.35107 0.0459,-0.28711 -0.40137,-0.32666 -0.44824,-0.042 z"
   id="path840" />
			</g>
		</g>
	</g>
	<g
   id="Calque_1_7_"
   transform="translate(-48.556753,-323.00649)">
		<g
   id="g855">
			<g
   id="g853">
				<g
   id="g851">
					<path
   fill="none"
   d="m 328.4043,547.34766 3.21093,-0.61573 7.23438,7.84278 V 547.479 c 0,-0.75488 -0.0811,-1.21093 -0.24707,-1.36718 -0.21777,-0.21143 -0.5625,-0.27246 -1.03467,-0.18213 l -0.41601,0.0801 v -0.33985 l 4.16406,-0.79883 v 0.33985 l -0.42432,0.0815 c -0.5083,0.0972 -0.86719,0.32373 -1.08008,0.67822 -0.1289,0.21875 -0.19336,0.67237 -0.19336,1.36133 v 10.41504 l -0.31494,0.0601 -7.80224,-8.44971 v 7.61133 c 0,0.75537 0.0791,1.21143 0.23925,1.36816 0.22364,0.21094 0.56836,0.27149 1.03321,0.18311 l 0.42529,-0.0815 v 0.33935 l -4.16406,0.79834 v -0.33984 l 0.41699,-0.0791 c 0.51221,-0.0982 0.87402,-0.3252 1.08789,-0.68067 0.12793,-0.21777 0.19385,-0.67138 0.19385,-1.36133 v -8.58837 c -0.34375,-0.35401 -0.60352,-0.58057 -0.78125,-0.68018 -0.17676,-0.0991 -0.43799,-0.17432 -0.78027,-0.2251 -0.16944,-0.022 -0.42481,0 -0.76758,0.0659 v -0.33984 z"
   id="path847" />
					<path
   d="m 328.44336,547.56934 c 0.48291,-0.0928 2.99658,-0.6958 3.02734,-0.6626 0.69385,0.75244 1.38819,1.50488 2.08203,2.25732 1.7085,1.85205 3.417,3.7041 5.12549,5.55615 0.12012,0.13086 0.39551,0.0835 0.39551,-0.12402 0,-1.80664 0,-3.61328 0,-5.41992 0,-1.14307 0.38086,-2.90088 -0.81494,-3.47949 -0.3833,-0.18555 -1.35547,0.25 -0.70508,0.125 1.146,-0.21973 2.29248,-0.43946 3.43848,-0.65967 0.53515,-0.10254 -0.56787,-0.13232 -0.89698,0.20117 -0.63281,0.64209 -0.70117,1.03809 -0.70117,1.98926 0,2.01025 0,4.02002 0,6.03027 0,1.13428 0,2.26905 0,3.40381 0,0.48584 0.13477,0.93311 -0.0186,0.76709 -2.56787,-2.78027 -5.13526,-5.56103 -7.70313,-8.3418 -0.12011,-0.13037 -0.3955,-0.0835 -0.3955,0.12452 0,2.85302 -0.12452,5.73193 0.062,8.58007 0.0532,0.81202 1.63574,1.15088 1.63574,0.67041 0,0.24219 -3.71582,0.44873 -3.71582,0.84034 0,0.0664 1.20361,-0.55372 0.99414,-0.34229 0.64844,-0.65576 0.6499,-0.99268 0.70459,-1.94873 0.0811,-1.42139 0,-2.87061 0,-4.29395 0,-1.43164 0,-2.86279 0,-4.29394 0,-0.95606 -2.3291,-1.18115 -2.3291,-1.17969 0,-0.28808 -0.44824,-0.33203 -0.44824,-0.042 0,0.11328 0,0.22656 0,0.33984 0,0.1543 0.10839,0.25586 0.26318,0.24268 3.10205,-0.2666 2.06592,3.52978 2.06592,5.47461 0,1.38672 0.61572,5.22705 -1.51367,5.63086 -0.0913,0.0176 -0.18506,0.10058 -0.18506,0.20068 0,0.11328 0,0.22656 0,0.33985 0,0.14209 0.10888,0.27197 0.26318,0.24267 1.38818,-0.26611 2.77588,-0.53223 4.16406,-0.79834 0.0913,-0.0176 0.18506,-0.10058 0.18506,-0.20019 0,-0.11328 0,-0.22657 0,-0.33985 0,-0.14209 -0.10889,-0.27197 -0.26318,-0.24267 -2.13916,0.41015 -1.43457,-5.72559 -1.43457,-6.69385 0,-0.45068 0,-0.90186 0,-1.35254 0,-0.9165 -0.0562,-0.2998 -0.37012,-0.63965 0.44775,0.48486 0.89502,0.96973 1.34277,1.45459 1.68848,1.82813 3.37696,3.65674 5.06543,5.48535 0.51123,0.55371 1.05762,1.65723 1.89405,1.49805 0.0913,-0.0176 0.18506,-0.10059 0.18506,-0.20068 0,-1.83204 0,-3.66407 0,-5.49659 0,-1.45166 -0.7837,-6.39746 1.51269,-6.83886 0.0913,-0.0176 0.18506,-0.10059 0.18506,-0.20069 0,-0.11328 0,-0.22656 0,-0.33984 0,-0.14209 -0.10889,-0.27197 -0.26318,-0.24268 -1.38819,0.26661 -2.77588,0.53272 -4.16407,0.79883 -0.0913,0.0176 -0.18506,0.10059 -0.18506,0.20069 0,0.11328 0,0.22656 0,0.33984 0,0.14209 0.10889,0.27246 0.26319,0.24268 2.15771,-0.41553 1.43457,6.09423 1.43457,7.10644 0,0.33203 0,0.66406 0,0.99609 0,0.25147 0.50488,0.21338 0.16455,-0.15576 -0.74707,-0.80957 -1.49414,-1.61963 -2.24121,-2.4292 -1.55225,-1.6831 -3.10449,-3.36572 -4.65674,-5.04834 -0.58252,-0.63183 -2.77344,0.28077 -3.52686,0.4253 -0.28466,0.0547 -0.20703,0.49804 0.0781,0.44336 z"
   id="path849" />
				</g>
			</g>
		</g>
	</g>
</svg>
