<svg xmlns="http://www.w3.org/2000/svg" xmlns:xlink="http://www.w3.org/1999/xlink" width="40" zoomAndPan="magnify" viewBox="0 0 30 30.000001" height="40" preserveAspectRatio="xMidYMid meet" version="1.0"><defs><clipPath id="0237a8a916"><path d="M 0.484375 0 L 29.515625 0 L 29.515625 29.03125 L 0.484375 29.03125 Z M 0.484375 0 " clip-rule="nonzero"/></clipPath></defs><path fill="#ffffff" d="M 21.382812 11.324219 C 21.382812 11.324219 21.605469 15.960938 18.070312 18.820312 C 12.796875 23.101562 7.113281 19.628906 7.113281 19.628906 C 7.113281 19.628906 8.492188 19.652344 9.71875 19.320312 C 10.941406 18.992188 11.808594 18.210938 11.808594 18.210938 C 11.808594 18.210938 10.476562 17.929688 9.789062 17.425781 C 9.09375 16.925781 8.835938 15.960938 8.835938 15.960938 C 8.835938 15.960938 9.289062 15.996094 9.582031 15.996094 C 9.875 15.984375 10.230469 15.847656 10.230469 15.847656 C 10.230469 15.847656 9.277344 15.738281 8.382812 14.734375 C 7.6875 13.953125 7.734375 12.644531 7.734375 12.644531 C 7.734375 12.644531 8.152344 12.890625 8.382812 12.949219 C 8.605469 13.011719 9.03125 13.011719 9.03125 13.011719 C 9.03125 13.011719 8.199219 12.511719 7.820312 11.238281 C 7.453125 9.953125 8.164062 8.660156 8.164062 8.660156 C 8.164062 8.660156 9.386719 10.148438 11.234375 11.117188 C 13.078125 12.082031 14.816406 12.046875 14.816406 12.046875 C 14.816406 12.046875 14.558594 11.273438 15 10.148438 C 15.441406 9.011719 16.441406 8.207031 17.960938 8.082031 C 19.476562 7.960938 20.441406 9.109375 20.441406 9.109375 C 20.441406 9.109375 20.90625 9.023438 21.445312 8.828125 C 21.984375 8.632812 22.507812 8.390625 22.507812 8.390625 C 22.507812 8.390625 22.324219 8.964844 21.957031 9.417969 C 21.589844 9.867188 21.175781 10.136719 21.175781 10.136719 C 21.175781 10.136719 21.652344 10.101562 22.128906 9.96875 C 22.605469 9.832031 22.875 9.699219 22.875 9.699219 C 22.351562 10.628906 21.382812 11.324219 21.382812 11.324219 Z M 21.382812 11.324219 " fill-opacity="1" fill-rule="nonzero"/><g clip-path="url(#0237a8a916)"><path fill="#ffffff" d="M 15 29.03125 C 7.003906 29.03125 0.484375 22.527344 0.484375 14.515625 C 0.484375 6.507812 7.003906 0 15 0 C 22.996094 0 29.515625 6.519531 29.515625 14.515625 C 29.515625 22.515625 23.011719 29.03125 15 29.03125 Z M 15 0.792969 C 7.429688 0.792969 1.277344 6.945312 1.277344 14.515625 C 1.277344 22.085938 7.429688 28.238281 15 28.238281 C 22.570312 28.238281 28.722656 22.085938 28.722656 14.515625 C 28.722656 6.945312 22.570312 0.792969 15 0.792969 Z M 15 0.792969 " fill-opacity="1" fill-rule="nonzero"/></g></svg>