<svg xmlns="http://www.w3.org/2000/svg" xmlns:xlink="http://www.w3.org/1999/xlink" width="40" zoomAndPan="magnify" viewBox="0 0 30 30.000001" height="40" preserveAspectRatio="xMidYMid meet" version="1.0"><defs><clipPath id="feac9f0bf5"><path d="M 0.484375 0 L 29.515625 0 L 29.515625 29.03125 L 0.484375 29.03125 Z M 0.484375 0 " clip-rule="nonzero"/></clipPath></defs><g clip-path="url(#feac9f0bf5)"><path fill="#ffffff" d="M 15 0 C 6.984375 0 0.484375 6.5 0.484375 14.515625 C 0.484375 22.53125 6.984375 29.03125 15 29.03125 C 23.015625 29.03125 29.515625 22.53125 29.515625 14.515625 C 29.507812 6.503906 23.015625 0.0078125 15 0 Z M 24.726562 23.507812 C 23.605469 22.816406 22.410156 22.253906 21.164062 21.824219 C 22.03125 19.699219 22.503906 17.4375 22.5625 15.148438 L 28.238281 15.148438 C 28.089844 18.261719 26.847656 21.222656 24.726562 23.507812 Z M 1.761719 15.148438 L 7.4375 15.148438 C 7.496094 17.4375 7.96875 19.699219 8.835938 21.824219 C 7.589844 22.253906 6.394531 22.816406 5.273438 23.503906 C 3.152344 21.222656 1.910156 18.261719 1.761719 15.148438 Z M 5.273438 5.523438 C 6.394531 6.214844 7.589844 6.777344 8.835938 7.207031 C 7.96875 9.332031 7.496094 11.59375 7.4375 13.886719 L 1.761719 13.886719 C 1.910156 10.769531 3.152344 7.808594 5.273438 5.523438 Z M 14.367188 6.921875 C 13.101562 6.886719 11.84375 6.714844 10.613281 6.414062 C 11.554688 4.5625 12.828125 2.902344 14.367188 1.511719 Z M 14.367188 8.183594 L 14.367188 13.886719 L 8.703125 13.886719 C 8.765625 11.714844 9.230469 9.578125 10.070312 7.578125 C 11.476562 7.945312 12.917969 8.148438 14.367188 8.183594 Z M 14.367188 15.148438 L 14.367188 20.847656 C 12.917969 20.882812 11.472656 21.085938 10.066406 21.453125 C 9.226562 19.449219 8.765625 17.3125 8.703125 15.144531 Z M 14.367188 22.109375 L 14.367188 27.519531 C 12.820312 26.132812 11.546875 24.472656 10.609375 22.617188 C 11.839844 22.316406 13.101562 22.144531 14.367188 22.109375 Z M 15.632812 22.109375 C 16.898438 22.144531 18.15625 22.316406 19.386719 22.617188 C 18.445312 24.464844 17.171875 26.128906 15.632812 27.515625 Z M 15.632812 20.847656 L 15.632812 15.148438 L 21.296875 15.148438 C 21.234375 17.3125 20.769531 19.449219 19.929688 21.449219 C 18.523438 21.085938 17.082031 20.882812 15.632812 20.847656 Z M 15.632812 13.886719 L 15.632812 8.183594 C 17.082031 8.148438 18.523438 7.945312 19.929688 7.582031 C 20.769531 9.582031 21.234375 11.71875 21.296875 13.886719 Z M 15.632812 6.921875 L 15.632812 1.515625 C 17.171875 2.902344 18.445312 4.566406 19.386719 6.414062 C 18.15625 6.71875 16.898438 6.886719 15.632812 6.921875 Z M 17.449219 1.492188 C 19.808594 1.9375 22 3.015625 23.792969 4.609375 C 22.792969 5.199219 21.738281 5.679688 20.640625 6.050781 C 19.816406 4.375 18.742188 2.839844 17.449219 1.492188 Z M 9.359375 6.046875 C 8.261719 5.679688 7.207031 5.195312 6.207031 4.609375 C 8 3.015625 10.191406 1.9375 12.550781 1.492188 C 11.257812 2.839844 10.183594 4.375 9.359375 6.046875 Z M 9.359375 22.980469 C 10.183594 24.65625 11.261719 26.195312 12.550781 27.539062 C 10.191406 27.097656 8 26.015625 6.207031 24.421875 C 7.203125 23.832031 8.261719 23.351562 9.359375 22.980469 Z M 20.640625 22.980469 C 21.738281 23.351562 22.796875 23.835938 23.792969 24.421875 C 22 26.019531 19.804688 27.097656 17.445312 27.539062 C 18.738281 26.195312 19.816406 24.65625 20.640625 22.980469 Z M 22.5625 13.886719 C 22.503906 11.59375 22.03125 9.332031 21.164062 7.207031 C 22.410156 6.777344 23.601562 6.214844 24.726562 5.523438 C 26.847656 7.808594 28.089844 10.769531 28.238281 13.886719 Z M 22.5625 13.886719 " fill-opacity="1" fill-rule="nonzero"/></g></svg>