<svg xmlns="http://www.w3.org/2000/svg" xmlns:xlink="http://www.w3.org/1999/xlink" width="40" zoomAndPan="magnify" viewBox="0 0 30 30.000001" height="40" preserveAspectRatio="xMidYMid meet" version="1.0"><defs><clipPath id="14889518c7"><path d="M 8.140625 0 L 21.929688 0 L 21.929688 29 L 8.140625 29 Z M 8.140625 0 " clip-rule="nonzero"/></clipPath></defs><g clip-path="url(#14889518c7)"><path fill="#ffffff" d="M 18.75 4.820312 L 21.929688 4.820312 L 21.929688 0.0507812 L 17.867188 0.0507812 L 17.867188 0.0703125 C 12.527344 0.265625 11.425781 3.238281 11.335938 6.382812 L 11.324219 6.382812 L 11.324219 9.691406 L 8.140625 9.691406 L 8.140625 14.46875 L 11.324219 14.46875 L 11.324219 28.980469 L 17.03125 28.980469 L 17.03125 14.46875 L 21.125 14.46875 L 21.929688 9.691406 L 17.03125 9.691406 L 17.03125 6.730469 C 17.03125 5.675781 17.742188 4.820312 18.75 4.820312 Z M 18.75 4.820312 " fill-opacity="1" fill-rule="nonzero"/></g></svg>