<svg xmlns="http://www.w3.org/2000/svg" xmlns:xlink="http://www.w3.org/1999/xlink" width="40" zoomAndPan="magnify" viewBox="0 0 30 30.000001" height="40" preserveAspectRatio="xMidYMid meet" version="1.0"><defs><clipPath id="e26d2b6d04"><path d="M 0.484375 3.882812 L 29.515625 3.882812 L 29.515625 24.929688 L 0.484375 24.929688 Z M 0.484375 3.882812 " clip-rule="nonzero"/></clipPath></defs><g clip-path="url(#e26d2b6d04)"><path fill="#ffae00" d="M 26.597656 3.882812 L 3.402344 3.882812 C 3.015625 3.882812 2.648438 3.957031 2.292969 4.105469 C 1.9375 4.25 1.625 4.460938 1.351562 4.730469 C 1.078125 5.003906 0.871094 5.316406 0.722656 5.671875 C 0.574219 6.027344 0.5 6.398438 0.5 6.78125 L 0.5 22.246094 C 0.5 22.632812 0.574219 23 0.722656 23.355469 C 0.871094 23.710938 1.078125 24.027344 1.351562 24.296875 C 1.625 24.570312 1.9375 24.777344 2.292969 24.925781 C 2.648438 25.074219 3.015625 25.148438 3.402344 25.148438 L 26.597656 25.148438 C 26.984375 25.148438 27.351562 25.074219 27.707031 24.925781 C 28.0625 24.777344 28.375 24.570312 28.648438 24.296875 C 28.921875 24.027344 29.128906 23.710938 29.277344 23.355469 C 29.425781 23 29.5 22.632812 29.5 22.246094 L 29.5 6.78125 C 29.5 6.398438 29.425781 6.027344 29.277344 5.671875 C 29.128906 5.316406 28.921875 5.003906 28.648438 4.730469 C 28.375 4.460938 28.0625 4.25 27.707031 4.105469 C 27.351562 3.957031 26.984375 3.882812 26.597656 3.882812 Z M 2.433594 6.953125 L 10.457031 13.824219 L 2.433594 21.847656 Z M 15.628906 14.636719 C 15.449219 14.792969 15.238281 14.871094 15 14.871094 C 14.761719 14.871094 14.550781 14.792969 14.371094 14.636719 L 4.078125 5.816406 L 25.921875 5.816406 Z M 11.929688 15.085938 L 13.113281 16.101562 C 13.378906 16.320312 13.671875 16.488281 13.996094 16.601562 C 14.320312 16.71875 14.65625 16.777344 15 16.777344 C 15.34375 16.777344 15.675781 16.71875 16 16.601562 C 16.324219 16.488281 16.621094 16.320312 16.886719 16.101562 L 18.070312 15.085938 L 26.199219 23.214844 L 3.800781 23.214844 Z M 19.542969 13.832031 L 27.566406 6.953125 L 27.566406 21.847656 Z M 19.542969 13.832031 " fill-opacity="1" fill-rule="nonzero"/></g></svg>