<svg xmlns="http://www.w3.org/2000/svg" xmlns:xlink="http://www.w3.org/1999/xlink" width="40" zoomAndPan="magnify" viewBox="0 0 30 30.000001" height="40" preserveAspectRatio="xMidYMid meet" version="1.0"><defs><clipPath id="7b7eb91c7e"><path d="M 8.140625 0 L 21.929688 0 L 21.929688 29 L 8.140625 29 Z M 8.140625 0 " clip-rule="nonzero"/></clipPath></defs><g clip-path="url(#7b7eb91c7e)"><path fill="#ffae00" d="M 18.6875 4.820312 L 21.851562 4.820312 L 21.851562 0.0507812 L 17.8125 0.0507812 L 17.8125 0.0703125 C 12.503906 0.265625 11.40625 3.238281 11.316406 6.382812 L 11.304688 6.382812 L 11.304688 9.691406 L 8.140625 9.691406 L 8.140625 14.46875 L 11.304688 14.46875 L 11.304688 28.980469 L 16.980469 28.980469 L 16.980469 14.46875 L 21.050781 14.46875 L 21.851562 9.691406 L 16.980469 9.691406 L 16.980469 6.730469 C 16.980469 5.675781 17.683594 4.820312 18.6875 4.820312 Z M 18.6875 4.820312 " fill-opacity="1" fill-rule="nonzero"/></g></svg>