<svg xmlns="http://www.w3.org/2000/svg" xmlns:xlink="http://www.w3.org/1999/xlink" width="40" zoomAndPan="magnify" viewBox="0 0 30 30.000001" height="40" preserveAspectRatio="xMidYMid meet" version="1.0"><defs><clipPath id="c4221c3650"><path d="M 0.484375 1.535156 L 29.515625 1.535156 L 29.515625 27.664062 L 0.484375 27.664062 Z M 0.484375 1.535156 " clip-rule="nonzero"/></clipPath></defs><g clip-path="url(#c4221c3650)"><path fill="#ffffff" d="M 27.601562 22.4375 C 27.601562 24.171875 26.191406 25.582031 24.453125 25.582031 L 5.542969 25.582031 C 3.808594 25.582031 2.394531 24.171875 2.394531 22.4375 L 2.394531 6.597656 C 2.394531 4.863281 3.808594 3.453125 5.542969 3.453125 L 24.453125 3.453125 C 26.191406 3.453125 27.601562 4.863281 27.601562 6.597656 Z M 29.515625 22.4375 L 29.515625 6.597656 C 29.515625 3.808594 27.246094 1.539062 24.453125 1.539062 L 5.542969 1.539062 C 2.753906 1.539062 0.484375 3.808594 0.484375 6.597656 L 0.484375 22.4375 C 0.484375 25.226562 2.753906 27.496094 5.542969 27.496094 L 24.453125 27.496094 C 27.246094 27.496094 29.515625 25.226562 29.515625 22.4375 " fill-opacity="1" fill-rule="nonzero"/></g><path fill="#ffffff" d="M 20.183594 15.507812 L 12.171875 19.570312 C 11.507812 19.90625 10.71875 19.425781 10.71875 18.675781 L 10.722656 10.554688 C 10.722656 9.808594 11.507812 9.324219 12.175781 9.660156 L 20.183594 13.726562 C 20.914062 14.09375 20.914062 15.140625 20.183594 15.507812 " fill-opacity="1" fill-rule="nonzero"/></svg>