<svg xmlns="http://www.w3.org/2000/svg" xmlns:xlink="http://www.w3.org/1999/xlink" width="40" zoomAndPan="magnify" viewBox="0 0 30 30.000001" height="40" preserveAspectRatio="xMidYMid meet" version="1.0"><defs><clipPath id="348934aba2"><path d="M 0.484375 0 L 29.515625 0 L 29.515625 29.03125 L 0.484375 29.03125 Z M 0.484375 0 " clip-rule="nonzero"/></clipPath></defs><path fill="#ffffff" d="M 16.542969 8.359375 L 15 10.578125 L 13.457031 8.359375 L 8.035156 8.359375 L 12.289062 14.515625 L 8.035156 20.671875 L 13.457031 20.671875 L 15 18.453125 L 16.542969 20.671875 L 21.964844 20.671875 L 17.710938 14.515625 L 21.964844 8.359375 Z M 16.542969 8.359375 " fill-opacity="1" fill-rule="nonzero"/><g clip-path="url(#348934aba2)"><path fill="#ffffff" d="M 15 0 C 11.121094 0 7.476562 1.511719 4.734375 4.25 C 1.992188 6.992188 0.484375 10.640625 0.484375 14.515625 C 0.484375 18.394531 1.992188 22.039062 4.734375 24.78125 C 7.476562 27.523438 11.121094 29.03125 15 29.03125 C 18.878906 29.03125 22.523438 27.523438 25.265625 24.78125 C 28.007812 22.039062 29.515625 18.394531 29.515625 14.515625 C 29.515625 10.640625 28.007812 6.992188 25.265625 4.25 C 22.523438 1.511719 18.878906 0 15 0 Z M 15 26.882812 C 8.179688 26.882812 2.632812 21.335938 2.632812 14.515625 C 2.632812 7.699219 8.179688 2.152344 15 2.152344 C 21.820312 2.152344 27.367188 7.699219 27.367188 14.515625 C 27.367188 21.335938 21.820312 26.882812 15 26.882812 Z M 15 26.882812 " fill-opacity="1" fill-rule="nonzero"/></g></svg>